<?xml version="1.0" standalone="no"?>
<!DOCTYPE svg PUBLIC "-//W3C//DTD SVG 1.1//EN" "http://www.w3.org/Graphics/SVG/1.1/DTD/svg11.dtd" >
<svg xmlns="http://www.w3.org/2000/svg" xmlns:xlink="http://www.w3.org/1999/xlink" version="1.1">
<metadata>
Created by FontForge 20170731 at Wed Feb  2 18:20:36 2022
 By Aleksey,,,
Copyright (c) 2015 by Radomir Tinkov. All rights reserved.
</metadata>
<defs>
<font id="Gilroy-UltraLightItalic" horiz-adv-x="1167" >
  <font-face 
    font-family="Gilroy UltraLight Italic"
    font-weight="250"
    font-style="italic"
    font-stretch="normal"
    units-per-em="2048"
    panose-1="0 0 3 0 0 0 0 0 0 0"
    ascent="1638"
    descent="-410"
    x-height="1024"
    cap-height="1434"
    bbox="-586 -492 2130.76 1966"
    underline-thickness="102"
    underline-position="-307"
    slope="-10"
    unicode-range="U+0020-FB02"
  />
<missing-glyph horiz-adv-x="1024" 
d="M840 1638v-2048h-650v2048h650zM682 1501h-338v-67h133v-76h-135v-68h340v68h-135v76h135v67zM547 1237h-205v-213h340v70h-135v143zM477 1167v-73h-67v73h67zM682 969h-340v-68h135v-76h-135v-67h205v143h135v68zM682 846h-68v-135h-272v-70h340v205zM682 596h-205v-115
h70v47h67v-96h-204v164h-68v-231h340v231zM682 242h-340v-232h340v232zM614 174v-96h-204v96h204zM682 -37h-340v-67h143l-143 -97v-67h340v67h-209l143 97h66v67z" />
    <glyph glyph-name="fi" unicode="fi" horiz-adv-x="1034" 
d="M780 1386q-164 0 -251 -70.5t-115 -223.5l-13 -68h551l-180 -1024h-72l168 956h-479l-168 -956h-71l167 956h-180l10 68h183l12 68q32 185 143.5 274.5t307.5 89.5q102 0 198 -22l-12 -66q-91 18 -199 18z" />
    <glyph glyph-name="fl" unicode="fl" horiz-adv-x="1034" 
d="M793 1456q112 0 231 -22l-252 -1434h-72l242 1378q-80 13 -160 13q-164 0 -252 -72.5t-116 -226.5l-13 -68h254l-12 -68h-254l-168 -956h-71l167 956h-180l10 68h183l12 68q32 185 143.5 274.5t307.5 89.5z" />
    <glyph glyph-name="f_f" unicode="ff" horiz-adv-x="1177" 
d="M897 1112q31 189 146.5 284.5t304.5 80.5l-11 -70q-310 25 -368 -295l-17 -88h316l-11 -68h-315l-170 -956h-72l170 956h-481l-168 -956h-71l167 956h-180l10 68h183l12 68q33 189 147 284t304 80l-13 -70q-308 26 -366 -294l-13 -68h480z" />
    <glyph glyph-name="f_f_i" unicode="ffi" horiz-adv-x="1585" 
d="M1337 1407q-165 0 -252.5 -71t-115.5 -224l-17 -88h553l-180 -1024h-74l168 956h-477l-170 -956h-72l170 956h-481l-168 -956h-71l167 956h-180l10 68h183l12 68q33 189 147 284t304 80l-13 -70q-308 26 -366 -294l-13 -68h480l16 88q60 365 451 365q98 0 198 -23
l-10 -65q-92 18 -199 18z" />
    <glyph glyph-name="f_f_l" unicode="ffl" horiz-adv-x="1585" 
d="M1348 1477q108 0 233 -23l-256 -1454h-74l246 1399q-74 12 -160 12q-164 0 -252 -72.5t-116 -226.5l-17 -88h254l-10 -68h-254l-170 -956h-72l170 956h-481l-168 -956h-71l167 956h-180l10 68h183l12 68q33 189 147 284t304 80l-13 -70q-308 26 -366 -294l-13 -68h480
l16 88q60 365 451 365z" />
    <glyph glyph-name=".notdef" horiz-adv-x="1024" 
d="M840 1638v-2048h-650v2048h650zM682 1501h-338v-67h133v-76h-135v-68h340v68h-135v76h135v67zM547 1237h-205v-213h340v70h-135v143zM477 1167v-73h-67v73h67zM682 969h-340v-68h135v-76h-135v-67h205v143h135v68zM682 846h-68v-135h-272v-70h340v205zM682 596h-205v-115
h70v47h67v-96h-204v164h-68v-231h340v231zM682 242h-340v-232h340v232zM614 174v-96h-204v96h204zM682 -37h-340v-67h143l-143 -97v-67h340v67h-209l143 97h66v67z" />
    <glyph glyph-name=".null" horiz-adv-x="0" 
 />
    <glyph glyph-name="nonmarkingreturn" horiz-adv-x="682" 
 />
    <glyph glyph-name="space" unicode=" " horiz-adv-x="579" 
 />
    <glyph glyph-name="exclam" unicode="!" horiz-adv-x="430" 
d="M156 348l108 676l72 410h82l-72 -410l-129 -676h-61zM123 -20q-31 0 -48 21t-12 52q6 31 29.5 50.5t54.5 19.5t48.5 -21.5t11.5 -52.5t-29 -50t-55 -19z" />
    <glyph glyph-name="quotedbl" unicode="&#x22;" horiz-adv-x="567" 
d="M223 1079l56 355h73l-67 -355h-62zM481 1079l56 355h75l-69 -355h-62z" />
    <glyph glyph-name="numbersign" unicode="#" horiz-adv-x="1245" 
d="M1208 866h-243l-103 -299h244l-25 -69h-241l-135 -396h-74l135 396h-360l-136 -396h-73l135 396h-246l25 69h243l103 299h-246l22 70h246l135 395h74l-135 -395h360l136 395h73l-135 -395h244zM788 567l103 299h-361l-102 -299h360z" />
    <glyph glyph-name="dollar" unicode="$" horiz-adv-x="1134" 
d="M1051 1167q-64 191 -269 213l-112 -632q85 -33 141 -63.5t113.5 -79.5t78.5 -118t5 -157q-30 -161 -157 -253t-316 -100l-33 -182h-68l33 182q-166 7 -275.5 83t-138.5 204l68 35q22 -115 115.5 -180t242.5 -70l115 649q-83 32 -139 62.5t-112.5 79t-77.5 117.5t-5 157
q30 156 162.5 249t302.5 93h2l33 182h67l-32 -186q122 -15 206 -82t115 -170zM336 1106q-5 -28 -5.5 -54.5t4.5 -49t13.5 -42.5t22 -37.5t28 -33t34.5 -29.5t39 -25.5t42.5 -23t44.5 -20.5t47 -19l109 612q-145 -3 -250.5 -81t-128.5 -197zM932 338q8 30 5.5 58.5t-6.5 51.5
t-17 45t-26 39.5t-34.5 34.5t-42 31t-47.5 28t-51.5 25t-55.5 23l-110 -623q162 9 261.5 86.5t123.5 200.5z" />
    <glyph glyph-name="percent" unicode="%" horiz-adv-x="1480" 
d="M512 846q-133 0 -209 91.5t-53 219.5q23 129 126 214t240 85q132 0 208 -91.5t53 -219.5q-23 -129 -125.5 -214t-239.5 -85zM520 911q106 0 187 68.5t98 171.5q19 102 -38 171t-161 69q-105 0 -186 -69t-98 -171q-19 -102 37.5 -171t160.5 -69zM158 174l1177 1112l54 -31
l-1178 -1112zM938 -23q-133 0 -209 92t-53 220q23 129 126 214t240 85q132 0 208 -92t53 -220q-23 -129 -125.5 -214t-239.5 -85zM946 43q106 0 187 68.5t98 171.5q19 102 -38 170.5t-161 68.5q-105 0 -186 -68.5t-98 -170.5q-19 -102 37.5 -171t160.5 -69z" />
    <glyph glyph-name="ampersand" unicode="&#x26;" horiz-adv-x="1347" 
d="M1194 553q-64 -192 -164 -320l172 -215l-63 -32l-156 194q-193 -203 -471 -203q-203 0 -316 115.5t-81 298.5q24 133 122.5 239t247.5 175q-47 69 -66 139t-5 158q28 158 149 256t287 98q137 0 234.5 -68.5t140.5 -191.5l-66 -35q-36 106 -115.5 164.5t-197.5 58.5
q-135 0 -235.5 -81t-123.5 -205q-16 -96 14.5 -169.5t104.5 -166.5l379 -473q94 123 152 303zM516 49q249 0 424 187l-387 483l-25 31q-139 -60 -228.5 -156t-109.5 -209q-27 -154 66.5 -245t259.5 -91z" />
    <glyph glyph-name="quotesingle" unicode="'" horiz-adv-x="292" 
d="M223 1079l56 355h73l-67 -355h-62z" />
    <glyph glyph-name="parenleft" unicode="(" horiz-adv-x="483" 
d="M221 -205q-142 461 -61 928q85 487 387 915h74q-306 -451 -388 -921q-82 -472 62 -922h-74z" />
    <glyph glyph-name="parenright" unicode=")" horiz-adv-x="481" 
d="M334 1638q142 -460 61 -927q-85 -488 -387 -916h-74q306 450 388 922t-62 921h74z" />
    <glyph glyph-name="asterisk" unicode="*" horiz-adv-x="782" 
d="M776 1255l-12 -63l-203 4l82 -172l-59 -33l-76 176l-131 -176l-58 35l140 170l-203 -4l12 63l201 -4l-80 172l60 33l73 -178l133 178l58 -35l-142 -170z" />
    <glyph glyph-name="plus" unicode="+" horiz-adv-x="1079" 
d="M983 752l-10 -70h-367l-65 -369h-72l66 369h-369l12 70h367l65 368h72l-66 -368h367z" />
    <glyph glyph-name="comma" unicode="," horiz-adv-x="423" 
d="M221 106l-166 -393h-67l143 393h90z" />
    <glyph glyph-name="hyphen" unicode="-" horiz-adv-x="1120" 
d="M207 598l12 70h737l-12 -70h-737z" />
    <glyph glyph-name="period" unicode="." horiz-adv-x="403" 
d="M106 -20q-29 0 -46 21t-11 52t29 50.5t55 19.5q29 0 46 -21.5t11 -52.5t-29 -50t-55 -19z" />
    <glyph glyph-name="slash" unicode="/" horiz-adv-x="1071" 
d="M33 -205h-64l1141 1843h66z" />
    <glyph glyph-name="zero" unicode="0" horiz-adv-x="1292" 
d="M555 -23q-163 0 -268.5 95.5t-137 262t4.5 390.5q60 338 231.5 534.5t423.5 196.5q163 0 268.5 -95.5t137 -261.5t-4.5 -390q-60 -338 -231.5 -535t-423.5 -197zM563 49q211 0 364 177.5t208 490.5t-34 490t-300 177q-212 0 -365 -177.5t-207 -489.5q-57 -312 33 -490
t301 -178z" />
    <glyph glyph-name="one" unicode="1" horiz-adv-x="663" 
d="M573 1434h62l-252 -1434h-76l238 1350l-359 -111l-10 66z" />
    <glyph glyph-name="two" unicode="2" horiz-adv-x="1081" 
d="M6 0l10 68l635 561q135 118 218 223t100 207q27 146 -54 235.5t-229 89.5q-127 0 -230 -60t-175 -171l-58 37q82 127 205 196.5t266 69.5q83 0 154 -28.5t120 -79.5t69.5 -128t4.5 -169q-14 -82 -66.5 -167.5t-116.5 -153t-161 -152.5l-571 -506h782l-12 -72h-891z" />
    <glyph glyph-name="three" unicode="3" horiz-adv-x="1124" 
d="M1100 1434l-10 -70l-445 -524q179 -16 281 -134t69 -300q-35 -197 -187.5 -313t-358.5 -116q-154 0 -261.5 70t-140.5 195l66 34q26 -108 115 -167.5t229 -59.5q179 0 307.5 101t157.5 262q28 161 -64.5 261.5t-271.5 100.5h-23l-22 49l456 541h-721l13 70h811z" />
    <glyph glyph-name="four" unicode="4" horiz-adv-x="1153" 
d="M1085 383l-10 -70h-184l-55 -313h-76l55 313h-784l10 70l739 1051h86l-739 -1051h700l82 463h74l-80 -463h182z" />
    <glyph glyph-name="five" unicode="5" horiz-adv-x="1114" 
d="M1116 1364h-680l-127 -518h299q196 0 314 -124.5t84 -318.5q-35 -195 -188 -310.5t-359 -115.5q-155 0 -263.5 72.5t-140.5 200.5l66 35q25 -111 115.5 -173.5t230.5 -62.5q180 0 308.5 100.5t156.5 260.5q29 162 -62.5 263t-273.5 101h-377l162 660h747z" />
    <glyph glyph-name="six" unicode="6" horiz-adv-x="1114" 
d="M629 920q206 0 319.5 -135t77.5 -343q-38 -210 -194 -337.5t-369 -127.5q-136 0 -235 61.5t-142.5 172t-19.5 248.5q30 166 137 282l610 693h88l-483 -551q98 37 211 37zM952 451q30 174 -60.5 286.5t-275.5 112.5q-186 0 -315.5 -112.5t-161.5 -286.5q-31 -176 59 -289
t277 -113q185 0 315.5 113t161.5 289z" />
    <glyph glyph-name="seven" unicode="7" horiz-adv-x="1003" 
d="M217 1434h852l-10 -70l-809 -1364h-82l811 1364h-774z" />
    <glyph glyph-name="eight" unicode="8" horiz-adv-x="1132" 
d="M1090 1071q-21 -119 -100.5 -205t-196.5 -127q122 -43 181 -141.5t36 -230.5q-33 -184 -178.5 -287t-360.5 -103q-206 0 -319 111.5t-80 294.5q23 134 115 227.5t233 132.5q-101 44 -150 134.5t-28 207.5q30 172 166.5 271.5t320.5 99.5q86 0 159 -27.5t123 -76.5
t72 -122t7 -159zM610 772q160 0 270 85.5t134 221.5q25 137 -55.5 221t-239.5 84q-158 0 -268.5 -84t-133.5 -221q-25 -134 56 -220.5t237 -86.5zM936 375q25 149 -64.5 238t-273.5 89t-305 -89t-146 -238q-27 -148 62 -237t274 -89q186 0 305.5 88.5t147.5 237.5z" />
    <glyph glyph-name="nine" unicode="9" horiz-adv-x="1114" 
d="M723 1456q206 0 320 -136.5t77 -344.5q-29 -166 -139 -285l-606 -690h-90l483 551q-98 -37 -211 -37q-205 0 -319 135.5t-78 343.5q37 208 193 335.5t370 127.5zM1047 983q31 176 -59 288.5t-277 112.5q-185 0 -316 -113t-162 -288q-31 -174 59 -286.5t277 -112.5
t317.5 112.5t160.5 286.5z" />
    <glyph glyph-name="colon" unicode=":" horiz-adv-x="403" 
d="M262 860q-29 0 -46 21.5t-11 52.5t29 50.5t55 19.5q29 0 46 -21.5t11 -52.5t-29 -50.5t-55 -19.5zM106 -20q-29 0 -46 21t-11 52t29 50.5t55 19.5q29 0 46 -21.5t11 -52.5t-29 -50t-55 -19z" />
    <glyph glyph-name="semicolon" unicode=";" horiz-adv-x="440" 
d="M299 860q-29 0 -46 21.5t-11 52.5t29 50.5t55 19.5q29 0 46 -21.5t11 -52.5t-29 -50.5t-55 -19.5zM221 106l-166 -393h-67l143 393h90z" />
    <glyph glyph-name="less" unicode="&#x3c;" horiz-adv-x="1091" 
d="M1063 1122l-14 -82l-795 -327l678 -328l-12 -74l-754 369l8 37l4 37z" />
    <glyph glyph-name="equal" unicode="=" horiz-adv-x="1091" 
d="M203 887l12 69h819l-12 -69h-819zM129 477l14 70h820l-15 -70h-819z" />
    <glyph glyph-name="greater" unicode="&#x3e;" horiz-adv-x="1091" 
d="M246 1122l751 -368l-12 -74l-883 -369l13 82l796 328l-680 328z" />
    <glyph glyph-name="question" unicode="?" horiz-adv-x="1081" 
d="M442 348q13 73 46.5 140t78 118.5t95.5 100t101 93.5t93 90t74.5 98.5t40.5 109.5q25 132 -50 209t-233 77q-124 0 -230.5 -62t-160.5 -165l-61 37q65 121 193.5 191.5t270.5 70.5q114 0 199 -43t126.5 -127.5t21.5 -195.5q-11 -61 -43 -118.5t-75.5 -104t-94 -92.5
t-101.5 -92.5t-95 -95.5t-77 -110.5t-45 -128.5h-74zM414 -20q-30 0 -47 21.5t-11 51.5q6 31 29 50.5t55 19.5q29 0 46.5 -21.5t11.5 -52.5t-29 -50t-55 -19z" />
    <glyph glyph-name="at" unicode="@" horiz-adv-x="1683" 
d="M987 1253q93 0 176 -21.5t146.5 -59.5t116 -90.5t85.5 -115t54.5 -132t22.5 -142t-9 -145.5q-20 -113 -58 -196t-87 -129t-100 -67.5t-105 -21.5q-88 0 -131 54t-35 143q-52 -69 -127.5 -107.5t-163.5 -38.5q-139 0 -219 98t-55 236q25 140 133 231t254 91
q86 0 148.5 -42t92.5 -114l25 141h70l-84 -469q-14 -81 11 -128.5t97 -47.5q100 0 177 95.5t110 277.5q31 183 -30 333.5t-198.5 237t-324.5 86.5q-194 0 -370 -91t-296.5 -251t-154.5 -354q-35 -198 31.5 -358t218.5 -251t360 -91q203 0 358 55l2 -43q-160 -55 -366 -55
q-165 0 -300 57.5t-221.5 156.5t-122 238.5t-7.5 298.5q36 203 161.5 370t314.5 264t400 97zM784 250q106 0 193 67.5t115 171.5l6 43q12 105 -50.5 173.5t-168.5 68.5q-113 0 -202.5 -74.5t-109.5 -187.5t43 -187.5t174 -74.5z" />
    <glyph glyph-name="A" unicode="A" horiz-adv-x="1288" 
d="M1079 0l-80 379h-751l-215 -379h-82l813 1434h84l309 -1434h-78zM287 449h698l-190 897z" />
    <glyph glyph-name="B" unicode="B" horiz-adv-x="1284" 
d="M1223 1061q-19 -108 -91 -194t-176 -128q112 -36 170 -135t37 -225q-24 -157 -150 -268t-304 -111h-609l252 1434h539q106 0 188 -49.5t121 -135.5t23 -188zM801 766q122 0 224 87.5t124 211.5q22 123 -53.5 211t-204.5 88h-475l-105 -598h490zM1090 383
q23 129 -51.5 221t-200.5 92h-539l-111 -626h529q137 0 243 91t130 222z" />
    <glyph glyph-name="C" unicode="C" horiz-adv-x="1550" 
d="M756 -23q-156 0 -283.5 59.5t-207.5 160t-112.5 239t-5.5 291.5q36 204 157 370.5t303 262.5t386 96q199 0 348.5 -92t223.5 -248l-66 -35q-66 139 -196.5 221t-311.5 82q-143 0 -275 -52.5t-232.5 -142.5t-170 -212.5t-92.5 -259.5q-24 -136 3.5 -259t97.5 -213
t183.5 -143t254.5 -53q183 0 343.5 85.5t266.5 232.5l62 -39q-114 -159 -293 -255t-383 -96z" />
    <glyph glyph-name="D" unicode="D" horiz-adv-x="1503" 
d="M879 1434q142 0 258 -58.5t188 -157.5t100 -233t2 -280q-35 -197 -146 -357t-283 -254t-371 -94h-527l252 1434h527zM1354 715q31 178 -18 326t-172.5 235.5t-297.5 87.5h-450l-228 -1294h451q174 0 328 87t255.5 234t131.5 324z" />
    <glyph glyph-name="E" unicode="E" horiz-adv-x="1099" 
d="M1143 1364h-727l-107 -606h676l-12 -70h-676l-109 -618h738l-13 -70h-813l252 1434h803z" />
    <glyph glyph-name="F" unicode="F" horiz-adv-x="1069" 
d="M1122 1364h-706l-109 -619h690l-12 -69h-690l-119 -676h-76l252 1434h783z" />
    <glyph glyph-name="G" unicode="G" horiz-adv-x="1660" 
d="M1575 655l-6 -39q-35 -180 -142 -324.5t-275 -229.5t-366 -85q-165 0 -298.5 61t-215.5 164.5t-115 242.5t-7 292q33 199 152.5 363t302.5 260t390 96q205 0 352.5 -94t221.5 -246l-66 -35q-67 138 -197.5 220.5t-314.5 82.5q-143 0 -275.5 -52t-233 -140.5t-169 -209.5
t-90.5 -257q-23 -138 7 -262t102.5 -215.5t191.5 -145t267 -53.5q132 0 250.5 42.5t207 116t151 171t89.5 207.5h-643l12 69h717z" />
    <glyph glyph-name="H" unicode="H" horiz-adv-x="1419" 
d="M1315 1434h76l-252 -1434h-76l123 702h-887l-123 -702h-76l252 1434h76l-117 -662h887z" />
    <glyph glyph-name="I" unicode="I" horiz-adv-x="456" 
d="M352 1434h76l-252 -1434h-76z" />
    <glyph glyph-name="J" unicode="J" horiz-adv-x="1134" 
d="M434 -23q-154 0 -255.5 62.5t-135.5 177.5l68 35q25 -97 108 -150t219 -53q167 0 282.5 90t143.5 242l185 1053h75l-184 -1055q-34 -190 -175 -296t-331 -106z" />
    <glyph glyph-name="K" unicode="K" horiz-adv-x="1153" 
d="M1278 1434l-889 -703l653 -731h-90l-649 721l-127 -721h-76l252 1434h76l-119 -678l862 678h107z" />
    <glyph glyph-name="L" unicode="L" horiz-adv-x="1017" 
d="M188 70h697l-13 -70h-772l252 1434h76z" />
    <glyph glyph-name="M" unicode="M" horiz-adv-x="1665" 
d="M1636 1434l-252 -1434h-75l231 1319l-713 -907h-18l-399 919l-234 -1331h-76l252 1434h90l392 -899l706 899h96z" />
    <glyph glyph-name="N" unicode="N" horiz-adv-x="1419" 
d="M100 0l252 1434h66l669 -1299l228 1299h76l-252 -1434h-64l-669 1298l-230 -1298h-76z" />
    <glyph glyph-name="O" unicode="O" horiz-adv-x="1697" 
d="M758 -23q-151 0 -278.5 60.5t-209 161.5t-116 239.5t-7.5 288.5q35 202 161.5 369.5t312 263.5t389.5 96q151 0 278.5 -61t209 -162.5t116.5 -241t8 -289.5q-27 -151 -107.5 -285t-195 -230.5t-261.5 -153t-300 -56.5zM768 49q184 0 351.5 88.5t281 241t147.5 334.5
q31 183 -30 337t-198.5 244t-320.5 90t-350.5 -89.5t-281 -242.5t-146.5 -335t28.5 -335.5t199 -243t319.5 -89.5z" />
    <glyph glyph-name="P" unicode="P" horiz-adv-x="1193" 
d="M809 1434q197 0 301.5 -125t73.5 -312q-30 -187 -177.5 -312.5t-357.5 -125.5h-375l-98 -559h-76l252 1434h457zM1110 1004q28 158 -57 259t-248 101h-389l-129 -735h368q176 0 301.5 106t153.5 269z" />
    <glyph glyph-name="Q" unicode="Q" horiz-adv-x="1708" 
d="M1622 702q-27 -159 -113.5 -297.5t-216.5 -238.5l138 -164l-54 -47l-141 170q-224 -148 -477 -148q-151 0 -278.5 60.5t-209 161.5t-116 239.5t-7.5 288.5q35 202 161.5 369.5t312 263.5t389.5 96q151 0 278.5 -61t209 -162.5t116.5 -241t8 -289.5zM1247 221
q117 92 195.5 219t105.5 273q31 183 -30 337t-198.5 244t-320.5 90t-350.5 -89.5t-281 -242.5t-146.5 -335t28.5 -335.5t199 -243t319.5 -89.5q222 0 422 131l-268 322l53 45z" />
    <glyph glyph-name="R" unicode="R" horiz-adv-x="1263" 
d="M913 1434q109 0 195 -59t126 -158t21 -211q-26 -145 -134.5 -254t-254.5 -142l252 -610h-78l-245 600h-29h-485l-105 -600h-76l252 1434h561zM1182 1018q26 142 -57 244t-224 102h-485l-123 -694h485q142 0 260.5 102.5t143.5 245.5z" />
    <glyph glyph-name="S" unicode="S" horiz-adv-x="1150" 
d="M518 -23q-191 0 -315.5 88t-157.5 240l66 35q25 -136 130 -213.5t279 -77.5q183 0 294.5 78.5t137.5 206.5q15 76 -5 134.5t-78.5 100.5t-111 66.5t-141.5 56.5q-157 59 -224 103q-182 118 -144 321q30 157 161.5 248.5t301.5 91.5q168 0 273.5 -82t145.5 -213l-65 -33
q-36 116 -122 186t-234 70q-145 0 -254 -75.5t-133 -200.5q-6 -32 -5.5 -60t7.5 -52.5t18.5 -45.5t28.5 -39.5t36.5 -34.5t42.5 -30t48 -26t51.5 -23.5t53 -21.5t53.5 -20q1 0 1.5 -0.5t1.5 -0.5q96 -37 153 -65.5t122 -79t87 -121t5 -162.5q-33 -168 -171 -258.5
t-337 -90.5z" />
    <glyph glyph-name="T" unicode="T" horiz-adv-x="1105" 
d="M1212 1434l-10 -70h-463l-239 -1364h-74l240 1364h-461l12 70h995z" />
    <glyph glyph-name="U" unicode="U" horiz-adv-x="1378" 
d="M608 -23q-239 0 -361 138t-83 354l170 965h76l-170 -965q-34 -185 60.5 -302.5t307.5 -117.5t348.5 118.5t167.5 301.5l170 965h76l-170 -965q-39 -223 -199 -357.5t-393 -134.5z" />
    <glyph glyph-name="V" unicode="V" horiz-adv-x="1230" 
d="M485 0l-288 1434h73l267 -1344l739 1344h84l-793 -1434h-82z" />
    <glyph glyph-name="W" unicode="W" horiz-adv-x="2021" 
d="M401 0l-163 1434h71l152 -1338l663 1338h88l195 -1338l621 1338h79l-667 -1434h-90l-195 1337l-663 -1337h-91z" />
    <glyph glyph-name="X" unicode="X" horiz-adv-x="1161" 
d="M1245 1434l-583 -705l354 -729h-78l-326 670l-557 -670h-90l613 739l-338 695h77l310 -637l528 637h90z" />
    <glyph glyph-name="Y" unicode="Y" horiz-adv-x="1157" 
d="M1284 1434l-641 -762l-117 -672h-75l118 672l-372 762h77l340 -695l584 695h86z" />
    <glyph glyph-name="Z" unicode="Z" horiz-adv-x="1079" 
d="M1145 1434l-12 -70l-1029 -1294h822l-13 -70h-907l12 70l1029 1294h-781l13 70h866z" />
    <glyph glyph-name="bracketleft" unicode="[" horiz-adv-x="559" 
d="M707 1569h-312l-301 -1704h312l-15 -70h-381l326 1843h381z" />
    <glyph glyph-name="backslash" unicode="\" horiz-adv-x="1071" 
d="M791 -205l-496 1843h57l498 -1843h-59z" />
    <glyph glyph-name="bracketright" unicode="]" horiz-adv-x="559" 
d="M623 1638l-326 -1843h-383l14 70h308l301 1704h-310l13 69h383z" />
    <glyph glyph-name="asciicircum" unicode="^" horiz-adv-x="1032" 
d="M711 1434l252 -615h-76l-219 533l-404 -533h-88l465 615h70z" />
    <glyph glyph-name="underscore" unicode="_" horiz-adv-x="1009" 
d="M-53 -258l10 70h848l-12 -70h-846z" />
    <glyph glyph-name="grave" unicode="`" horiz-adv-x="331" 
d="M406 1167l-123 252h-82l139 -252h66z" />
    <glyph glyph-name="a" unicode="a" horiz-adv-x="1339" 
d="M1186 1024h74l-181 -1024h-73l43 242q-80 -124 -210.5 -194.5t-287.5 -70.5q-143 0 -256.5 76.5t-167 206.5t-27.5 277q27 154 115.5 271t214 178t268.5 61q156 0 275 -88t160 -234zM565 47q187 0 332.5 115.5t189.5 298.5l11 67q21 192 -97.5 320.5t-304.5 128.5
q-191 0 -339.5 -123.5t-184.5 -325.5q-22 -128 22.5 -239t143.5 -176.5t227 -65.5z" />
    <glyph glyph-name="b" unicode="b" horiz-adv-x="1337" 
d="M791 1047q106 0 198.5 -44.5t153.5 -118.5t88 -177t8 -213q-40 -228 -210 -372.5t-400 -144.5q-155 0 -269 89t-153 233l-53 -299h-74l252 1434h74l-115 -658q81 126 212.5 198.5t287.5 72.5zM1167 502q35 196 -80.5 335.5t-310.5 139.5q-191 0 -339.5 -122.5
t-186.5 -311.5l-6 -33q-17 -125 29 -231.5t142.5 -169t221.5 -62.5q197 0 346.5 129t183.5 326z" />
    <glyph glyph-name="c" unicode="c" horiz-adv-x="1169" 
d="M539 -23q-149 0 -259.5 73t-159 198.5t-22.5 275.5q40 226 217.5 374.5t407.5 148.5q148 0 257.5 -69.5t149.5 -186.5l-63 -33q-33 101 -125.5 160t-226.5 59q-199 0 -354.5 -133t-190.5 -330q-22 -129 18 -235.5t135 -169t226 -62.5q132 0 247 60.5t183 162.5l57 -37
q-78 -121 -209 -188.5t-288 -67.5z" />
    <glyph glyph-name="d" unicode="d" horiz-adv-x="1339" 
d="M1257 1434h74l-252 -1434h-73l43 242q-80 -124 -210.5 -194.5t-287.5 -70.5q-143 0 -256.5 76.5t-167 206.5t-27.5 277q27 154 115.5 271t214 178t268.5 61q156 0 275 -88t160 -234zM565 47q186 0 331 115t189 297l15 71q18 192 -100.5 319.5t-303.5 127.5
q-192 0 -340.5 -123.5t-183.5 -325.5q-22 -128 22.5 -239t143.5 -176.5t227 -65.5z" />
    <glyph glyph-name="e" unicode="e" horiz-adv-x="1214" 
d="M705 1047q115 0 204.5 -44.5t141 -119t70.5 -171t1 -202.5q-1 -6 -4 -18.5t-4 -18.5h-950q-22 -192 83.5 -309t297.5 -117q131 0 239 53t172 146l58 -37q-75 -109 -202.5 -170.5t-276.5 -61.5q-232 0 -356 155.5t-83 389.5q40 228 210 376.5t399 148.5zM174 541h881
q24 201 -75 318.5t-280 117.5q-192 0 -337.5 -120.5t-188.5 -315.5z" />
    <glyph glyph-name="f" unicode="f" horiz-adv-x="626" 
d="M342 1092q33 189 147 284t304 80l-13 -70q-308 26 -366 -294l-13 -68h316l-12 -68h-316l-168 -956h-71l167 956h-180l10 68h183z" />
    <glyph glyph-name="g" unicode="g" horiz-adv-x="1353" 
d="M1200 1024h72l-170 -969q-40 -228 -197 -357.5t-391 -129.5q-172 0 -287 68.5t-155 177.5l63 32q30 -91 128 -149.5t255 -58.5q207 0 342 110t170 307l33 191q-80 -125 -209 -197t-279 -72q-152 0 -267 76t-166.5 204.5t-28.5 279.5q24 148 113 266t215 181t264 63
q161 0 281 -87t161 -235zM586 47q189 0 337.5 126.5t182.5 320.5q18 103 -6 194t-79 154t-137 99t-177 36q-188 0 -338.5 -126.5t-182.5 -322.5q-22 -132 23 -242.5t145 -174.5t232 -64z" />
    <glyph glyph-name="h" unicode="h" horiz-adv-x="1165" 
d="M717 1047q179 0 270.5 -111.5t59.5 -292.5l-113 -643h-72l113 643q25 150 -45 242t-223 92q-159 0 -282.5 -103t-166.5 -286l-104 -588h-74l252 1434h74l-109 -621q74 116 184.5 175t235.5 59z" />
    <glyph glyph-name="i" unicode="i" horiz-adv-x="413" 
d="M346 1303q-27 0 -42.5 19t-10.5 44q6 28 27 47t49 19q27 0 42.5 -19.5t10.5 -46.5q-5 -26 -26.5 -44.5t-49.5 -18.5zM80 0l180 1024h74l-180 -1024h-74z" />
    <glyph glyph-name="j" unicode="j" horiz-adv-x="442" 
d="M397 1432q27 0 43 -19.5t11 -46.5q-5 -26 -26.5 -44.5t-49.5 -18.5q-27 0 -42.5 19t-10.5 44q6 28 26.5 47t48.5 19zM82 -150l207 1174h73l-206 -1174q-57 -311 -363 -282l12 70q236 -26 277 212z" />
    <glyph glyph-name="k" unicode="k" horiz-adv-x="966" 
d="M989 1024l-667 -494l499 -530h-90l-487 516l-90 -516h-74l252 1434h74l-154 -879l631 469h106z" />
    <glyph glyph-name="l" unicode="l" horiz-adv-x="415" 
d="M82 0l113 643l149 852h74l-152 -852l-110 -643h-74z" />
    <glyph glyph-name="m" unicode="m" horiz-adv-x="1773" 
d="M1362 1047q154 0 240.5 -101.5t54.5 -286.5l-115 -659h-74l117 659q26 153 -39 235.5t-196 82.5q-148 0 -258 -103.5t-144 -298.5l-100 -575h-74l117 659q26 153 -36 235.5t-191 82.5q-140 0 -249.5 -91t-152.5 -263l-108 -623h-74l180 1024h74l-33 -190
q70 108 169.5 160.5t207.5 52.5q115 0 193.5 -60t95.5 -176q70 119 175.5 177.5t219.5 58.5z" />
    <glyph glyph-name="n" unicode="n" horiz-adv-x="1165" 
d="M717 1047q179 0 270.5 -111.5t59.5 -292.5l-113 -643h-72l113 643q25 150 -45 242t-223 92q-159 0 -281.5 -102t-167.5 -283l-104 -592h-74l180 1024h74l-37 -211q74 116 184.5 175t235.5 59z" />
    <glyph glyph-name="o" unicode="o" horiz-adv-x="1263" 
d="M543 -23q-107 0 -198.5 41t-153 111.5t-88 172.5t-5.5 218q27 155 122.5 277t228 186t276.5 64q106 0 196.5 -41t151 -112t86.5 -173t6 -217q-27 -155 -120.5 -277t-225 -186t-276.5 -64zM549 47q193 0 351.5 132t193.5 335q18 100 -4 187t-74 147t-130.5 94.5
t-170.5 34.5q-126 0 -241.5 -58.5t-197.5 -165.5t-106 -241q-17 -101 5 -189t74 -148t130 -94.5t170 -33.5z" />
    <glyph glyph-name="p" unicode="p" horiz-adv-x="1339" 
d="M788 1047q142 0 255.5 -76.5t167.5 -206.5t28 -277q-27 -154 -115.5 -271t-214 -178t-268.5 -61q-155 0 -274 87.5t-160 232.5l-125 -707h-74l252 1434h74l-43 -242q83 125 212 195t285 70zM1167 496q22 128 -22.5 239t-143.5 176.5t-227 65.5q-186 0 -331 -115
t-189 -297l-14 -71q-18 -192 100 -319.5t303 -127.5q192 0 340.5 123.5t183.5 325.5z" />
    <glyph glyph-name="q" unicode="q" horiz-adv-x="1339" 
d="M1186 1024h74l-252 -1434h-74l115 652q-81 -125 -210.5 -195t-287.5 -70q-143 0 -256.5 76.5t-167 206.5t-27.5 277q27 154 115.5 271t214 178t268.5 61q156 0 275 -88t160 -234zM565 47q187 0 332.5 115.5t189.5 300.5l11 63q21 192 -97.5 321.5t-304.5 129.5
q-191 0 -339.5 -123.5t-184.5 -325.5q-22 -128 22.5 -239t143.5 -176.5t227 -65.5z" />
    <glyph glyph-name="r" unicode="r" horiz-adv-x="659" 
d="M297 817q72 116 178.5 170t220.5 51l-12 -69q-97 0 -184.5 -42.5t-155 -135t-90.5 -222.5l-100 -569h-74l180 1024h74z" />
    <glyph glyph-name="s" unicode="s" horiz-adv-x="960" 
d="M418 -23q-147 0 -237.5 60t-125.5 166l66 33q56 -189 303 -189q122 0 208 52t103 147q9 50 -6 88.5t-48 63.5t-78.5 44t-96.5 34.5t-101.5 32t-95 39.5t-76.5 53t-46 76.5t-3 106.5q22 119 124 191t247 72q115 0 203 -54t125 -147l-64 -33q-27 77 -100.5 120.5
t-167.5 43.5q-111 0 -194 -52.5t-101 -152.5q-9 -53 12 -93t62.5 -62.5t96 -43.5t112.5 -36t111.5 -40t93.5 -56t58.5 -83.5t6.5 -121.5q-23 -121 -129.5 -190t-261.5 -69z" />
    <glyph glyph-name="t" unicode="t" horiz-adv-x="774" 
d="M440 956l-125 -714q-24 -129 43.5 -165t241.5 -14l-12 -63q-199 -31 -286 27t-60 215l125 714h-234l12 68h234l47 264l76 23l-49 -287h315l-12 -68h-316z" />
    <glyph glyph-name="u" unicode="u" horiz-adv-x="1165" 
d="M1012 1024h73l-180 -1024h-74l37 211q-74 -116 -184 -175t-235 -59q-179 0 -270.5 111.5t-59.5 292.5l112 643h72l-113 -643q-25 -150 45.5 -242t223.5 -92q159 0 281 102t167 283z" />
    <glyph glyph-name="v" unicode="v" horiz-adv-x="993" 
d="M967 1024h82l-600 -1024h-84l-240 1024h72l219 -948z" />
    <glyph glyph-name="w" unicode="w" horiz-adv-x="1576" 
d="M1513 1024h78l-508 -1024h-79l-144 926l-467 -926h-80l-147 1024h70l131 -930l471 930h75l142 -932z" />
    <glyph glyph-name="x" unicode="x" horiz-adv-x="1030" 
d="M1044 1024l-483 -502l326 -522h-82l-293 471l-455 -471h-92l510 530l-307 494h80l276 -442l426 442h94z" />
    <glyph glyph-name="y" unicode="y" horiz-adv-x="1044" 
d="M1020 1024h80l-639 -1118q-90 -156 -209 -241t-248 -75l12 68q102 -10 200.5 61.5t172.5 202.5l27 45l-291 1057h72l266 -975z" />
    <glyph glyph-name="z" unicode="z" horiz-adv-x="976" 
d="M956 1024l-8 -45l-813 -911h674l-12 -68h-779l9 45l815 911h-633l10 68h737z" />
    <glyph glyph-name="braceleft" unicode="{" horiz-adv-x="704" 
d="M532 -223q-155 -15 -222 58.5t-42 215.5l76 428q20 113 -28 159t-171 46l13 70q123 0 186.5 45.5t83.5 158.5l76 426q56 305 360 275l-10 -68q-122 12 -190.5 -39.5t-88.5 -167.5l-75 -426q-20 -111 -69.5 -168t-137.5 -75q76 -17 108 -79t15 -157l-74 -428
q-22 -120 27 -169t176 -36z" />
    <glyph glyph-name="bar" unicode="|" horiz-adv-x="454" 
d="M29 -410l331 1885h74l-332 -1885h-73z" />
    <glyph glyph-name="braceright" unicode="}" horiz-adv-x="704" 
d="M244 1661q155 15 222 -58.5t42 -216.5l-76 -428q-20 -113 28 -158.5t171 -45.5l-13 -70q-123 0 -186.5 -46t-83.5 -159l-76 -426q-55 -304 -360 -274l10 67q122 -12 190.5 39.5t88.5 167.5l75 426q20 111 70 169t137 75q-76 17 -108 78.5t-15 156.5l74 428
q22 120 -27 169t-176 36z" />
    <glyph glyph-name="asciitilde" unicode="~" horiz-adv-x="1187" 
d="M219 600l-61 29q19 44 47 84t74 75t99 47.5t124.5 -7.5t148.5 -80q65 -51 123.5 -69t99 -8.5t75.5 39t55 59.5t36 65l64 -29q-18 -44 -46 -84t-73.5 -74.5t-98.5 -47t-125.5 7.5t-150.5 79q-65 51 -124 68.5t-99 8t-75.5 -38.5t-55.5 -58.5t-37 -65.5z" />
    <glyph glyph-name="exclamdown" unicode="&#xa1;" horiz-adv-x="430" 
d="M307 1044q31 0 48 -21t12 -52q-6 -31 -29.5 -50.5t-54.5 -19.5t-48.5 21.5t-11.5 52.5t29 50t55 19zM274 676l-108 -676l-72 -410h-82l72 410l129 676h61z" />
    <glyph glyph-name="cent" unicode="&#xa2;" horiz-adv-x="1169" 
d="M1102 963q-48 142 -201 196l-446 -889q59 -18 129 -18q132 0 247 60.5t183 162.5l57 -37q-78 -121 -209 -188.5t-289 -67.5q-76 0 -153 23l-103 -205h-65l115 227q-134 62 -198.5 198t-35.5 304q40 226 217.5 374t407.5 148q64 0 119 -12l98 195h65l-106 -213
q84 -31 143.5 -89.5t87.5 -136.5zM399 291l445 883q-39 8 -94 8q-199 0 -354.5 -133t-190.5 -330q-25 -144 27.5 -259t166.5 -169z" />
    <glyph glyph-name="sterling" unicode="&#xa3;" horiz-adv-x="1218" 
d="M850 1384q-146 0 -244 -88t-123 -237l-67 -383h510l-11 -68h-512l-96 -536h797l-12 -72h-1086l12 72h213l97 536h-174l12 68h174l68 383q32 186 152 291.5t296 105.5q130 0 222 -69.5t134 -192.5l-61 -33q-41 108 -112 165.5t-189 57.5z" />
    <glyph glyph-name="currency" unicode="&#xa4;" horiz-adv-x="1132" 
d="M1149 1147l-170 -146q86 -126 57 -290q-30 -168 -155 -283l116 -143l-45 -37l-118 141q-139 -104 -306 -104q-160 0 -264 104l-168 -143l-37 41l170 143q-89 126 -59 293t158 285l-119 141l45 37l119 -142q140 105 305 105q159 0 264 -105l170 144zM965 717
q26 154 -59.5 258t-237.5 104t-275 -104t-151 -258q-26 -154 59.5 -258.5t237.5 -104.5t275 104.5t151 258.5z" />
    <glyph glyph-name="yen" unicode="&#xa5;" horiz-adv-x="1157" 
d="M1284 1434l-620 -738h374l-10 -63h-391l-33 -191h391l-12 -65h-391l-66 -377h-75l67 377h-387l10 65h387l35 191h-389l12 63h371l-360 738h77l340 -695l584 695h86z" />
    <glyph glyph-name="brokenbar" unicode="&#xa6;" horiz-adv-x="454" 
d="M227 717l133 758h74l-133 -758h-74zM29 -410l133 758h74l-134 -758h-73z" />
    <glyph glyph-name="section" unicode="&#xa7;" horiz-adv-x="1040" 
d="M678 1386q-120 0 -204 -60.5t-101 -162.5q-8 -44 3.5 -82.5t33 -65.5t62.5 -55.5t75.5 -46.5t89.5 -45q9 -4 15.5 -7.5t13.5 -6.5q75 -38 116.5 -63t90.5 -67.5t66 -95t5 -118.5q-13 -74 -62.5 -135t-125.5 -101q87 -94 65 -223q-22 -127 -128 -203.5t-267 -76.5
q-143 0 -239.5 67t-129.5 195l64 33q26 -114 106.5 -171t206.5 -57q125 0 211.5 58t106.5 161q10 57 -7.5 104t-66 86.5t-95 66t-122.5 61.5q-57 26 -94 46t-82 52.5t-69 65t-37 79t-3 99.5q13 74 63 134.5t128 100.5q-88 91 -66 219q22 127 126.5 206t258.5 79
q119 0 208.5 -61t127.5 -172l-61 -35q-33 97 -106 147.5t-177 50.5zM870 516q8 42 -2 77.5t-28.5 61t-57 52.5t-71 44t-86.5 42q-157 74 -211 116q-71 -33 -114 -86t-52 -114q-7 -41 4 -76.5t31 -61t59 -52t72 -43t86 -40.5q147 -67 209 -119q69 35 110.5 87t50.5 112z" />
    <glyph glyph-name="dieresis" unicode="&#xa8;" horiz-adv-x="546" 
d="M219 1184q-25 0 -39 17t-10 42q5 23 25 40t45 17t38.5 -17t8.5 -40q-5 -25 -24 -42t-44 -17zM567 1184q-25 0 -39 17t-10 42q5 23 25 40t45 17t38.5 -17t8.5 -40q-5 -25 -24 -42t-44 -17z" />
    <glyph glyph-name="copyright" unicode="&#xa9;" horiz-adv-x="1701" 
d="M756 -23q-119 0 -225.5 38.5t-184.5 107.5t-132.5 163t-70 205.5t3.5 235.5q27 151 108.5 286.5t197 232.5t263.5 153.5t302 56.5q148 0 274.5 -60t209 -160.5t117.5 -239t9 -289.5q-36 -202 -163.5 -369.5t-315 -264t-393.5 -96.5zM764 23q142 0 280 54.5t247 147.5
t186.5 221.5t103.5 270.5q32 189 -32.5 349t-207.5 252.5t-331 92.5q-189 0 -365 -92.5t-296.5 -252.5t-153.5 -349q-26 -142 6 -270.5t108.5 -221.5t195 -147.5t259.5 -54.5zM825 324q-168 0 -263 117t-66 282q30 167 157.5 277t300.5 110q105 0 187 -52t121 -138l-62 -33
q-34 75 -101 115t-157 40q-141 0 -245.5 -94t-129.5 -231q-24 -136 51.5 -231t215.5 -95q91 0 171.5 42t131.5 116l55 -35q-61 -88 -157.5 -139t-209.5 -51z" />
    <glyph glyph-name="guillemotleft" unicode="&#xab;" horiz-adv-x="921" 
d="M569 975l-276 -348l149 -336h-86l-151 342l272 342h92zM819 975l-278 -348l149 -336h-84l-153 342l274 342h92z" />
    <glyph glyph-name="logicalnot" unicode="&#xac;" horiz-adv-x="1064" 
d="M975 782l-60 -342h-71l47 275h-719l12 67h791z" />
    <glyph glyph-name="registered" unicode="&#xae;" horiz-adv-x="1701" 
d="M1018 1456q148 0 274.5 -60t209 -160.5t117.5 -239t9 -289.5q-36 -202 -163.5 -369.5t-315 -264t-393.5 -96.5q-119 0 -225.5 38.5t-184.5 107.5t-132.5 163t-70 205.5t3.5 235.5q27 151 108.5 286.5t197 232.5t263.5 153.5t302 56.5zM1581 717q32 189 -32.5 349
t-207.5 252.5t-331 92.5q-189 0 -365 -92.5t-296.5 -252.5t-153.5 -349q-26 -142 6 -270.5t108.5 -221.5t195 -147.5t259.5 -54.5q142 0 280 54.5t247 147.5t186.5 221.5t103.5 270.5zM965 1096q128 0 187 -71.5t42 -164.5q-32 -176 -209 -215l133 -307h-74l-126 299
q-10 -2 -35 -2h-154l-51 -297h-70l133 758h224zM1124 866q13 72 -30 118t-138 46h-157l-58 -330h156q197 0 227 166z" />
    <glyph glyph-name="macron" unicode="&#xaf;" horiz-adv-x="587" 
d="M166 1217l10 61h506l-12 -61h-504z" />
    <glyph glyph-name="degree" unicode="&#xb0;" horiz-adv-x="790" 
d="M494 1071q-124 0 -196 88.5t-52 210.5q24 123 123 206t229 83q126 0 198 -88t50 -211q-22 -125 -119 -207t-233 -82zM506 1137q99 0 175 65t93 164q17 96 -36.5 161.5t-151.5 65.5q-96 0 -174 -65.5t-95 -161.5q-17 -97 36.5 -163t152.5 -66z" />
    <glyph glyph-name="plusminus" unicode="&#xb1;" horiz-adv-x="1079" 
d="M639 877h369l-13 -68h-366l-64 -358h-71l63 358h-367l11 68h368l64 358h69zM82 199l12 67h805l-12 -67h-805z" />
    <glyph glyph-name="acute" unicode="&#xb4;" horiz-adv-x="327" 
d="M156 1167h71l219 252h-86z" />
    <glyph glyph-name="uni00B5" unicode="&#xb5;" horiz-adv-x="1247" 
d="M963 164q-7 -47 12.5 -71.5t62.5 -24.5h56l-13 -68h-59q-69 0 -106.5 45t-24.5 119l8 47q-74 -116 -184 -175t-236 -59q-109 0 -186.5 48t-110.5 133l-100 -568h-74l252 1434h74l-119 -680q-12 -134 58.5 -215.5t213.5 -81.5q169 0 296 115t163 317l96 545h72z" />
    <glyph glyph-name="paragraph" unicode="&#xb6;" horiz-adv-x="1146" 
d="M1212 1434l-10 -68h-125l-311 -1776h-70l312 1776h-310l-311 -1776h-72l191 1080q-105 1 -184.5 54.5t-113.5 143t-15 191.5q28 159 157.5 267t288.5 108h573z" />
    <glyph glyph-name="periodcentered" unicode="&#xb7;" horiz-adv-x="401" 
d="M219 625q-29 0 -46 21t-11 52t29 50.5t55 19.5q29 0 46 -21.5t11 -52.5t-29 -50t-55 -19z" />
    <glyph glyph-name="cedilla" unicode="&#xb8;" horiz-adv-x="460" 
d="M121 -139q74 -3 121.5 -41.5t36.5 -102.5q-13 -82 -111 -122t-293 -19l10 59q152 -17 236.5 7t93.5 82q9 45 -34.5 69.5t-133.5 18.5l33 188h65z" />
    <glyph glyph-name="guillemotright" unicode="&#xbb;" horiz-adv-x="923" 
d="M358 975l154 -342l-274 -342h-93l279 348l-150 336h84zM608 975l152 -342l-273 -342h-92l277 348l-150 336h86z" />
    <glyph glyph-name="onequarter" unicode="&#xbc;" horiz-adv-x="1712" 
d="M295 614l129 734l-236 -78l-10 63l283 101h49l-145 -820h-70zM1286 1434h76l-1092 -1434h-75zM1610 238l-11 -64h-120l-31 -174h-70l31 174h-451l13 64l413 581h76l-411 -581h370l41 231h70l-41 -231h121z" />
    <glyph glyph-name="onehalf" unicode="&#xbd;" horiz-adv-x="1687" 
d="M295 614l129 734l-236 -78l-10 63l283 101h49l-145 -820h-70zM1286 1434h76l-1092 -1434h-75zM1612 602q-10 -71 -51.5 -128.5t-106.5 -111.5l-364 -296h444l-12 -66h-553l8 55l434 355q118 98 133 196q12 72 -32 122t-130 50q-73 0 -134.5 -40t-96.5 -105l-57 33
q41 79 121 128.5t176 49.5q115 0 175 -70t46 -172z" />
    <glyph glyph-name="threequarters" unicode="&#xbe;" horiz-adv-x="1916" 
d="M680 840q-19 -111 -105 -180.5t-219 -69.5q-195 0 -247 158l61 32q34 -125 195 -125q102 0 167.5 55t79.5 138q13 83 -33 136.5t-147 53.5h-6l-25 52l254 278h-415l10 66h502l-11 -66l-252 -274q105 -13 157 -85t34 -169zM1491 1434h76l-1092 -1434h-76zM1815 238
l-11 -64h-121l-30 -174h-70l31 174h-451l13 64l413 581h76l-412 -581h371l41 231h70l-41 -231h121z" />
    <glyph glyph-name="questiondown" unicode="&#xbf;" horiz-adv-x="1081" 
d="M668 1044q29 0 46 -21t11 -52t-29 -50.5t-55 -19.5q-29 0 -46 21.5t-11 52.5t29 50t55 19zM639 676q-13 -73 -46.5 -140t-77.5 -118.5t-95 -100t-101.5 -93.5t-93 -90t-74 -98.5t-40.5 -109.5q-25 -132 49.5 -209t232.5 -77q124 0 230.5 62t160.5 165l62 -37
q-65 -121 -193.5 -191.5t-271.5 -70.5q-113 0 -198.5 43t-126.5 127.5t-21 195.5q11 61 43 118.5t75 104t94 92.5t101.5 92.5t94.5 95.5t77 110.5t45 128.5h74z" />
    <glyph glyph-name="Agrave" unicode="&#xc0;" horiz-adv-x="1288" 
d="M893 1577h-66l-139 252h82zM1079 0l-80 379h-751l-215 -379h-82l813 1434h84l309 -1434h-78zM287 449h698l-190 897z" />
    <glyph glyph-name="Aacute" unicode="&#xc1;" horiz-adv-x="1288" 
d="M1055 1829l-219 -252h-72l205 252h86zM1079 0l-80 379h-751l-215 -379h-82l813 1434h84l309 -1434h-78zM287 449h698l-190 897z" />
    <glyph glyph-name="Acircumflex" unicode="&#xc2;" horiz-adv-x="1288" 
d="M870 1786l-221 -209h-86l268 252h84l181 -252h-76zM1079 0l-80 379h-751l-215 -379h-82l813 1434h84l309 -1434h-78zM287 449h698l-190 897z" />
    <glyph glyph-name="Atilde" unicode="&#xc3;" horiz-adv-x="1288" 
d="M842 1675q-77 89 -135 71t-78 -134h-64q18 103 66.5 156t111 45t121.5 -76q75 -87 134 -69t79 132h64q-17 -102 -65.5 -155t-111.5 -45t-122 75zM1079 0l-80 379h-751l-215 -379h-82l813 1434h84l309 -1434h-78zM287 449h698l-190 897z" />
    <glyph glyph-name="Adieresis" unicode="&#xc4;" horiz-adv-x="1288" 
d="M659 1593q-25 0 -39.5 17.5t-9.5 42.5q5 23 25 40t45 17t38.5 -17t8.5 -40q-5 -25 -24.5 -42.5t-43.5 -17.5zM1008 1593q-25 0 -39.5 17.5t-10.5 42.5q5 23 25 40t45 17t38.5 -17t8.5 -40q-5 -25 -24 -42.5t-43 -17.5zM1079 0l-80 379h-751l-215 -379h-82l813 1434h84
l309 -1434h-78zM287 449h698l-190 897z" />
    <glyph glyph-name="Aring" unicode="&#xc5;" horiz-adv-x="1288" 
d="M1079 0l-80 379h-751l-215 -379h-82l794 1399q-65 17 -95 68t-19 118q13 83 78 136t153 53q90 0 138 -54.5t34 -138.5q-12 -70 -60.5 -119t-117.5 -63l301 -1399h-78zM692 1583q-11 -60 21.5 -97.5t95.5 -37.5t108 37.5t56 97.5q10 61 -22.5 98t-94.5 37t-107 -37
t-57 -98zM287 449h698l-190 897z" />
    <glyph glyph-name="AE" unicode="&#xc6;" horiz-adv-x="1771" 
d="M1817 1364h-674l-107 -606h629l-12 -70h-629l-109 -618h684l-12 -70h-758l70 395h-573l-312 -395h-90l1129 1434h776zM379 465h532l154 870z" />
    <glyph glyph-name="Ccedilla" unicode="&#xc7;" horiz-adv-x="1550" 
d="M991 1384q-143 0 -275 -52.5t-232.5 -142.5t-170 -212.5t-92.5 -259.5q-24 -136 3.5 -259t97.5 -213t183.5 -143t254.5 -53q183 0 343.5 85.5t266.5 232.5l62 -39q-109 -152 -277.5 -247t-361.5 -104l-21 -116q74 -3 121.5 -41.5t36.5 -102.5q-13 -82 -111 -122t-293 -19
l11 59q152 -17 236 7t93 82q9 45 -34.5 69.5t-133.5 18.5l29 165q-200 7 -345.5 109.5t-207.5 271.5t-27 369q36 204 157 370.5t303 262.5t386 96q199 0 348.5 -92t223.5 -248l-66 -35q-66 139 -196.5 221t-311.5 82z" />
    <glyph glyph-name="Egrave" unicode="&#xc8;" horiz-adv-x="1099" 
d="M836 1577h-66l-139 252h82zM1143 1364h-727l-107 -606h676l-12 -70h-676l-109 -618h738l-13 -70h-813l252 1434h803z" />
    <glyph glyph-name="Eacute" unicode="&#xc9;" horiz-adv-x="1099" 
d="M997 1829l-219 -252h-71l204 252h86zM1143 1364h-727l-107 -606h676l-12 -70h-676l-109 -618h738l-13 -70h-813l252 1434h803z" />
    <glyph glyph-name="Ecircumflex" unicode="&#xca;" horiz-adv-x="1099" 
d="M813 1786l-221 -209h-86l268 252h84l180 -252h-75zM1143 1364h-727l-107 -606h676l-12 -70h-676l-109 -618h738l-13 -70h-813l252 1434h803z" />
    <glyph glyph-name="Edieresis" unicode="&#xcb;" horiz-adv-x="1099" 
d="M602 1593q-25 0 -39.5 17.5t-9.5 42.5q5 23 25 40t45 17t38.5 -17t8.5 -40q-5 -25 -24.5 -42.5t-43.5 -17.5zM950 1593q-25 0 -39.5 17.5t-9.5 42.5q5 23 25 40t45 17t38.5 -17t8.5 -40q-5 -25 -24.5 -42.5t-43.5 -17.5zM1143 1364h-727l-107 -606h676l-12 -70h-676
l-109 -618h738l-13 -70h-813l252 1434h803z" />
    <glyph glyph-name="Igrave" unicode="&#xcc;" horiz-adv-x="456" 
d="M479 1577l-123 252h-82l140 -252h65zM352 1434h76l-252 -1434h-76z" />
    <glyph glyph-name="Iacute" unicode="&#xcd;" horiz-adv-x="456" 
d="M350 1577h72l219 252h-86zM352 1434h76l-252 -1434h-76z" />
    <glyph glyph-name="Icircumflex" unicode="&#xce;" horiz-adv-x="456" 
d="M682 1577h-76l-149 209l-221 -209h-86l268 252h84zM100 0l252 1434h76l-252 -1434h-76z" />
    <glyph glyph-name="Idieresis" unicode="&#xcf;" horiz-adv-x="456" 
d="M246 1593q-25 0 -39.5 17.5t-9.5 42.5q5 24 25 40.5t44 16.5q25 0 38.5 -17t8.5 -40q-5 -25 -24 -42.5t-43 -17.5zM594 1593q-25 0 -39.5 17.5t-9.5 42.5q5 24 25 40.5t44 16.5q25 0 39 -17t9 -40q-5 -25 -24.5 -42.5t-43.5 -17.5zM352 1434h76l-252 -1434h-76z" />
    <glyph glyph-name="Eth" unicode="&#xd0;" horiz-adv-x="1544" 
d="M920 1434q142 0 258 -58.5t188 -157.5t100 -233t2 -280q-35 -197 -146 -357t-283 -254t-371 -94h-527l121 682h-129l12 70h127l121 682h527zM1395 715q31 178 -18 326t-172.5 235.5t-297.5 87.5h-450l-109 -612h535l-13 -70h-532l-109 -612h451q174 0 328 87t255.5 234
t131.5 324z" />
    <glyph glyph-name="Ntilde" unicode="&#xd1;" horiz-adv-x="1419" 
d="M633 1612q18 103 66.5 156t111 45t121.5 -76q75 -87 134 -69t79 132h63q-17 -102 -65.5 -155t-111.5 -45t-122 75q-77 89 -135 71t-78 -134h-63zM100 0l252 1434h66l669 -1299l228 1299h76l-252 -1434h-64l-669 1298l-230 -1298h-76z" />
    <glyph glyph-name="Ograve" unicode="&#xd2;" horiz-adv-x="1697" 
d="M1098 1577l-123 252h-82l139 -252h66zM758 -23q-151 0 -278.5 60.5t-209 161.5t-116 239.5t-7.5 288.5q35 202 161.5 369.5t312 263.5t389.5 96q151 0 278.5 -61t209 -162.5t116.5 -241t8 -289.5q-27 -151 -107.5 -285t-195 -230.5t-261.5 -153t-300 -56.5zM768 49
q184 0 351.5 88.5t281 241t147.5 334.5q31 183 -30 337t-198.5 244t-320.5 90t-350.5 -89.5t-281 -242.5t-146.5 -335t28.5 -335.5t199 -243t319.5 -89.5z" />
    <glyph glyph-name="Oacute" unicode="&#xd3;" horiz-adv-x="1697" 
d="M969 1577h71l220 252h-86zM758 -23q-151 0 -278.5 60.5t-209 161.5t-116 239.5t-7.5 288.5q35 202 161.5 369.5t312 263.5t389.5 96q151 0 278.5 -61t209 -162.5t116.5 -241t8 -289.5q-27 -151 -107.5 -285t-195 -230.5t-261.5 -153t-300 -56.5zM768 49q184 0 351.5 88.5
t281 241t147.5 334.5q31 183 -30 337t-198.5 244t-320.5 90t-350.5 -89.5t-281 -242.5t-146.5 -335t28.5 -335.5t199 -243t319.5 -89.5z" />
    <glyph glyph-name="Ocircumflex" unicode="&#xd4;" horiz-adv-x="1697" 
d="M1075 1786l-221 -209h-86l268 252h84l180 -252h-75zM1010 1456q151 0 278.5 -61t209 -162.5t116.5 -241t8 -289.5q-27 -151 -107.5 -285t-195 -230.5t-261.5 -153t-300 -56.5q-151 0 -278.5 60.5t-209 161.5t-116 239.5t-7.5 288.5q35 202 161.5 369.5t312 263.5
t389.5 96zM1548 713q31 183 -30 337t-198.5 244t-320.5 90t-350.5 -89.5t-281 -242.5t-146.5 -335t28.5 -335.5t199 -243t319.5 -89.5q184 0 351.5 88.5t281 241t147.5 334.5z" />
    <glyph glyph-name="Otilde" unicode="&#xd5;" horiz-adv-x="1697" 
d="M770 1612q18 103 66.5 156t111 45t121.5 -76q75 -87 134 -69t79 132h64q-17 -102 -65.5 -155t-111.5 -45t-122 75q-77 89 -135 71t-78 -134h-64zM758 -23q-151 0 -278.5 60.5t-209 161.5t-116 239.5t-7.5 288.5q35 202 161.5 369.5t312 263.5t389.5 96q151 0 278.5 -61
t209 -162.5t116.5 -241t8 -289.5q-27 -151 -107.5 -285t-195 -230.5t-261.5 -153t-300 -56.5zM768 49q184 0 351.5 88.5t281 241t147.5 334.5q31 183 -30 337t-198.5 244t-320.5 90t-350.5 -89.5t-281 -242.5t-146.5 -335t28.5 -335.5t199 -243t319.5 -89.5z" />
    <glyph glyph-name="Odieresis" unicode="&#xd6;" horiz-adv-x="1697" 
d="M864 1593q-25 0 -39.5 17.5t-9.5 42.5q5 23 25 40t45 17t38.5 -17t8.5 -40q-5 -25 -24.5 -42.5t-43.5 -17.5zM1212 1593q-25 0 -39.5 17.5t-9.5 42.5q5 23 25 40t45 17t38.5 -17t8.5 -40q-5 -25 -24.5 -42.5t-43.5 -17.5zM758 -23q-151 0 -278.5 60.5t-209 161.5
t-116 239.5t-7.5 288.5q35 202 161.5 369.5t312 263.5t389.5 96q151 0 278.5 -61t209 -162.5t116.5 -241t8 -289.5q-27 -151 -107.5 -285t-195 -230.5t-261.5 -153t-300 -56.5zM768 49q184 0 351.5 88.5t281 241t147.5 334.5q31 183 -30 337t-198.5 244t-320.5 90
t-350.5 -89.5t-281 -242.5t-146.5 -335t28.5 -335.5t199 -243t319.5 -89.5z" />
    <glyph glyph-name="multiply" unicode="&#xd7;" horiz-adv-x="954" 
d="M915 1018l-354 -303l248 -299l-53 -45l-248 299l-348 -299l-47 45l354 303l-248 299l51 45l248 -299l348 299z" />
    <glyph glyph-name="Oslash" unicode="&#xd8;" horiz-adv-x="1718" 
d="M1497 1255q95 -106 133.5 -250t11.5 -303q-27 -151 -107.5 -285t-195 -230.5t-261.5 -153t-300 -56.5q-250 0 -426 158l-139 -135l-51 33l147 145q-94 105 -132 247.5t-9 301.5q27 151 107.5 286.5t195 232.5t260.5 153.5t299 56.5q252 0 426 -160l139 138l52 -33z
M242 717q-26 -142 7 -268t116 -220l1038 1016q-152 139 -383 139q-183 0 -350.5 -89.5t-281 -242.5t-146.5 -335zM1569 713q24 143 -9 270t-116 221l-1038 -1016q152 -139 382 -139q184 0 352 88.5t281.5 241t147.5 334.5z" />
    <glyph glyph-name="Ugrave" unicode="&#xd9;" horiz-adv-x="1378" 
d="M934 1577l-123 252h-82l139 -252h66zM608 -23q-239 0 -361 138t-83 354l170 965h76l-170 -965q-34 -185 60.5 -302.5t307.5 -117.5t348.5 118.5t167.5 301.5l170 965h76l-170 -965q-39 -223 -199 -357.5t-393 -134.5z" />
    <glyph glyph-name="Uacute" unicode="&#xda;" horiz-adv-x="1378" 
d="M805 1577h72l219 252h-86zM608 -23q-239 0 -361 138t-83 354l170 965h76l-170 -965q-34 -185 60.5 -302.5t307.5 -117.5t348.5 118.5t167.5 301.5l170 965h76l-170 -965q-39 -223 -199 -357.5t-393 -134.5z" />
    <glyph glyph-name="Ucircumflex" unicode="&#xdb;" horiz-adv-x="1378" 
d="M911 1786l-221 -209h-86l268 252h84l181 -252h-76zM1294 1434h76l-170 -965q-39 -223 -199 -357.5t-393 -134.5q-239 0 -361 138t-83 354l170 965h76l-170 -965q-34 -185 60.5 -302.5t307.5 -117.5t348.5 118.5t167.5 301.5z" />
    <glyph glyph-name="Udieresis" unicode="&#xdc;" horiz-adv-x="1378" 
d="M700 1593q-25 0 -39.5 17.5t-9.5 42.5q5 23 25 40t45 17t38.5 -17t8.5 -40q-5 -25 -24.5 -42.5t-43.5 -17.5zM1049 1593q-25 0 -39.5 17.5t-10.5 42.5q5 23 25 40t45 17t38.5 -17t8.5 -40q-5 -25 -24 -42.5t-43 -17.5zM608 -23q-239 0 -361 138t-83 354l170 965h76
l-170 -965q-34 -185 60.5 -302.5t307.5 -117.5t348.5 118.5t167.5 301.5l170 965h76l-170 -965q-39 -223 -199 -357.5t-393 -134.5z" />
    <glyph glyph-name="Yacute" unicode="&#xdd;" horiz-adv-x="1157" 
d="M987 1829l-219 -252h-72l205 252h86zM1284 1434l-641 -762l-117 -672h-75l118 672l-372 762h77l340 -695l584 695h86z" />
    <glyph glyph-name="Thorn" unicode="&#xde;" horiz-adv-x="1193" 
d="M760 1153q197 0 302 -124.5t75 -311.5q-32 -187 -178.5 -311.5t-356.5 -124.5h-377l-49 -281h-76l252 1434h76l-49 -281h381zM1063 723q26 159 -58.5 259.5t-246.5 100.5h-391l-129 -733h370q174 0 300.5 106t154.5 267z" />
    <glyph glyph-name="germandbls" unicode="&#xdf;" horiz-adv-x="1058" 
d="M502 -8l14 65q154 -11 256 52t119 180q9 59 -12.5 118t-57 107.5t-72 95t-59 97t-16.5 96.5q4 34 29.5 69t59.5 66.5t69 64.5t63 76t37 88q17 99 -47 159t-183 60q-137 0 -235 -82.5t-125 -238.5l-188 -1065h-74l190 1069q33 188 152 287.5t291 99.5q150 0 232.5 -86.5
t58.5 -210.5q-9 -47 -38 -93.5t-64 -82.5t-69.5 -69t-58.5 -64t-26 -57q-4 -38 20 -82.5t59.5 -89.5t70 -94.5t54.5 -114t11 -131.5q-21 -145 -143.5 -223.5t-317.5 -65.5z" />
    <glyph glyph-name="agrave" unicode="&#xe0;" horiz-adv-x="1339" 
d="M807 1167h-66l-139 252h82zM1186 1024h74l-181 -1024h-73l43 242q-80 -124 -210.5 -194.5t-287.5 -70.5q-143 0 -256.5 76.5t-167 206.5t-27.5 277q27 154 115.5 271t214 178t268.5 61q156 0 275 -88t160 -234zM565 47q187 0 332.5 115.5t189.5 298.5l11 67
q21 192 -97.5 320.5t-304.5 128.5q-191 0 -339.5 -123.5t-184.5 -325.5q-22 -128 22.5 -239t143.5 -176.5t227 -65.5z" />
    <glyph glyph-name="aacute" unicode="&#xe1;" horiz-adv-x="1339" 
d="M969 1419l-219 -252h-72l205 252h86zM1186 1024h74l-181 -1024h-73l43 242q-80 -124 -210.5 -194.5t-287.5 -70.5q-143 0 -256.5 76.5t-167 206.5t-27.5 277q27 154 115.5 271t214 178t268.5 61q156 0 275 -88t160 -234zM565 47q187 0 332.5 115.5t189.5 298.5l11 67
q21 192 -97.5 320.5t-304.5 128.5q-191 0 -339.5 -123.5t-184.5 -325.5q-22 -128 22.5 -239t143.5 -176.5t227 -65.5z" />
    <glyph glyph-name="acircumflex" unicode="&#xe2;" horiz-adv-x="1339" 
d="M784 1376l-221 -209h-86l268 252h84l181 -252h-76zM1186 1024h74l-181 -1024h-73l43 242q-80 -124 -210.5 -194.5t-287.5 -70.5q-143 0 -256.5 76.5t-167 206.5t-27.5 277q27 154 115.5 271t214 178t268.5 61q156 0 275 -88t160 -234zM565 47q187 0 332.5 115.5
t189.5 298.5l11 67q21 192 -97.5 320.5t-304.5 128.5q-191 0 -339.5 -123.5t-184.5 -325.5q-22 -128 22.5 -239t143.5 -176.5t227 -65.5z" />
    <glyph glyph-name="atilde" unicode="&#xe3;" horiz-adv-x="1339" 
d="M756 1266q-77 89 -135 70.5t-78 -134.5h-64q18 103 66.5 156t111 45t121.5 -76q75 -87 134 -69t79 133h64q-17 -102 -65.5 -155t-111.5 -45t-122 75zM1186 1024h74l-181 -1024h-73l43 242q-80 -124 -210.5 -194.5t-287.5 -70.5q-143 0 -256.5 76.5t-167 206.5t-27.5 277
q27 154 115.5 271t214 178t268.5 61q156 0 275 -88t160 -234zM565 47q187 0 332.5 115.5t189.5 298.5l11 67q21 192 -97.5 320.5t-304.5 128.5q-191 0 -339.5 -123.5t-184.5 -325.5q-22 -128 22.5 -239t143.5 -176.5t227 -65.5z" />
    <glyph glyph-name="adieresis" unicode="&#xe4;" horiz-adv-x="1339" 
d="M573 1184q-25 0 -39 17t-10 42q5 23 25 40t45 17t38.5 -17t8.5 -40q-5 -25 -24 -42t-44 -17zM922 1184q-25 0 -39.5 17t-10.5 42q5 23 25 40t45 17t38.5 -17t8.5 -40q-5 -25 -24 -42t-43 -17zM1186 1024h74l-181 -1024h-73l43 242q-80 -124 -210.5 -194.5t-287.5 -70.5
q-143 0 -256.5 76.5t-167 206.5t-27.5 277q27 154 115.5 271t214 178t268.5 61q156 0 275 -88t160 -234zM565 47q187 0 332.5 115.5t189.5 298.5l11 67q21 192 -97.5 320.5t-304.5 128.5q-191 0 -339.5 -123.5t-184.5 -325.5q-22 -128 22.5 -239t143.5 -176.5t227 -65.5z
" />
    <glyph glyph-name="aring" unicode="&#xe5;" horiz-adv-x="1339" 
d="M743 1141q-92 0 -139 55t-33 137q13 83 78.5 136t153.5 53q90 0 138 -54.5t34 -138.5q-14 -83 -78.5 -135.5t-153.5 -52.5zM633 1331q-11 -60 21.5 -97.5t95.5 -37.5t107.5 37.5t55.5 97.5q10 61 -22 98t-94 37t-107 -37t-57 -98zM1186 1024h74l-181 -1024h-73l43 242
q-80 -124 -210.5 -194.5t-287.5 -70.5q-143 0 -256.5 76.5t-167 206.5t-27.5 277q27 154 115.5 271t214 178t268.5 61q156 0 275 -88t160 -234zM565 47q187 0 332.5 115.5t189.5 298.5l11 67q21 192 -97.5 320.5t-304.5 128.5q-191 0 -339.5 -123.5t-184.5 -325.5
q-22 -128 22.5 -239t143.5 -176.5t227 -65.5z" />
    <glyph glyph-name="ae" unicode="&#xe6;" horiz-adv-x="2213" 
d="M1712 1047q112 0 200 -44.5t139 -119t70 -171.5t1 -202q-6 -25 -8 -37h-951q-22 -192 82.5 -309t296.5 -117q133 0 242 53.5t174 145.5l55 -37q-78 -108 -203.5 -170t-273.5 -62q-161 0 -269.5 81.5t-142.5 220.5l-49 -279h-69l45 254q-86 -128 -221.5 -202.5
t-292.5 -74.5q-144 0 -254.5 73t-160.5 198.5t-24 273.5q27 154 119 275.5t221.5 185.5t272.5 64q151 0 267 -81t159 -218l49 276h69l-47 -270q80 136 211 214.5t293 78.5zM551 47q188 0 342 123t197 309l10 58q24 192 -89 316t-300 124q-125 0 -239.5 -58t-196 -164
t-105.5 -239q-22 -129 20 -237t137.5 -170t223.5 -62zM1176 541h878q23 200 -75 318t-279 118q-191 0 -336 -121t-188 -315z" />
    <glyph glyph-name="ccedilla" unicode="&#xe7;" horiz-adv-x="1169" 
d="M715 977q-199 0 -354.5 -133t-190.5 -330q-22 -129 18 -235.5t135 -169t226 -62.5q132 0 247 60.5t183 162.5l57 -37q-76 -115 -198.5 -182.5t-270.5 -73.5l-20 -116q74 -3 121.5 -41.5t36.5 -102.5q-13 -82 -111 -122t-293 -19l10 59q152 -17 236.5 7t93.5 82
q9 45 -34.5 69.5t-133.5 18.5l29 168q-138 9 -240 83t-145.5 196t-18.5 265q40 226 217.5 374.5t407.5 148.5q148 0 257.5 -69.5t149.5 -186.5l-63 -33q-33 101 -125.5 160t-226.5 59z" />
    <glyph glyph-name="egrave" unicode="&#xe8;" horiz-adv-x="1214" 
d="M795 1167h-66l-139 252h82zM705 1047q115 0 204.5 -44.5t141 -119t70.5 -171t1 -202.5q-1 -6 -4 -18.5t-4 -18.5h-950q-22 -192 83.5 -309t297.5 -117q131 0 239 53t172 146l58 -37q-75 -109 -202.5 -170.5t-276.5 -61.5q-232 0 -356 155.5t-83 389.5q40 228 210 376.5
t399 148.5zM174 541h881q24 201 -75 318.5t-280 117.5q-192 0 -337.5 -120.5t-188.5 -315.5z" />
    <glyph glyph-name="eacute" unicode="&#xe9;" horiz-adv-x="1214" 
d="M956 1419l-219 -252h-71l204 252h86zM705 1047q115 0 204.5 -44.5t141 -119t70.5 -171t1 -202.5q-1 -6 -4 -18.5t-4 -18.5h-950q-22 -192 83.5 -309t297.5 -117q131 0 239 53t172 146l58 -37q-75 -109 -202.5 -170.5t-276.5 -61.5q-232 0 -356 155.5t-83 389.5
q40 228 210 376.5t399 148.5zM174 541h881q24 201 -75 318.5t-280 117.5q-192 0 -337.5 -120.5t-188.5 -315.5z" />
    <glyph glyph-name="ecircumflex" unicode="&#xea;" horiz-adv-x="1214" 
d="M772 1376l-221 -209h-86l268 252h84l180 -252h-75zM705 1047q115 0 204.5 -44.5t141 -119t70.5 -171t1 -202.5q-1 -6 -4 -18.5t-4 -18.5h-950q-22 -192 83.5 -309t297.5 -117q131 0 239 53t172 146l58 -37q-75 -109 -202.5 -170.5t-276.5 -61.5q-232 0 -356 155.5
t-83 389.5q40 228 210 376.5t399 148.5zM174 541h881q24 201 -75 318.5t-280 117.5q-192 0 -337.5 -120.5t-188.5 -315.5z" />
    <glyph glyph-name="edieresis" unicode="&#xeb;" horiz-adv-x="1214" 
d="M561 1184q-25 0 -39 17t-10 42q5 23 25 40t45 17t38.5 -17t8.5 -40q-5 -25 -24 -42t-44 -17zM909 1184q-25 0 -39 17t-10 42q5 23 25 40t45 17t38.5 -17t8.5 -40q-5 -25 -24 -42t-44 -17zM705 1047q115 0 204.5 -44.5t141 -119t70.5 -171t1 -202.5q-1 -6 -4 -18.5
t-4 -18.5h-950q-22 -192 83.5 -309t297.5 -117q131 0 239 53t172 146l58 -37q-75 -109 -202.5 -170.5t-276.5 -61.5q-232 0 -356 155.5t-83 389.5q40 228 210 376.5t399 148.5zM174 541h881q24 201 -75 318.5t-280 117.5q-192 0 -337.5 -120.5t-188.5 -315.5z" />
    <glyph glyph-name="igrave" unicode="&#xec;" horiz-adv-x="413" 
d="M367 1167l-80 252h-82l94 -252h68zM154 0h-74l180 1024h74z" />
    <glyph glyph-name="iacute" unicode="&#xed;" horiz-adv-x="413" 
d="M276 1167h68l182 252h-84zM80 0l180 1024h74l-180 -1024h-74z" />
    <glyph glyph-name="icircumflex" unicode="&#xee;" horiz-adv-x="413" 
d="M537 1167h-82l-99 195l-163 -195h-82l215 252h84zM80 0l180 1024h74l-180 -1024h-74z" />
    <glyph glyph-name="idieresis" unicode="&#xef;" horiz-adv-x="413" 
d="M197 1184q-23 0 -37 17t-10 42q3 23 23.5 40t43.5 17q25 0 38.5 -17t8.5 -40q-5 -25 -24 -42t-43 -17zM455 1184q-23 0 -37 17t-10 42q3 23 23.5 40t43.5 17q25 0 38.5 -17t8.5 -40q-5 -25 -24 -42t-43 -17zM80 0l180 1024h74l-180 -1024h-74z" />
    <glyph glyph-name="eth" unicode="&#xf0;" horiz-adv-x="1206" 
d="M1053 750q34 -59 46 -141t-1 -167q-27 -147 -111 -254t-201 -159t-254 -52q-101 0 -190.5 39.5t-151.5 107t-89 166t-7 208.5q24 138 106.5 241.5t197.5 155t245 51.5q154 0 264 -74l-190 340l-295 -163l12 71l254 142l-96 172h72l79 -142l252 140l-12 -72l-211 -117z
M1026 451q27 159 -29 260q-100 172 -354 172q-182 0 -314 -107.5t-163 -283.5q-34 -188 74.5 -316.5t302.5 -128.5q184 0 317 109.5t166 294.5z" />
    <glyph glyph-name="ntilde" unicode="&#xf1;" horiz-adv-x="1165" 
d="M705 1266q-77 89 -135 70.5t-78 -134.5h-64q18 103 66.5 156t111 45t121.5 -76q75 -87 134 -69t79 133h64q-17 -102 -65.5 -155t-111.5 -45t-122 75zM717 1047q179 0 270.5 -111.5t59.5 -292.5l-113 -643h-72l113 643q25 150 -45 242t-223 92q-159 0 -281.5 -102
t-167.5 -283l-104 -592h-74l180 1024h74l-37 -211q74 116 184.5 175t235.5 59z" />
    <glyph glyph-name="ograve" unicode="&#xf2;" horiz-adv-x="1263" 
d="M799 1167l-123 252h-82l139 -252h66zM543 -23q-107 0 -198.5 41t-153 111.5t-88 172.5t-5.5 218q27 155 122.5 277t228 186t276.5 64q106 0 196.5 -41t151 -112t86.5 -173t6 -217q-27 -155 -120.5 -277t-225 -186t-276.5 -64zM549 47q193 0 351.5 132t193.5 335
q18 100 -4 187t-74 147t-130.5 94.5t-170.5 34.5q-126 0 -241.5 -58.5t-197.5 -165.5t-106 -241q-17 -101 5 -189t74 -148t130 -94.5t170 -33.5z" />
    <glyph glyph-name="oacute" unicode="&#xf3;" horiz-adv-x="1263" 
d="M670 1167h71l220 252h-87zM543 -23q-107 0 -198.5 41t-153 111.5t-88 172.5t-5.5 218q27 155 122.5 277t228 186t276.5 64q106 0 196.5 -41t151 -112t86.5 -173t6 -217q-27 -155 -120.5 -277t-225 -186t-276.5 -64zM549 47q193 0 351.5 132t193.5 335q18 100 -4 187
t-74 147t-130.5 94.5t-170.5 34.5q-126 0 -241.5 -58.5t-197.5 -165.5t-106 -241q-17 -101 5 -189t74 -148t130 -94.5t170 -33.5z" />
    <glyph glyph-name="ocircumflex" unicode="&#xf4;" horiz-adv-x="1263" 
d="M776 1376l-221 -209h-86l268 252h84l180 -252h-75zM725 1047q106 0 196.5 -41t151 -112t86.5 -173t6 -217q-27 -155 -120.5 -277t-225 -186t-276.5 -64q-107 0 -198.5 41t-153 111.5t-88 172.5t-5.5 218q27 155 122.5 277t228 186t276.5 64zM1094 514q18 100 -4 187
t-74 147t-130.5 94.5t-170.5 34.5q-126 0 -241.5 -58.5t-197.5 -165.5t-106 -241q-17 -101 5 -189t74 -148t130 -94.5t170 -33.5q193 0 351.5 132t193.5 335z" />
    <glyph glyph-name="otilde" unicode="&#xf5;" horiz-adv-x="1263" 
d="M471 1202q18 103 66.5 156t111 45t121.5 -76q75 -87 134 -69t79 133h64q-17 -102 -65.5 -155t-111.5 -45t-122 75q-77 89 -135 70.5t-78 -134.5h-64zM543 -23q-107 0 -198.5 41t-153 111.5t-88 172.5t-5.5 218q27 155 122.5 277t228 186t276.5 64q106 0 196.5 -41
t151 -112t86.5 -173t6 -217q-27 -155 -120.5 -277t-225 -186t-276.5 -64zM549 47q193 0 351.5 132t193.5 335q18 100 -4 187t-74 147t-130.5 94.5t-170.5 34.5q-126 0 -241.5 -58.5t-197.5 -165.5t-106 -241q-17 -101 5 -189t74 -148t130 -94.5t170 -33.5z" />
    <glyph glyph-name="odieresis" unicode="&#xf6;" horiz-adv-x="1263" 
d="M565 1184q-25 0 -39 17t-10 42q5 23 25 40t45 17t38.5 -17t8.5 -40q-5 -25 -24 -42t-44 -17zM913 1184q-25 0 -39 17t-10 42q5 23 25 40t45 17t38.5 -17t8.5 -40q-5 -25 -24 -42t-44 -17zM543 -23q-107 0 -198.5 41t-153 111.5t-88 172.5t-5.5 218q27 155 122.5 277
t228 186t276.5 64q106 0 196.5 -41t151 -112t86.5 -173t6 -217q-27 -155 -120.5 -277t-225 -186t-276.5 -64zM549 47q193 0 351.5 132t193.5 335q18 100 -4 187t-74 147t-130.5 94.5t-170.5 34.5q-126 0 -241.5 -58.5t-197.5 -165.5t-106 -241q-17 -101 5 -189t74 -148
t130 -94.5t170 -33.5z" />
    <glyph glyph-name="divide" unicode="&#xf7;" horiz-adv-x="1187" 
d="M684 1028q-29 0 -46 22.5t-11 51.5q4 30 28.5 49.5t55.5 19.5q29 0 46.5 -21.5t12.5 -51.5q-6 -31 -30 -50.5t-56 -19.5zM166 682l12 70h916l-13 -70h-915zM549 262q-29 0 -46 22.5t-11 51.5q4 30 28 50t55 20q29 0 47 -22.5t13 -51.5q-6 -31 -30 -50.5t-56 -19.5z" />
    <glyph glyph-name="oslash" unicode="&#xf8;" horiz-adv-x="1263" 
d="M1198 997l-119 -110q125 -158 86 -383q-27 -155 -120.5 -277t-225 -186t-276.5 -64q-192 0 -320 119l-108 -100l-47 31l118 108q-130 157 -88 385q27 155 122.5 277t228 186t276.5 64q191 0 315 -121l111 102zM170 512q-34 -194 70 -326l747 691q-111 100 -272 100
q-126 0 -241.5 -58.5t-197.5 -165.5t-106 -241zM1094 514q33 190 -70 324l-748 -693q109 -98 273 -98q193 0 351.5 132t193.5 335z" />
    <glyph glyph-name="ugrave" unicode="&#xf9;" horiz-adv-x="1165" 
d="M748 1167h-66l-139 252h82zM1012 1024h73l-180 -1024h-74l37 211q-74 -116 -184 -175t-235 -59q-179 0 -270.5 111.5t-59.5 292.5l112 643h72l-113 -643q-25 -150 45.5 -242t223.5 -92q159 0 281 102t167 283z" />
    <glyph glyph-name="uacute" unicode="&#xfa;" horiz-adv-x="1165" 
d="M909 1419l-219 -252h-72l205 252h86zM1012 1024h73l-180 -1024h-74l37 211q-74 -116 -184 -175t-235 -59q-179 0 -270.5 111.5t-59.5 292.5l112 643h72l-113 -643q-25 -150 45.5 -242t223.5 -92q159 0 281 102t167 283z" />
    <glyph glyph-name="ucircumflex" unicode="&#xfb;" horiz-adv-x="1165" 
d="M725 1376l-221 -209h-86l268 252h84l180 -252h-76zM1012 1024h73l-180 -1024h-74l37 211q-74 -116 -184 -175t-235 -59q-179 0 -270.5 111.5t-59.5 292.5l112 643h72l-113 -643q-25 -150 45.5 -242t223.5 -92q159 0 281 102t167 283z" />
    <glyph glyph-name="udieresis" unicode="&#xfc;" horiz-adv-x="1165" 
d="M514 1184q-25 0 -39 17t-10 42q5 23 25 40t45 17t38.5 -17t8.5 -40q-5 -25 -24 -42t-44 -17zM862 1184q-25 0 -39 17t-10 42q5 23 25 40t45 17t38.5 -17t8.5 -40q-5 -25 -24 -42t-44 -17zM1012 1024h73l-180 -1024h-74l37 211q-74 -116 -184 -175t-235 -59
q-179 0 -270.5 111.5t-59.5 292.5l112 643h72l-113 -643q-25 -150 45.5 -242t223.5 -92q159 0 281 102t167 283z" />
    <glyph glyph-name="yacute" unicode="&#xfd;" horiz-adv-x="1044" 
d="M834 1419l-220 -252h-71l205 252h86zM1020 1024h80l-639 -1118q-90 -156 -209 -241t-248 -75l12 68q102 -10 200.5 61.5t172.5 202.5l27 45l-291 1057h72l266 -975z" />
    <glyph glyph-name="thorn" unicode="&#xfe;" horiz-adv-x="1339" 
d="M788 1047q142 0 255.5 -76.5t167.5 -206.5t28 -277q-27 -154 -115.5 -271t-214 -178t-268.5 -61q-155 0 -274 88t-160 234l-125 -709h-74l324 1844h74l-115 -654q81 125 211 196t286 71zM1167 496q22 128 -22.5 239t-143.5 176.5t-227 65.5q-187 0 -332.5 -115.5
t-189.5 -298.5l-10 -67q-21 -192 97 -320.5t304 -128.5q192 0 340.5 123.5t183.5 325.5z" />
    <glyph glyph-name="ydieresis" unicode="&#xff;" horiz-adv-x="1044" 
d="M438 1184q-25 0 -39 17t-10 42q5 23 25 40t45 17t38.5 -17t8.5 -40q-5 -25 -24 -42t-44 -17zM786 1184q-25 0 -39 17t-10 42q5 23 25 40t45 17t38.5 -17t8.5 -40q-5 -25 -24 -42t-44 -17zM1020 1024h80l-639 -1118q-90 -156 -209 -241t-248 -75l12 68q102 -10 200.5 61.5
t172.5 202.5l27 45l-291 1057h72l266 -975z" />
    <glyph glyph-name="Amacron" unicode="&#x100;" horiz-adv-x="1288" 
d="M1104 1688l-12 -62h-504l10 62h506zM1079 0l-80 379h-751l-215 -379h-82l813 1434h84l309 -1434h-78zM287 449h698l-190 897z" />
    <glyph glyph-name="amacron" unicode="&#x101;" horiz-adv-x="1339" 
d="M1018 1278l-12 -61h-504l10 61h506zM1186 1024h74l-181 -1024h-73l43 242q-80 -124 -210.5 -194.5t-287.5 -70.5q-143 0 -256.5 76.5t-167 206.5t-27.5 277q27 154 115.5 271t214 178t268.5 61q156 0 275 -88t160 -234zM565 47q187 0 332.5 115.5t189.5 298.5l11 67
q21 192 -97.5 320.5t-304.5 128.5q-191 0 -339.5 -123.5t-184.5 -325.5q-22 -128 22.5 -239t143.5 -176.5t227 -65.5z" />
    <glyph glyph-name="Abreve" unicode="&#x102;" horiz-adv-x="1288" 
d="M836 1575q-117 0 -180.5 62.5t-45.5 168.5h70q-15 -81 29 -125.5t133 -44.5q88 0 147 45.5t72 124.5h69q-20 -108 -97.5 -169.5t-196.5 -61.5zM1079 0l-80 379h-751l-215 -379h-82l813 1434h84l309 -1434h-78zM287 449h698l-190 897z" />
    <glyph glyph-name="abreve" unicode="&#x103;" horiz-adv-x="1339" 
d="M750 1165q-117 0 -180.5 63t-45.5 169h70q-15 -81 29 -125.5t133 -44.5q88 0 147 45.5t72 124.5h69q-20 -108 -97.5 -170t-196.5 -62zM1186 1024h74l-181 -1024h-73l43 242q-80 -124 -210.5 -194.5t-287.5 -70.5q-143 0 -256.5 76.5t-167 206.5t-27.5 277
q27 154 115.5 271t214 178t268.5 61q156 0 275 -88t160 -234zM565 47q187 0 332.5 115.5t189.5 298.5l11 67q21 192 -97.5 320.5t-304.5 128.5q-191 0 -339.5 -123.5t-184.5 -325.5q-22 -128 22.5 -239t143.5 -176.5t227 -65.5z" />
    <glyph glyph-name="Aogonek" unicode="&#x104;" horiz-adv-x="1288" 
d="M924 -281q-9 -42 13 -66t64 -24q47 0 93 19l-11 -60q-41 -20 -104 -20q-67 0 -103 42t-24 107q22 129 225 289l-78 373h-751l-215 -379h-82l813 1434h84l309 -1434q-214 -161 -233 -281zM287 449h698l-190 897z" />
    <glyph glyph-name="aogonek" unicode="&#x105;" horiz-adv-x="1339" 
d="M1079 0q-217 -163 -233 -281q-7 -42 14.5 -66t63.5 -24q50 0 92 19l-10 -62q-50 -18 -105 -18q-69 0 -104 42t-23 107q22 133 236 303l39 222q-80 -124 -210.5 -194.5t-287.5 -70.5q-143 0 -256.5 76.5t-167 206.5t-27.5 277q27 154 115.5 271t214 178t268.5 61
q156 0 275 -88t160 -234l53 299h74zM565 47q187 0 332.5 115.5t189.5 298.5l11 67q21 192 -97.5 320.5t-304.5 128.5q-191 0 -339.5 -123.5t-184.5 -325.5q-22 -128 22.5 -239t143.5 -176.5t227 -65.5z" />
    <glyph glyph-name="Cacute" unicode="&#x106;" horiz-adv-x="1550" 
d="M971 1577h71l220 252h-86zM756 -23q-156 0 -283.5 59.5t-207.5 160t-112.5 239t-5.5 291.5q36 204 157 370.5t303 262.5t386 96q199 0 348.5 -92t223.5 -248l-66 -35q-66 139 -196.5 221t-311.5 82q-143 0 -275 -52.5t-232.5 -142.5t-170 -212.5t-92.5 -259.5
q-24 -136 3.5 -259t97.5 -213t183.5 -143t254.5 -53q183 0 343.5 85.5t266.5 232.5l62 -39q-114 -159 -293 -255t-383 -96z" />
    <glyph glyph-name="cacute" unicode="&#x107;" horiz-adv-x="1169" 
d="M666 1167h71l219 252h-86zM539 -23q-149 0 -259.5 73t-159 198.5t-22.5 275.5q40 226 217.5 374.5t407.5 148.5q148 0 257.5 -69.5t149.5 -186.5l-63 -33q-33 101 -125.5 160t-226.5 59q-199 0 -354.5 -133t-190.5 -330q-22 -129 18 -235.5t135 -169t226 -62.5
q132 0 247 60.5t183 162.5l57 -37q-78 -121 -209 -188.5t-288 -67.5z" />
    <glyph glyph-name="Cdotaccent" unicode="&#x10a;" horiz-adv-x="1550" 
d="M1040 1591q-34 0 -52.5 22t-12.5 56t32 56t60 22q32 0 51 -22t15 -56q-6 -33 -33 -55.5t-60 -22.5zM756 -23q-156 0 -283.5 59.5t-207.5 160t-112.5 239t-5.5 291.5q36 204 157 370.5t303 262.5t386 96q199 0 348.5 -92t223.5 -248l-66 -35q-66 139 -196.5 221t-311.5 82
q-143 0 -275 -52.5t-232.5 -142.5t-170 -212.5t-92.5 -259.5q-24 -136 3.5 -259t97.5 -213t183.5 -143t254.5 -53q183 0 343.5 85.5t266.5 232.5l62 -39q-114 -159 -293 -255t-383 -96z" />
    <glyph glyph-name="cdotaccent" unicode="&#x10b;" horiz-adv-x="1169" 
d="M735 1182q-34 0 -52.5 22t-12.5 56t32 55.5t60 21.5q32 0 50.5 -21.5t14.5 -55.5q-6 -33 -32.5 -55.5t-59.5 -22.5zM539 -23q-149 0 -259.5 73t-159 198.5t-22.5 275.5q40 226 217.5 374.5t407.5 148.5q148 0 257.5 -69.5t149.5 -186.5l-63 -33q-33 101 -125.5 160
t-226.5 59q-199 0 -354.5 -133t-190.5 -330q-22 -129 18 -235.5t135 -169t226 -62.5q132 0 247 60.5t183 162.5l57 -37q-78 -121 -209 -188.5t-288 -67.5z" />
    <glyph glyph-name="Ccaron" unicode="&#x10c;" horiz-adv-x="1550" 
d="M993 1577l-182 252h78l147 -207l224 207h86l-269 -252h-84zM991 1384q-143 0 -275 -52.5t-232.5 -142.5t-170 -212.5t-92.5 -259.5q-24 -136 3.5 -259t97.5 -213t183.5 -143t254.5 -53q183 0 343.5 85.5t266.5 232.5l62 -39q-114 -159 -293 -255t-383 -96
q-156 0 -283.5 59.5t-207.5 160t-112.5 239t-5.5 291.5q36 204 157 370.5t303 262.5t386 96q199 0 348.5 -92t223.5 -248l-66 -35q-66 139 -196.5 221t-311.5 82z" />
    <glyph glyph-name="ccaron" unicode="&#x10d;" horiz-adv-x="1169" 
d="M688 1167l-182 252h78l147 -207l223 207h86l-268 -252h-84zM715 977q-199 0 -354.5 -133t-190.5 -330q-22 -129 18 -235.5t135 -169t226 -62.5q132 0 247 60.5t183 162.5l57 -37q-78 -121 -209 -188.5t-288 -67.5q-149 0 -259.5 73t-159 198.5t-22.5 275.5
q40 226 217.5 374.5t407.5 148.5q148 0 257.5 -69.5t149.5 -186.5l-63 -33q-33 101 -125.5 160t-226.5 59z" />
    <glyph glyph-name="Dcaron" unicode="&#x10e;" horiz-adv-x="1503" 
d="M840 1577l-183 252h78l148 -207l223 207h86l-268 -252h-84zM879 1434q142 0 258 -58.5t188 -157.5t100 -233t2 -280q-35 -197 -146 -357t-283 -254t-371 -94h-527l252 1434h527zM1354 715q31 178 -18 326t-172.5 235.5t-297.5 87.5h-450l-228 -1294h451q174 0 328 87
t255.5 234t131.5 324z" />
    <glyph glyph-name="dcaron" unicode="&#x10f;" horiz-adv-x="1417" 
d="M1133 725l124 709h74l-252 -1434h-73l43 242q-80 -124 -210.5 -194.5t-287.5 -70.5q-143 0 -256.5 76.5t-167 206.5t-27.5 277q27 154 115.5 271t214 178t268.5 61q156 0 275 -88t160 -234zM1513 1434h72l-100 -349h-53zM565 47q186 0 331 115t189 297l15 71
q18 192 -100.5 319.5t-303.5 127.5q-192 0 -340.5 -123.5t-183.5 -325.5q-22 -128 22.5 -239t143.5 -176.5t227 -65.5z" />
    <glyph glyph-name="Dcroat" unicode="&#x110;" horiz-adv-x="1544" 
d="M920 1434q142 0 258 -58.5t188 -157.5t100 -233t2 -280q-35 -197 -146 -357t-283 -254t-371 -94h-527l121 682h-129l12 70h127l121 682h527zM1395 715q31 178 -18 326t-172.5 235.5t-297.5 87.5h-450l-109 -612h535l-13 -70h-532l-109 -612h451q174 0 328 87t255.5 234
t131.5 324z" />
    <glyph glyph-name="dcroat" unicode="&#x111;" horiz-adv-x="1349" 
d="M1436 1266l-11 -60h-137l-211 -1206h-71l43 242q-80 -124 -210.5 -194.5t-287.5 -70.5q-143 0 -256.5 76.5t-167 206.5t-27.5 277q27 154 115.5 271t214 178t268.5 61q156 0 275 -88t160 -234l84 481h-447l10 60h449l28 168h72l-29 -168h136zM565 47q186 0 331 114
t189 296l15 73q18 191 -101 319t-303 128q-191 0 -339.5 -123.5t-184.5 -325.5q-22 -128 22.5 -239t143.5 -176.5t227 -65.5z" />
    <glyph glyph-name="Emacron" unicode="&#x112;" horiz-adv-x="1099" 
d="M1047 1688l-13 -62h-504l11 62h506zM1143 1364h-727l-107 -606h676l-12 -70h-676l-109 -618h738l-13 -70h-813l252 1434h803z" />
    <glyph glyph-name="emacron" unicode="&#x113;" horiz-adv-x="1214" 
d="M1006 1278l-13 -61h-504l11 61h506zM705 1047q115 0 204.5 -44.5t141 -119t70.5 -171t1 -202.5q-1 -6 -4 -18.5t-4 -18.5h-950q-22 -192 83.5 -309t297.5 -117q131 0 239 53t172 146l58 -37q-75 -109 -202.5 -170.5t-276.5 -61.5q-232 0 -356 155.5t-83 389.5
q40 228 210 376.5t399 148.5zM174 541h881q24 201 -75 318.5t-280 117.5q-192 0 -337.5 -120.5t-188.5 -315.5z" />
    <glyph glyph-name="Edotaccent" unicode="&#x116;" horiz-adv-x="1099" 
d="M776 1591q-34 0 -52.5 22t-12.5 56t32 56t60 22q32 0 50.5 -22t14.5 -56q-6 -33 -32.5 -55.5t-59.5 -22.5zM1143 1364h-727l-107 -606h676l-12 -70h-676l-109 -618h738l-13 -70h-813l252 1434h803z" />
    <glyph glyph-name="edotaccent" unicode="&#x117;" horiz-adv-x="1214" 
d="M735 1182q-34 0 -52.5 22t-12.5 56t32 55.5t60 21.5q32 0 50.5 -21.5t14.5 -55.5q-6 -33 -32.5 -55.5t-59.5 -22.5zM705 1047q115 0 204.5 -44.5t141 -119t70.5 -171t1 -202.5q-1 -6 -4 -18.5t-4 -18.5h-950q-22 -192 83.5 -309t297.5 -117q131 0 239 53t172 146l58 -37
q-75 -109 -202.5 -170.5t-276.5 -61.5q-232 0 -356 155.5t-83 389.5q40 228 210 376.5t399 148.5zM174 541h881q24 201 -75 318.5t-280 117.5q-192 0 -337.5 -120.5t-188.5 -315.5z" />
    <glyph glyph-name="Eogonek" unicode="&#x118;" horiz-adv-x="1101" 
d="M1143 1364h-727l-107 -606h676l-12 -70h-676l-109 -618h738l-13 -70q-214 -155 -233 -276q-7 -41 16 -68t66 -27t92 19l-10 -62q-46 -18 -105 -18q-72 0 -106.5 45t-22.5 111q22 134 224 276h-734l252 1434h803z" />
    <glyph glyph-name="eogonek" unicode="&#x119;" horiz-adv-x="1214" 
d="M705 1047q115 0 204.5 -44.5t141 -119t70.5 -171t1 -202.5q-1 -6 -4 -18.5t-4 -18.5h-950q-22 -192 83.5 -309t297.5 -117q131 0 239 53t172 146l58 -37q-31 -44 -78 -88q-191 -163 -272 -251t-93 -151q-14 -90 88 -90q42 0 86 17l-10 -60q-50 -18 -98 -18
q-76 0 -111.5 41.5t-23.5 107.5q24 125 229 289q-98 -29 -196 -29q-232 0 -356 155.5t-83 389.5q40 228 210 376.5t399 148.5zM174 541h881q24 201 -75 318.5t-280 117.5q-192 0 -337.5 -120.5t-188.5 -315.5z" />
    <glyph glyph-name="Ecaron" unicode="&#x11a;" horiz-adv-x="1099" 
d="M729 1577l-182 252h78l147 -207l223 207h86l-268 -252h-84zM1143 1364h-727l-107 -606h676l-12 -70h-676l-109 -618h738l-13 -70h-813l252 1434h803z" />
    <glyph glyph-name="ecaron" unicode="&#x11b;" horiz-adv-x="1214" 
d="M688 1167l-182 252h78l147 -207l223 207h86l-268 -252h-84zM705 1047q115 0 204.5 -44.5t141 -119t70.5 -171t1 -202.5q-1 -6 -4 -18.5t-4 -18.5h-950q-22 -192 83.5 -309t297.5 -117q131 0 239 53t172 146l58 -37q-75 -109 -202.5 -170.5t-276.5 -61.5
q-232 0 -356 155.5t-83 389.5q40 228 210 376.5t399 148.5zM174 541h881q24 201 -75 318.5t-280 117.5q-192 0 -337.5 -120.5t-188.5 -315.5z" />
    <glyph glyph-name="Gbreve" unicode="&#x11e;" horiz-adv-x="1660" 
d="M1034 1575q-117 0 -180 62.5t-45 168.5h70q-15 -81 28.5 -125.5t132.5 -44.5q88 0 147.5 45.5t72.5 124.5h69q-20 -108 -98 -169.5t-197 -61.5zM1575 655l-6 -39q-35 -180 -142 -324.5t-275 -229.5t-366 -85q-165 0 -298.5 61t-215.5 164.5t-115 242.5t-7 292
q33 199 152.5 363t302.5 260t390 96q205 0 352.5 -94t221.5 -246l-66 -35q-67 138 -197.5 220.5t-314.5 82.5q-143 0 -275.5 -52t-233 -140.5t-169 -209.5t-90.5 -257q-23 -138 7 -262t102.5 -215.5t191.5 -145t267 -53.5q132 0 250.5 42.5t207 116t151 171t89.5 207.5h-643
l12 69h717z" />
    <glyph glyph-name="gbreve" unicode="&#x11f;" horiz-adv-x="1353" 
d="M780 1165q-117 0 -180 63t-45 169h70q-15 -81 28.5 -125.5t132.5 -44.5q88 0 147.5 45.5t72.5 124.5h69q-20 -108 -98 -170t-197 -62zM1200 1024h72l-170 -969q-40 -228 -197 -357.5t-391 -129.5q-172 0 -287 68.5t-155 177.5l63 32q30 -91 128 -149.5t255 -58.5
q207 0 342 110t170 307l33 191q-80 -125 -209 -197t-279 -72q-152 0 -267 76t-166.5 204.5t-28.5 279.5q24 148 113 266t215 181t264 63q161 0 281 -87t161 -235zM586 47q189 0 337.5 126.5t182.5 320.5q18 103 -6 194t-79 154t-137 99t-177 36q-188 0 -338.5 -126.5
t-182.5 -322.5q-22 -132 23 -242.5t145 -174.5t232 -64z" />
    <glyph glyph-name="Gdotaccent" unicode="&#x120;" horiz-adv-x="1660" 
d="M1032 1591q-34 0 -52.5 22t-12.5 56t32 56t60 22q32 0 50.5 -22t14.5 -56q-6 -33 -32.5 -55.5t-59.5 -22.5zM1575 655l-6 -39q-35 -180 -142 -324.5t-275 -229.5t-366 -85q-165 0 -298.5 61t-215.5 164.5t-115 242.5t-7 292q33 199 152.5 363t302.5 260t390 96
q205 0 352.5 -94t221.5 -246l-66 -35q-67 138 -197.5 220.5t-314.5 82.5q-143 0 -275.5 -52t-233 -140.5t-169 -209.5t-90.5 -257q-23 -138 7 -262t102.5 -215.5t191.5 -145t267 -53.5q132 0 250.5 42.5t207 116t151 171t89.5 207.5h-643l12 69h717z" />
    <glyph glyph-name="gdotaccent" unicode="&#x121;" horiz-adv-x="1353" 
d="M778 1182q-34 0 -52.5 22t-12.5 56t32 55.5t60 21.5q32 0 50.5 -21.5t14.5 -55.5q-6 -33 -32.5 -55.5t-59.5 -22.5zM1200 1024h72l-170 -969q-40 -228 -197 -357.5t-391 -129.5q-172 0 -287 68.5t-155 177.5l63 32q30 -91 128 -149.5t255 -58.5q207 0 342 110t170 307
l33 191q-80 -125 -209 -197t-279 -72q-152 0 -267 76t-166.5 204.5t-28.5 279.5q24 148 113 266t215 181t264 63q161 0 281 -87t161 -235zM586 47q189 0 337.5 126.5t182.5 320.5q18 103 -6 194t-79 154t-137 99t-177 36q-188 0 -338.5 -126.5t-182.5 -322.5
q-22 -132 23 -242.5t145 -174.5t232 -64z" />
    <glyph glyph-name="Gcommaaccent" unicode="&#x122;" horiz-adv-x="1660" 
d="M1575 655l-6 -39q-35 -180 -142 -324.5t-275 -229.5t-366 -85q-165 0 -298.5 61t-215.5 164.5t-115 242.5t-7 292q33 199 152.5 363t302.5 260t390 96q205 0 352.5 -94t221.5 -246l-66 -35q-67 138 -197.5 220.5t-314.5 82.5q-143 0 -275.5 -52t-233 -140.5t-169 -209.5
t-90.5 -257q-23 -138 7 -262t102.5 -215.5t191.5 -145t267 -53.5q132 0 250.5 42.5t207 116t151 171t89.5 207.5h-643l12 69h717zM649 -492l82 349h72l-101 -349h-53z" />
    <glyph glyph-name="gcommaaccent" unicode="&#x123;" horiz-adv-x="1353" 
d="M883 1556l-82 -348h-72l100 348h54zM1200 1024h72l-170 -969q-40 -228 -197 -357.5t-391 -129.5q-172 0 -287 68.5t-155 177.5l63 32q30 -91 128 -149.5t255 -58.5q207 0 342 110t170 307l33 191q-80 -125 -209 -197t-279 -72q-152 0 -267 76t-166.5 204.5t-28.5 279.5
q24 148 113 266t215 181t264 63q161 0 281 -87t161 -235zM586 47q189 0 337.5 126.5t182.5 320.5q18 103 -6 194t-79 154t-137 99t-177 36q-188 0 -338.5 -126.5t-182.5 -322.5q-22 -132 23 -242.5t145 -174.5t232 -64z" />
    <glyph glyph-name="Hbar" unicode="&#x126;" horiz-adv-x="1536" 
d="M1538 1137l-12 -62h-142l-188 -1075h-74l123 702h-889l-123 -702h-73l188 1075h-139l10 62h141l52 297h73l-51 -297h889l51 297h74l-51 -297h141zM1257 772l54 303h-889l-53 -303h888z" />
    <glyph glyph-name="hbar" unicode="&#x127;" horiz-adv-x="1200" 
d="M752 1047q177 0 268.5 -111.5t60.5 -292.5l-112 -643h-74l115 643q25 150 -45.5 242t-223.5 92q-169 0 -295.5 -115t-162.5 -317l-97 -545h-71l211 1206h-156l10 60h158l29 168h71l-28 -168h344l-11 -60h-346l-69 -397q74 118 186 178t238 60z" />
    <glyph glyph-name="Imacron" unicode="&#x12a;" horiz-adv-x="456" 
d="M174 1626l10 62h506l-12 -62h-504zM352 1434h76l-252 -1434h-76z" />
    <glyph glyph-name="imacron" unicode="&#x12b;" horiz-adv-x="413" 
d="M154 1217l10 61h356l-12 -61h-354zM80 0l180 1024h74l-180 -1024h-74z" />
    <glyph glyph-name="Iogonek" unicode="&#x12e;" horiz-adv-x="456" 
d="M27 -274q-7 -45 14.5 -71t64.5 -26q51 0 93 19l-11 -62q-47 -18 -104 -18q-69 0 -103.5 42t-23.5 109q17 119 145 287l250 1428h76l-252 -1434q-66 -89 -102.5 -152.5t-46.5 -121.5z" />
    <glyph glyph-name="iogonek" unicode="&#x12f;" horiz-adv-x="413" 
d="M369 1432q27 0 42.5 -19.5t10.5 -46.5q-5 -26 -26.5 -44.5t-49.5 -18.5q-27 0 -42.5 19t-10.5 44q6 28 27 47t49 19zM154 0q-71 -97 -104 -153t-44 -115q-8 -43 15 -73t65 -30q48 0 92 17l-10 -60q-49 -18 -105 -18q-70 0 -104 45.5t-22 112.5q16 103 145 282l178 1016
h74z" />
    <glyph glyph-name="Idotaccent" unicode="&#x130;" horiz-adv-x="456" 
d="M420 1591q-34 0 -53 22t-13 56t32 56t60 22q32 0 51 -22t15 -56q-6 -33 -32.5 -55.5t-59.5 -22.5zM352 1434h76l-252 -1434h-76z" />
    <glyph glyph-name="dotlessi" unicode="&#x131;" horiz-adv-x="413" 
d="M80 0l180 1024h74l-180 -1024h-74z" />
    <glyph glyph-name="Kcommaaccent" unicode="&#x136;" horiz-adv-x="1153" 
d="M1278 1434l-889 -703l653 -731h-90l-649 721l-127 -721h-76l252 1434h76l-119 -678l862 678h107zM414 -492l82 349h71l-100 -349h-53z" />
    <glyph glyph-name="kcommaaccent" unicode="&#x137;" horiz-adv-x="966" 
d="M989 1024l-667 -494l499 -530h-90l-487 516l-90 -516h-74l252 1434h74l-154 -879l631 469h106zM299 -492l82 349h72l-101 -349h-53z" />
    <glyph glyph-name="Lacute" unicode="&#x139;" horiz-adv-x="1017" 
d="M668 1829l-219 -252h-72l205 252h86zM188 70h697l-13 -70h-772l252 1434h76z" />
    <glyph glyph-name="lacute" unicode="&#x13a;" horiz-adv-x="415" 
d="M360 1577h72l219 252h-86zM82 0l113 643l149 852h74l-152 -852l-110 -643h-74z" />
    <glyph glyph-name="Lcommaaccent" unicode="&#x13b;" horiz-adv-x="1017" 
d="M188 70h697l-13 -70h-772l252 1434h76zM360 -492l82 349h72l-100 -349h-54z" />
    <glyph glyph-name="lcommaaccent" unicode="&#x13c;" horiz-adv-x="415" 
d="M82 0l113 643l149 852h74l-152 -852l-110 -643h-74zM29 -492l100 349h-72l-82 -349h54z" />
    <glyph glyph-name="Lcaron" unicode="&#x13d;" horiz-adv-x="1017" 
d="M188 70h697l-13 -70h-772l252 1434h76zM815 1434l-102 -349h-54l82 349h74z" />
    <glyph glyph-name="lcaron" unicode="&#x13e;" horiz-adv-x="473" 
d="M82 0l113 643l149 852h74l-152 -852l-110 -643h-74zM553 1147l102 348h-73l-82 -348h53z" />
    <glyph glyph-name="Lslash" unicode="&#x141;" horiz-adv-x="1050" 
d="M223 70h697l-13 -70h-772l92 528l-143 -84l14 80l144 84l145 826h76l-135 -775l440 261l-12 -80l-443 -260z" />
    <glyph glyph-name="lslash" unicode="&#x142;" horiz-adv-x="491" 
d="M522 915l-14 -75l-191 -117l-14 -80l-110 -643h-74l112 643l7 31l-189 -115l12 76l189 115l131 745h74l-123 -696z" />
    <glyph glyph-name="Nacute" unicode="&#x143;" horiz-adv-x="1419" 
d="M831 1577h72l219 252h-86zM100 0l252 1434h66l669 -1299l228 1299h76l-252 -1434h-64l-669 1298l-230 -1298h-76z" />
    <glyph glyph-name="nacute" unicode="&#x144;" horiz-adv-x="1165" 
d="M918 1419l-220 -252h-71l204 252h87zM717 1047q179 0 270.5 -111.5t59.5 -292.5l-113 -643h-72l113 643q25 150 -45 242t-223 92q-159 0 -281.5 -102t-167.5 -283l-104 -592h-74l180 1024h74l-37 -211q74 116 184.5 175t235.5 59z" />
    <glyph glyph-name="Ncommaaccent" unicode="&#x145;" horiz-adv-x="1419" 
d="M100 0l252 1434h66l669 -1299l228 1299h76l-252 -1434h-64l-669 1298l-230 -1298h-76zM535 -492l100 349h-72l-82 -349h54z" />
    <glyph glyph-name="ncommaaccent" unicode="&#x146;" horiz-adv-x="1165" 
d="M717 1047q179 0 270.5 -111.5t59.5 -292.5l-113 -643h-72l113 643q25 150 -45 242t-223 92q-159 0 -281.5 -102t-167.5 -283l-104 -592h-74l180 1024h74l-37 -211q74 116 184.5 175t235.5 59zM395 -492l82 349h72l-100 -349h-54z" />
    <glyph glyph-name="Ncaron" unicode="&#x147;" horiz-adv-x="1419" 
d="M854 1577l-182 252h78l147 -207l223 207h86l-268 -252h-84zM1315 1434h76l-252 -1434h-64l-669 1298l-230 -1298h-76l252 1434h66l669 -1299z" />
    <glyph glyph-name="ncaron" unicode="&#x148;" horiz-adv-x="1165" 
d="M649 1167l-182 252h78l147 -207l223 207h86l-268 -252h-84zM717 1047q179 0 270.5 -111.5t59.5 -292.5l-113 -643h-72l113 643q25 150 -45 242t-223 92q-159 0 -281.5 -102t-167.5 -283l-104 -592h-74l180 1024h74l-37 -211q74 116 184.5 175t235.5 59z" />
    <glyph glyph-name="Eng" unicode="&#x14a;" horiz-adv-x="1419" 
d="M1315 1434h76l-252 -1434q-20 -117 -62 -198t-105 -127t-139.5 -66t-175.5 -19l13 72q170 -2 265.5 77t127.5 261l4 16l-661 1282l-230 -1298h-76l252 1434h66l669 -1299z" />
    <glyph glyph-name="eng" unicode="&#x14b;" horiz-adv-x="1165" 
d="M717 1047q179 0 270.5 -111.5t59.5 -292.5l-140 -793q-25 -147 -118.5 -222t-243.5 -60l12 70q238 -26 279 212l139 793q25 150 -45 242t-223 92q-159 0 -281.5 -102t-167.5 -283l-104 -592h-74l180 1024h74l-37 -211q74 116 184.5 175t235.5 59z" />
    <glyph glyph-name="Omacron" unicode="&#x14c;" horiz-adv-x="1697" 
d="M793 1626l10 62h506l-13 -62h-503zM758 -23q-151 0 -278.5 60.5t-209 161.5t-116 239.5t-7.5 288.5q35 202 161.5 369.5t312 263.5t389.5 96q151 0 278.5 -61t209 -162.5t116.5 -241t8 -289.5q-27 -151 -107.5 -285t-195 -230.5t-261.5 -153t-300 -56.5zM768 49
q184 0 351.5 88.5t281 241t147.5 334.5q31 183 -30 337t-198.5 244t-320.5 90t-350.5 -89.5t-281 -242.5t-146.5 -335t28.5 -335.5t199 -243t319.5 -89.5z" />
    <glyph glyph-name="omacron" unicode="&#x14d;" horiz-adv-x="1263" 
d="M494 1217l10 61h506l-13 -61h-503zM543 -23q-107 0 -198.5 41t-153 111.5t-88 172.5t-5.5 218q27 155 122.5 277t228 186t276.5 64q106 0 196.5 -41t151 -112t86.5 -173t6 -217q-27 -155 -120.5 -277t-225 -186t-276.5 -64zM549 47q193 0 351.5 132t193.5 335
q18 100 -4 187t-74 147t-130.5 94.5t-170.5 34.5q-126 0 -241.5 -58.5t-197.5 -165.5t-106 -241q-17 -101 5 -189t74 -148t130 -94.5t170 -33.5z" />
    <glyph glyph-name="Ohungarumlaut" unicode="&#x150;" horiz-adv-x="1697" 
d="M795 1577h73l197 266h-82zM1083 1577h74l215 266h-82zM758 -23q-151 0 -278.5 60.5t-209 161.5t-116 239.5t-7.5 288.5q35 202 161.5 369.5t312 263.5t389.5 96q151 0 278.5 -61t209 -162.5t116.5 -241t8 -289.5q-27 -151 -107.5 -285t-195 -230.5t-261.5 -153
t-300 -56.5zM768 49q184 0 351.5 88.5t281 241t147.5 334.5q31 183 -30 337t-198.5 244t-320.5 90t-350.5 -89.5t-281 -242.5t-146.5 -335t28.5 -335.5t199 -243t319.5 -89.5z" />
    <glyph glyph-name="ohungarumlaut" unicode="&#x151;" horiz-adv-x="1263" 
d="M496 1167h73l197 267h-82zM784 1167h74l215 267h-82zM543 -23q-107 0 -198.5 41t-153 111.5t-88 172.5t-5.5 218q27 155 122.5 277t228 186t276.5 64q106 0 196.5 -41t151 -112t86.5 -173t6 -217q-27 -155 -120.5 -277t-225 -186t-276.5 -64zM549 47q193 0 351.5 132
t193.5 335q18 100 -4 187t-74 147t-130.5 94.5t-170.5 34.5q-126 0 -241.5 -58.5t-197.5 -165.5t-106 -241q-17 -101 5 -189t74 -148t130 -94.5t170 -33.5z" />
    <glyph glyph-name="OE" unicode="&#x152;" horiz-adv-x="1875" 
d="M1921 1364h-674l-106 -606h628l-12 -70h-629l-108 -618h682l-12 -70h-758q-94 -23 -199 -23q-154 0 -278.5 59.5t-200.5 160.5t-105 238t-2 288q27 152 103 286.5t186 233t255 156t302 57.5q108 0 191 -22h747zM944 74l227 1286q-79 24 -188 24q-188 0 -352 -90
t-270.5 -241.5t-139.5 -335.5t20 -336t185 -242t319 -90q107 0 199 25z" />
    <glyph glyph-name="oe" unicode="&#x153;" horiz-adv-x="2205" 
d="M1702 1047q111 0 199 -44.5t140 -118.5t72 -171.5t1 -202.5q-3 -20 -9 -37h-950q-20 -192 85 -309t296 -117q132 0 241 53t173 146l55 -37q-73 -108 -201 -170t-272 -62q-179 0 -295 97t-141 258q-78 -160 -228 -257.5t-329 -97.5q-146 0 -257 72t-160.5 197t-23.5 274
q40 226 219.5 376.5t409.5 150.5q168 0 284 -97.5t144 -255.5q75 161 220.5 257t326.5 96zM549 47q128 0 244 61t195 168t102 236q34 197 -73.5 331t-301.5 134q-197 0 -353.5 -134t-191.5 -331q-34 -197 74 -331t305 -134zM1165 541h881q24 201 -73.5 318.5t-280.5 117.5
q-192 0 -338 -120.5t-189 -315.5z" />
    <glyph glyph-name="Racute" unicode="&#x154;" horiz-adv-x="1263" 
d="M1012 1829l-219 -252h-72l205 252h86zM913 1434q109 0 195 -59t126 -158t21 -211q-26 -145 -134.5 -254t-254.5 -142l252 -610h-78l-245 600h-29h-485l-105 -600h-76l252 1434h561zM1182 1018q26 142 -57 244t-224 102h-485l-123 -694h485q142 0 260.5 102.5t143.5 245.5
z" />
    <glyph glyph-name="racute" unicode="&#x155;" horiz-adv-x="659" 
d="M727 1419l-219 -252h-72l205 252h86zM297 817q72 116 178.5 170t220.5 51l-12 -69q-97 0 -184.5 -42.5t-155 -135t-90.5 -222.5l-100 -569h-74l180 1024h74z" />
    <glyph glyph-name="Rcommaaccent" unicode="&#x156;" horiz-adv-x="1263" 
d="M913 1434q109 0 195 -59t126 -158t21 -211q-26 -145 -134.5 -254t-254.5 -142l252 -610h-78l-245 600h-29h-485l-105 -600h-76l252 1434h561zM1182 1018q26 142 -57 244t-224 102h-485l-123 -694h485q142 0 260.5 102.5t143.5 245.5zM477 -492l82 349h72l-101 -349h-53z
" />
    <glyph glyph-name="rcommaaccent" unicode="&#x157;" horiz-adv-x="659" 
d="M297 817q72 116 178.5 170t220.5 51l-12 -69q-97 0 -184.5 -42.5t-155 -135t-90.5 -222.5l-100 -569h-74l180 1024h74zM-25 -492l82 349h72l-100 -349h-54z" />
    <glyph glyph-name="Rcaron" unicode="&#x158;" horiz-adv-x="1263" 
d="M743 1577l-182 252h78l147 -207l224 207h86l-269 -252h-84zM913 1434q109 0 195 -59t126 -158t21 -211q-26 -145 -134.5 -254t-254.5 -142l252 -610h-78l-245 600h-29h-485l-105 -600h-76l252 1434h561zM1182 1018q26 142 -57 244t-224 102h-485l-123 -694h485
q142 0 260.5 102.5t143.5 245.5z" />
    <glyph glyph-name="rcaron" unicode="&#x159;" horiz-adv-x="659" 
d="M459 1167l-183 252h78l148 -207l223 207h86l-268 -252h-84zM297 817q72 116 178.5 170t220.5 51l-12 -69q-97 0 -184.5 -42.5t-155 -135t-90.5 -222.5l-100 -569h-74l180 1024h74z" />
    <glyph glyph-name="Sacute" unicode="&#x15a;" horiz-adv-x="1150" 
d="M690 1577h72l219 252h-86zM518 -23q-191 0 -315.5 88t-157.5 240l66 35q25 -136 130 -213.5t279 -77.5q183 0 294.5 78.5t137.5 206.5q15 76 -5 134.5t-78.5 100.5t-111 66.5t-141.5 56.5q-157 59 -224 103q-182 118 -144 321q30 157 161.5 248.5t301.5 91.5
q168 0 273.5 -82t145.5 -213l-65 -33q-36 116 -122 186t-234 70q-145 0 -254 -75.5t-133 -200.5q-6 -32 -5.5 -60t7.5 -52.5t18.5 -45.5t28.5 -39.5t36.5 -34.5t42.5 -30t48 -26t51.5 -23.5t53 -21.5t53.5 -20q1 0 1.5 -0.5t1.5 -0.5q96 -37 153 -65.5t122 -79t87 -121
t5 -162.5q-33 -168 -171 -258.5t-337 -90.5z" />
    <glyph glyph-name="sacute" unicode="&#x15b;" horiz-adv-x="960" 
d="M526 1167h72l219 252h-86zM418 -23q-147 0 -237.5 60t-125.5 166l66 33q56 -189 303 -189q122 0 208 52t103 147q9 50 -6 88.5t-48 63.5t-78.5 44t-96.5 34.5t-101.5 32t-95 39.5t-76.5 53t-46 76.5t-3 106.5q22 119 124 191t247 72q115 0 203 -54t125 -147l-64 -33
q-27 77 -100.5 120.5t-167.5 43.5q-111 0 -194 -52.5t-101 -152.5q-9 -53 12 -93t62.5 -62.5t96 -43.5t112.5 -36t111.5 -40t93.5 -56t58.5 -83.5t6.5 -121.5q-23 -121 -129.5 -190t-261.5 -69z" />
    <glyph glyph-name="Scedilla" unicode="&#x15e;" horiz-adv-x="1150" 
d="M709 1384q-145 0 -254 -75.5t-133 -200.5q-6 -32 -5.5 -60t7.5 -52.5t18.5 -45.5t28.5 -39.5t36.5 -34.5t42.5 -30t48 -26t51.5 -23.5t53 -21.5t53.5 -20q1 0 1.5 -0.5t1.5 -0.5q96 -37 153 -65.5t122 -79t87 -121t5 -162.5q-33 -166 -168 -256t-330 -93l-20 -116
q74 -3 121.5 -41.5t36.5 -102.5q-13 -82 -111 -122t-293 -19l10 59q152 -17 236.5 7t93.5 82q9 45 -34.5 69.5t-133.5 18.5l29 168q-169 12 -279 98t-139 227l66 35q25 -136 130 -213.5t279 -77.5q183 0 294.5 78.5t137.5 206.5q15 76 -5 134.5t-78.5 100.5t-111 66.5
t-141.5 56.5q-157 59 -224 103q-182 118 -144 321q30 157 161.5 248.5t301.5 91.5q168 0 273.5 -82t145.5 -213l-65 -33q-36 116 -122 186t-234 70z" />
    <glyph glyph-name="scedilla" unicode="&#x15f;" horiz-adv-x="960" 
d="M551 977q-111 0 -194 -52.5t-101 -152.5q-9 -53 12 -93t62.5 -62.5t96 -43.5t112.5 -36t111.5 -40t93.5 -56t58.5 -83.5t6.5 -121.5q-23 -118 -123.5 -186t-249.5 -73l-20 -116q74 -3 121 -41.5t36 -102.5q-13 -82 -110.5 -122t-292.5 -19l10 59q152 -17 236.5 7t93.5 82
q9 45 -34.5 69.5t-133.5 18.5l29 168q-248 17 -316 223l66 33q56 -189 303 -189q122 0 208 52t103 147q9 50 -6 88.5t-48 63.5t-78.5 44t-96.5 34.5t-101.5 32t-95 39.5t-76.5 53t-46 76.5t-3 106.5q22 119 124 191t247 72q115 0 203 -54t125 -147l-64 -33
q-27 77 -100.5 120.5t-167.5 43.5z" />
    <glyph glyph-name="Scaron" unicode="&#x160;" horiz-adv-x="1150" 
d="M713 1577l-183 252h78l148 -207l223 207h86l-268 -252h-84zM709 1384q-145 0 -254 -75.5t-133 -200.5q-6 -32 -5.5 -60t7.5 -52.5t18.5 -45.5t28.5 -39.5t36.5 -34.5t42.5 -30t48 -26t51.5 -23.5t53 -21.5t53.5 -20q1 0 1.5 -0.5t1.5 -0.5q96 -37 153 -65.5t122 -79
t87 -121t5 -162.5q-33 -168 -171 -258.5t-337 -90.5q-191 0 -315.5 88t-157.5 240l66 35q25 -136 130 -213.5t279 -77.5q183 0 294.5 78.5t137.5 206.5q15 76 -5 134.5t-78.5 100.5t-111 66.5t-141.5 56.5q-157 59 -224 103q-182 118 -144 321q30 157 161.5 248.5
t301.5 91.5q168 0 273.5 -82t145.5 -213l-65 -33q-36 116 -122 186t-234 70z" />
    <glyph glyph-name="scaron" unicode="&#x161;" horiz-adv-x="960" 
d="M549 1167l-182 252h77l148 -207l223 207h86l-268 -252h-84zM555 1047q115 0 203 -54t125 -147l-64 -33q-27 77 -100.5 120.5t-167.5 43.5q-111 0 -194 -52.5t-101 -152.5q-9 -53 12 -93t62.5 -62.5t96 -43.5t112.5 -36t111.5 -40t93.5 -56t58.5 -83.5t6.5 -121.5
q-23 -121 -129.5 -190t-261.5 -69q-147 0 -237.5 60t-125.5 166l66 33q56 -189 303 -189q122 0 208 52t103 147q9 50 -6 88.5t-48 63.5t-78.5 44t-96.5 34.5t-101.5 32t-95 39.5t-76.5 53t-46 76.5t-3 106.5q22 119 124 191t247 72z" />
    <glyph glyph-name="uni0162" unicode="&#x162;" horiz-adv-x="1105" 
d="M1212 1434l-10 -70h-463l-239 -1364h-74l240 1364h-461l12 70h995zM324 -492l82 349h71l-100 -349h-53z" />
    <glyph glyph-name="uni0163" unicode="&#x163;" horiz-adv-x="774" 
d="M440 956l-125 -714q-24 -129 43.5 -165t241.5 -14l-12 -63q-199 -31 -286 27t-60 215l125 714h-234l12 68h234l47 264l76 23l-49 -287h315l-12 -68h-316zM254 -492l82 349h72l-101 -349h-53z" />
    <glyph glyph-name="Tcaron" unicode="&#x164;" horiz-adv-x="1105" 
d="M696 1577l-182 252h78l147 -207l224 207h86l-269 -252h-84zM1212 1434l-10 -70h-463l-239 -1364h-74l240 1364h-461l12 70h995z" />
    <glyph glyph-name="tcaron" unicode="&#x165;" horiz-adv-x="774" 
d="M752 1460l-95 -313h-53l76 313h72zM440 956l-125 -714q-24 -129 43.5 -165t241.5 -14l-12 -63q-199 -31 -286 27t-60 215l125 714h-234l12 68h234l47 264l76 23l-49 -287h315l-12 -68h-316z" />
    <glyph glyph-name="Tbar" unicode="&#x166;" horiz-adv-x="1105" 
d="M1202 1364h-463l-108 -612h334l-13 -70h-331l-121 -682h-74l121 682h-332l12 70h330l109 612h-461l12 70h995z" />
    <glyph glyph-name="tbar" unicode="&#x167;" horiz-adv-x="774" 
d="M756 956h-316l-67 -387h209l-11 -59h-209l-47 -268q-24 -129 43.5 -165t241.5 -14l-12 -63q-199 -31 -286 27t-60 215l47 268h-148l11 59h147l68 387h-234l12 68h234l47 264l76 23l-49 -287h315z" />
    <glyph glyph-name="Umacron" unicode="&#x16a;" horiz-adv-x="1378" 
d="M629 1626l10 62h506l-12 -62h-504zM608 -23q-239 0 -361 138t-83 354l170 965h76l-170 -965q-34 -185 60.5 -302.5t307.5 -117.5t348.5 118.5t167.5 301.5l170 965h76l-170 -965q-39 -223 -199 -357.5t-393 -134.5z" />
    <glyph glyph-name="umacron" unicode="&#x16b;" horiz-adv-x="1165" 
d="M958 1278l-12 -61h-504l11 61h505zM1012 1024h73l-180 -1024h-74l37 211q-74 -116 -184 -175t-235 -59q-179 0 -270.5 111.5t-59.5 292.5l112 643h72l-113 -643q-25 -150 45.5 -242t223.5 -92q159 0 281 102t167 283z" />
    <glyph glyph-name="Uring" unicode="&#x16e;" horiz-adv-x="1378" 
d="M858 1475q-92 0 -139 55t-33 137q13 83 78.5 135.5t153.5 52.5q90 0 138 -54t34 -138q-14 -83 -78.5 -135.5t-153.5 -52.5zM864 1530q63 0 108 37.5t56 97.5q10 61 -22.5 98t-94.5 37t-106.5 -37t-56.5 -98q-11 -60 21 -97.5t95 -37.5zM608 -23q-239 0 -361 138t-83 354
l170 965h76l-170 -965q-34 -185 60.5 -302.5t307.5 -117.5t348.5 118.5t167.5 301.5l170 965h76l-170 -965q-39 -223 -199 -357.5t-393 -134.5z" />
    <glyph glyph-name="uring" unicode="&#x16f;" horiz-adv-x="1165" 
d="M684 1141q-92 0 -139 55t-33 137q13 83 78 136t153 53q90 0 138 -54.5t34 -138.5q-14 -83 -78 -135.5t-153 -52.5zM573 1331q-11 -60 21.5 -97.5t95.5 -37.5t108 37.5t56 97.5q10 61 -22.5 98t-94.5 37t-107 -37t-57 -98zM1012 1024h73l-180 -1024h-74l37 211
q-74 -116 -184 -175t-235 -59q-179 0 -270.5 111.5t-59.5 292.5l112 643h72l-113 -643q-25 -150 45.5 -242t223.5 -92q159 0 281 102t167 283z" />
    <glyph glyph-name="Uhungarumlaut" unicode="&#x170;" horiz-adv-x="1378" 
d="M631 1577h74l196 266h-82zM920 1577h73l215 266h-82zM608 -23q-239 0 -361 138t-83 354l170 965h76l-170 -965q-34 -185 60.5 -302.5t307.5 -117.5t348.5 118.5t167.5 301.5l170 965h76l-170 -965q-39 -223 -199 -357.5t-393 -134.5z" />
    <glyph glyph-name="uhungarumlaut" unicode="&#x171;" horiz-adv-x="1165" 
d="M715 1434l-197 -267h-74l189 267h82zM1022 1434l-215 -267h-74l207 267h82zM1012 1024h73l-180 -1024h-74l37 211q-74 -116 -184 -175t-235 -59q-179 0 -270.5 111.5t-59.5 292.5l112 643h72l-113 -643q-25 -150 45.5 -242t223.5 -92q159 0 281 102t167 283z" />
    <glyph glyph-name="Uogonek" unicode="&#x172;" horiz-adv-x="1378" 
d="M1294 1434h76l-170 -965q-23 -132 -90 -235t-170 -166q-178 -133 -248 -203.5t-80 -138.5q-17 -97 90 -97q42 0 84 19l-10 -62q-46 -18 -96 -18q-78 0 -114 44t-23 109q21 123 217 273q-80 -17 -152 -17q-239 0 -361 138t-83 354l170 965h76l-170 -965
q-34 -185 60.5 -302.5t307.5 -117.5t348.5 118.5t167.5 301.5z" />
    <glyph glyph-name="uogonek" unicode="&#x173;" 
d="M905 0q-210 -158 -233 -281q-7 -42 14.5 -66t63.5 -24q48 0 92 17l-11 -60q-46 -18 -104 -18q-70 0 -103.5 40t-21.5 105q21 125 232 299l34 199q-74 -116 -184 -175t-235 -59q-179 0 -270.5 111.5t-59.5 292.5l112 643h72l-113 -643q-25 -150 45.5 -242t223.5 -92
q159 0 281 102t167 283l105 592h73z" />
    <glyph glyph-name="Wcircumflex" unicode="&#x174;" horiz-adv-x="2021" 
d="M1237 1786l-221 -209h-86l268 252h84l180 -252h-76zM2028 1434h79l-667 -1434h-90l-195 1337l-663 -1337h-91l-163 1434h71l152 -1338l663 1338h88l195 -1338z" />
    <glyph glyph-name="wcircumflex" unicode="&#x175;" horiz-adv-x="1576" 
d="M881 1376l-222 -209h-86l269 252h84l180 -252h-76zM1513 1024h78l-508 -1024h-79l-144 926l-467 -926h-80l-147 1024h70l131 -930l471 930h75l142 -932z" />
    <glyph glyph-name="Ycircumflex" unicode="&#x176;" horiz-adv-x="1157" 
d="M803 1786l-221 -209h-86l268 252h84l180 -252h-76zM1284 1434l-641 -762l-117 -672h-75l118 672l-372 762h77l340 -695l584 695h86z" />
    <glyph glyph-name="ycircumflex" unicode="&#x177;" horiz-adv-x="1044" 
d="M649 1376l-221 -209h-86l268 252h84l180 -252h-75zM1020 1024h80l-639 -1118q-90 -156 -209 -241t-248 -75l12 68q102 -10 200.5 61.5t172.5 202.5l27 45l-291 1057h72l266 -975z" />
    <glyph glyph-name="Ydieresis" unicode="&#x178;" horiz-adv-x="1157" 
d="M592 1593q-25 0 -39.5 17.5t-9.5 42.5q5 24 25 40.5t44 16.5q25 0 38.5 -17t8.5 -40q-5 -25 -24 -42.5t-43 -17.5zM940 1593q-25 0 -39.5 17.5t-9.5 42.5q5 23 25 40t45 17t38.5 -17t8.5 -40q-5 -25 -24.5 -42.5t-43.5 -17.5zM1284 1434l-641 -762l-117 -672h-75l118 672
l-372 762h77l340 -695l584 695h86z" />
    <glyph glyph-name="Zacute" unicode="&#x179;" horiz-adv-x="1079" 
d="M961 1829l-220 -252h-71l204 252h87zM1145 1434l-12 -70l-1029 -1294h822l-13 -70h-907l12 70l1029 1294h-781l13 70h866z" />
    <glyph glyph-name="zacute" unicode="&#x17a;" horiz-adv-x="976" 
d="M840 1419l-219 -252h-72l205 252h86zM956 1024l-8 -45l-813 -911h674l-12 -68h-779l9 45l815 911h-633l10 68h737z" />
    <glyph glyph-name="Zdotaccent" unicode="&#x17b;" horiz-adv-x="1079" 
d="M739 1591q-34 0 -52.5 22t-12.5 56t32 56t60 22q32 0 50.5 -22t14.5 -56q-6 -33 -32.5 -55.5t-59.5 -22.5zM1145 1434l-12 -70l-1029 -1294h822l-13 -70h-907l12 70l1029 1294h-781l13 70h866z" />
    <glyph glyph-name="zdotaccent" unicode="&#x17c;" horiz-adv-x="976" 
d="M618 1182q-34 0 -52.5 22t-12.5 56t32 55.5t60 21.5q33 0 51.5 -22t14.5 -55q-6 -33 -33 -55.5t-60 -22.5zM956 1024l-8 -45l-813 -911h674l-12 -68h-779l9 45l815 911h-633l10 68h737z" />
    <glyph glyph-name="Zcaron" unicode="&#x17d;" horiz-adv-x="1079" 
d="M692 1577l-182 252h78l147 -207l223 207h86l-268 -252h-84zM1145 1434l-12 -70l-1029 -1294h822l-13 -70h-907l12 70l1029 1294h-781l13 70h866z" />
    <glyph glyph-name="zcaron" unicode="&#x17e;" horiz-adv-x="976" 
d="M571 1167l-182 252h78l147 -207l224 207h86l-269 -252h-84zM956 1024l-8 -45l-813 -911h674l-12 -68h-779l9 45l815 911h-633l10 68h737z" />
    <glyph glyph-name="florin" unicode="&#x192;" horiz-adv-x="888" 
d="M643 1196q56 162 168 224.5t242 17.5l-15 -70q-97 45 -188 -4.5t-133 -173.5l-152 -436h256l-12 -70h-268l-297 -860q-36 -106 -101 -172t-143 -81.5t-164 11.5l12 70q99 -45 190 4.5t132 173.5l295 854h-244l12 70h256z" />
    <glyph glyph-name="Scommaaccent" unicode="&#x218;" horiz-adv-x="1150" 
d="M518 -23q-191 0 -315.5 88t-157.5 240l66 35q25 -136 130 -213.5t279 -77.5q183 0 294.5 78.5t137.5 206.5q15 76 -5 134.5t-78.5 100.5t-111 66.5t-141.5 56.5q-157 59 -224 103q-182 118 -144 321q30 157 161.5 248.5t301.5 91.5q168 0 273.5 -82t145.5 -213l-65 -33
q-36 116 -122 186t-234 70q-145 0 -254 -75.5t-133 -200.5q-6 -32 -5.5 -60t7.5 -52.5t18.5 -45.5t28.5 -39.5t36.5 -34.5t42.5 -30t48 -26t51.5 -23.5t53 -21.5t53.5 -20q1 0 1.5 -0.5t1.5 -0.5q96 -37 153 -65.5t122 -79t87 -121t5 -162.5q-33 -168 -171 -258.5
t-337 -90.5zM420 -492l100 349h-71l-82 -349h53z" />
    <glyph glyph-name="scommaaccent" unicode="&#x219;" horiz-adv-x="960" 
d="M418 -23q-147 0 -237.5 60t-125.5 166l66 33q56 -189 303 -189q122 0 208 52t103 147q9 50 -6 88.5t-48 63.5t-78.5 44t-96.5 34.5t-101.5 32t-95 39.5t-76.5 53t-46 76.5t-3 106.5q22 119 124 191t247 72q115 0 203 -54t125 -147l-64 -33q-27 77 -100.5 120.5
t-167.5 43.5q-111 0 -194 -52.5t-101 -152.5q-9 -53 12 -93t62.5 -62.5t96 -43.5t112.5 -36t111.5 -40t93.5 -56t58.5 -83.5t6.5 -121.5q-23 -121 -129.5 -190t-261.5 -69zM328 -492l100 349h-72l-82 -349h54z" />
    <glyph glyph-name="uni021A" unicode="&#x21a;" horiz-adv-x="1105" 
d="M1212 1434l-10 -70h-463l-239 -1364h-74l240 1364h-461l12 70h995zM324 -492l82 349h71l-100 -349h-53z" />
    <glyph glyph-name="uni021B" unicode="&#x21b;" horiz-adv-x="774" 
d="M440 956l-125 -714q-24 -129 43.5 -165t241.5 -14l-12 -63q-199 -31 -286 27t-60 215l125 714h-234l12 68h234l47 264l76 23l-49 -287h315l-12 -68h-316zM254 -492l82 349h72l-101 -349h-53z" />
    <glyph glyph-name="circumflex" unicode="&#x2c6;" horiz-adv-x="616" 
d="M688 1167h-76l-149 209l-221 -209h-86l268 252h84z" />
    <glyph glyph-name="caron" unicode="&#x2c7;" horiz-adv-x="616" 
d="M649 1419h86l-268 -252h-84l-182 252h78l147 -207z" />
    <glyph glyph-name="breve" unicode="&#x2d8;" horiz-adv-x="600" 
d="M422 1165q-117 0 -180 63t-45 169h69q-15 -81 29 -125.5t133 -44.5q88 0 147 45.5t72 124.5h70q-20 -108 -98 -170t-197 -62z" />
    <glyph glyph-name="dotaccent" unicode="&#x2d9;" horiz-adv-x="169" 
d="M233 1182q-34 0 -52.5 22t-12.5 56t32 55.5t60 21.5q33 0 51.5 -22t14.5 -55q-6 -33 -33 -55.5t-60 -22.5z" />
    <glyph glyph-name="ring" unicode="&#x2da;" horiz-adv-x="487" 
d="M358 1141q-92 0 -139 55t-33 137q13 83 78.5 136t153.5 53q90 0 138 -54.5t34 -138.5q-14 -83 -78.5 -135.5t-153.5 -52.5zM365 1196q63 0 107.5 37.5t55.5 97.5q10 61 -22 98t-94 37t-107 -37t-57 -98q-11 -60 21.5 -97.5t95.5 -37.5z" />
    <glyph glyph-name="ogonek" unicode="&#x2db;" horiz-adv-x="339" 
d="M31 -432q-72 0 -106.5 45t-22.5 111q22 135 223 276h80q-215 -156 -234 -276q-7 -41 16 -68t66 -27t92 19l-10 -62q-47 -18 -104 -18z" />
    <glyph glyph-name="tilde" unicode="&#x2dc;" horiz-adv-x="622" 
d="M162 1202q18 103 66.5 156t111 45t121.5 -76q75 -87 134 -69t79 133h63q-17 -102 -65.5 -155t-111.5 -45t-122 75q-77 89 -135 70.5t-78 -134.5h-63z" />
    <glyph glyph-name="hungarumlaut" unicode="&#x2dd;" horiz-adv-x="612" 
d="M156 1167h73l197 267h-82zM444 1167h74l215 267h-82z" />
    <glyph glyph-name="gravecomb" unicode="&#x300;" horiz-adv-x="0" 
d="M76 1167l-123 252h-82l139 -252h66z" />
    <glyph glyph-name="acutecomb" unicode="&#x301;" horiz-adv-x="0" 
d="M-172 1167h72l219 252h-86z" />
    <glyph glyph-name="uni0302" unicode="&#x302;" horiz-adv-x="0" 
d="M74 1167h-76l-150 209l-221 -209h-86l269 252h84z" />
    <glyph glyph-name="tildecomb" unicode="&#x303;" horiz-adv-x="0" 
d="M-461 1202q18 103 66.5 156t111 45t121.5 -76q75 -87 134 -69t79 133h64q-17 -102 -65.5 -155t-111.5 -45t-122 75q-77 89 -135 70.5t-78 -134.5h-64z" />
    <glyph glyph-name="uni0304" unicode="&#x304;" horiz-adv-x="0" 
d="M-422 1217l10 61h506l-12 -61h-504z" />
    <glyph glyph-name="uni0306" unicode="&#x306;" horiz-adv-x="0" 
d="M-207 1165q-117 0 -180 63t-45 169h70q-15 -81 28.5 -125.5t132.5 -44.5q88 0 147 45.5t72 124.5h70q-20 -108 -98 -170t-197 -62z" />
    <glyph glyph-name="uni0307" unicode="&#x307;" horiz-adv-x="0" 
d="M-2 1182q-34 0 -53 22t-13 56t32.5 55.5t60.5 21.5q32 0 50.5 -21.5t14.5 -55.5q-6 -33 -32.5 -55.5t-59.5 -22.5z" />
    <glyph glyph-name="uni0308" unicode="&#x308;" horiz-adv-x="0" 
d="M-328 1184q-25 0 -39 17t-10 42q5 23 25 40t45 17t38.5 -17t8.5 -40q-5 -25 -24 -42t-44 -17zM20 1184q-25 0 -39 17t-10 42q5 23 25 40t45 17t38.5 -17t8.5 -40q-5 -25 -24 -42t-44 -17z" />
    <glyph glyph-name="uni030A" unicode="&#x30a;" horiz-adv-x="0" 
d="M-129 1141q-92 0 -139 55t-33 137q13 83 78 136t153 53q90 0 138 -54.5t34 -138.5q-14 -83 -78 -135.5t-153 -52.5zM-123 1196q63 0 108 37.5t56 97.5q10 61 -22.5 98t-94.5 37t-107 -37t-57 -98q-11 -60 21.5 -97.5t95.5 -37.5z" />
    <glyph glyph-name="uni030B" unicode="&#x30b;" horiz-adv-x="0" 
d="M-442 1167h73l197 267h-82zM-154 1167h74l215 267h-82z" />
    <glyph glyph-name="uni030C" unicode="&#x30c;" horiz-adv-x="0" 
d="M33 1419h86l-269 -252h-83l-183 252h78l148 -207z" />
    <glyph glyph-name="uni0312" unicode="&#x312;" horiz-adv-x="0" 
d="M162 1966l-101 -348h72l82 348h-53z" />
    <glyph glyph-name="uni0326" unicode="&#x326;" horiz-adv-x="0" 
d="M-256 -492l100 349h-71l-82 -349h53z" />
    <glyph glyph-name="uni0327" unicode="&#x327;" horiz-adv-x="0" 
d="M-340 -139q74 -3 121.5 -41.5t36.5 -102.5q-13 -82 -111 -122t-293 -19l11 59q152 -17 236 7t93 82q9 45 -34.5 69.5t-133.5 18.5l33 188h66z" />
    <glyph glyph-name="uni0328" unicode="&#x328;" horiz-adv-x="0" 
d="M-309 -432q-72 0 -106.5 45t-22.5 111q22 135 223 276h80q-215 -156 -234 -276q-7 -41 16 -68t66 -27t92 19l-10 -62q-47 -18 -104 -18z" />
    <glyph glyph-name="uni0394" unicode="&#x394;" horiz-adv-x="1273" 
d="M840 1434l309 -1434h-1204l813 1434h82zM66 70h995l-273 1276z" />
    <glyph glyph-name="uni03A9" unicode="&#x3a9;" horiz-adv-x="1699" 
d="M1624 707q-36 -211 -177 -382.5t-337 -254.5h377l-12 -70h-551l2 16l10 54q228 56 399.5 235.5t212.5 411.5q24 136 -6 259.5t-102.5 213t-186 142t-249.5 52.5q-137 0 -270 -52.5t-237 -142t-178 -213t-98 -259.5q-41 -233 67.5 -412t317.5 -235l-8 -56h-2l-2 -14h-553
l12 70h385q-167 88 -248 265.5t-43 391.5q27 151 107.5 286.5t195.5 232.5t262.5 153.5t303.5 56.5q197 0 350 -101.5t223 -274.5t35 -373z" />
    <glyph glyph-name="pi" unicode="&#x3c0;" horiz-adv-x="1331" 
d="M1346 1024l-11 -68h-172l-168 -956h-71l168 956h-689l-167 -956h-72l168 956h-178l12 68h1180z" />
    <glyph glyph-name="uni0401" unicode="&#x401;" horiz-adv-x="1099" 
d="M602 1593q-25 0 -39.5 17.5t-9.5 42.5q5 23 25 40t45 17t38.5 -17t8.5 -40q-5 -25 -24.5 -42.5t-43.5 -17.5zM950 1593q-25 0 -39.5 17.5t-9.5 42.5q5 23 25 40t45 17t38.5 -17t8.5 -40q-5 -25 -24.5 -42.5t-43.5 -17.5zM1143 1364h-727l-107 -606h676l-12 -70h-676
l-109 -618h738l-13 -70h-813l252 1434h803z" />
    <glyph glyph-name="uni0402" unicode="&#x402;" horiz-adv-x="1425" 
d="M983 965q175 0 264.5 -95.5t59.5 -271.5l-58 -330q-26 -148 -116 -222.5t-246 -57.5l12 67q121 -12 187.5 41.5t87.5 171.5l59 330q24 149 -43.5 223t-210.5 74q-168 0 -381 -104l-139 -791h-74l240 1364h-420l12 70h989l-12 -70h-496l-86 -496q203 97 371 97z" />
    <glyph glyph-name="uni0403" unicode="&#x403;" horiz-adv-x="1017" 
d="M977 1827l-219 -252h-72l205 252h86zM1124 1434l-12 -70h-696l-240 -1364h-76l252 1434h772z" />
    <glyph glyph-name="uni0404" unicode="&#x404;" horiz-adv-x="1550" 
d="M991 1384q-138 0 -267 -49.5t-228 -134.5t-169.5 -201t-99.5 -247h834l-12 -70h-834q-22 -174 37.5 -318.5t193 -229.5t314.5 -85q183 0 343.5 85.5t266.5 232.5l62 -39q-114 -159 -293 -255t-383 -96q-156 0 -283.5 59.5t-207.5 160t-112.5 239t-5.5 291.5
q36 204 157 370.5t303 262.5t386 96q199 0 348.5 -92t223.5 -248l-66 -35q-66 139 -196.5 221t-311.5 82z" />
    <glyph glyph-name="uni0405" unicode="&#x405;" horiz-adv-x="1150" 
d="M518 -23q-191 0 -315.5 88t-157.5 240l66 35q25 -136 130 -213.5t279 -77.5q183 0 294.5 78.5t137.5 206.5q15 76 -5 134.5t-78.5 100.5t-111 66.5t-141.5 56.5q-157 59 -224 103q-182 118 -144 321q30 157 161.5 248.5t301.5 91.5q168 0 273.5 -82t145.5 -213l-65 -33
q-36 116 -122 186t-234 70q-145 0 -254 -75.5t-133 -200.5q-6 -32 -5.5 -60t7.5 -52.5t18.5 -45.5t28.5 -39.5t36.5 -34.5t42.5 -30t48 -26t51.5 -23.5t53 -21.5t53.5 -20q1 0 1.5 -0.5t1.5 -0.5q96 -37 153 -65.5t122 -79t87 -121t5 -162.5q-33 -168 -171 -258.5
t-337 -90.5z" />
    <glyph glyph-name="uni0406" unicode="&#x406;" horiz-adv-x="456" 
d="M352 1434h76l-252 -1434h-76z" />
    <glyph glyph-name="uni0407" unicode="&#x407;" horiz-adv-x="456" 
d="M246 1593q-25 0 -39.5 17.5t-9.5 42.5q5 24 25 40.5t44 16.5q25 0 38.5 -17t8.5 -40q-5 -25 -24 -42.5t-43 -17.5zM594 1593q-25 0 -39.5 17.5t-9.5 42.5q5 24 25 40.5t44 16.5q25 0 39 -17t9 -40q-5 -25 -24.5 -42.5t-43.5 -17.5zM352 1434h76l-252 -1434h-76z" />
    <glyph glyph-name="uni0408" unicode="&#x408;" horiz-adv-x="1134" 
d="M434 -23q-154 0 -255.5 62.5t-135.5 177.5l68 35q25 -97 108 -150t219 -53q167 0 282.5 90t143.5 242l185 1053h75l-184 -1055q-34 -190 -175 -296t-331 -106z" />
    <glyph glyph-name="uni0409" unicode="&#x409;" horiz-adv-x="2041" 
d="M1575 793q171 0 274.5 -120t73.5 -290q-20 -112 -90.5 -200t-174.5 -135.5t-222 -47.5h-430l239 1364h-657l-137 -784q-57 -318 -177.5 -458.5t-318.5 -125.5l10 67q149 -15 253 104t157 415l149 852h809l-112 -641h354zM1847 395q24 141 -58.5 234.5t-225.5 93.5h-355
l-114 -653h354q144 0 259.5 91.5t139.5 233.5z" />
    <glyph glyph-name="uni040A" unicode="&#x40a;" horiz-adv-x="2023" 
d="M1559 793q170 0 273 -120t73 -290q-20 -112 -90.5 -200t-174 -135.5t-221.5 -47.5h-430l127 723h-813l-127 -723h-76l252 1434h76l-113 -641h813l113 641h74l-113 -641h357zM1831 395q24 141 -59 234.5t-226 93.5h-356l-115 -653h357q143 0 259 91.5t140 233.5z" />
    <glyph glyph-name="uni040B" unicode="&#x40b;" horiz-adv-x="1441" 
d="M983 965q175 0 264.5 -95.5t59.5 -271.5l-105 -598h-76l107 598q24 149 -43.5 223t-210.5 74q-168 0 -381 -104l-139 -791h-74l240 1364h-420l12 70h989l-12 -70h-496l-86 -496q203 97 371 97z" />
    <glyph glyph-name="uni040C" unicode="&#x40c;" horiz-adv-x="1153" 
d="M997 1827l-219 -252h-71l204 252h86zM1278 1434l-889 -703l653 -731h-90l-649 721l-127 -721h-76l252 1434h76l-119 -678l862 678h107z" />
    <glyph glyph-name="uni040E" unicode="&#x40e;" horiz-adv-x="1153" 
d="M1051 1686l-13 -62h-503l10 62h506zM1200 1434h80l-666 -1119q-107 -179 -222 -252.5t-251 -62.5l13 68q114 -9 206.5 53t178.5 207l30 53l-331 1053h69l309 -975z" />
    <glyph glyph-name="uni040F" unicode="&#x40f;" horiz-adv-x="1406" 
d="M1303 1434h73l-252 -1434h-475l-47 -274h-76l49 274h-475l252 1434h76l-240 -1364h875z" />
    <glyph glyph-name="uni0410" unicode="&#x410;" horiz-adv-x="1288" 
d="M1079 0l-80 379h-751l-215 -379h-82l813 1434h84l309 -1434h-78zM287 449h698l-190 897z" />
    <glyph glyph-name="uni0411" unicode="&#x411;" horiz-adv-x="1200" 
d="M1153 1364h-737l-92 -530h430q108 0 194 -58.5t127 -158t21 -211.5q-29 -172 -170.5 -289t-319.5 -117h-506l252 1434h813zM739 764h-428l-123 -694h430q144 0 261.5 101.5t142.5 244.5q26 147 -57 247.5t-226 100.5z" />
    <glyph glyph-name="uni0412" unicode="&#x412;" horiz-adv-x="1284" 
d="M1223 1061q-19 -108 -91 -194t-176 -128q112 -36 170 -135t37 -225q-24 -157 -150 -268t-304 -111h-609l252 1434h539q106 0 188 -49.5t121 -135.5t23 -188zM801 766q122 0 224 87.5t124 211.5q22 123 -53.5 211t-204.5 88h-475l-105 -598h490zM1090 383
q23 129 -51.5 221t-200.5 92h-539l-111 -626h529q137 0 243 91t130 222z" />
    <glyph glyph-name="uni0413" unicode="&#x413;" horiz-adv-x="1017" 
d="M1124 1434l-12 -70h-696l-240 -1364h-76l252 1434h772z" />
    <glyph glyph-name="uni0414" unicode="&#x414;" horiz-adv-x="1413" 
d="M1104 70h145l-59 -344h-76l49 274h-1134l-47 -274h-76l61 344h111q183 171 244 518l147 846h874zM395 586q-56 -333 -221 -516h854l227 1294h-723z" />
    <glyph glyph-name="uni0415" unicode="&#x415;" horiz-adv-x="1099" 
d="M1143 1364h-727l-107 -606h676l-12 -70h-676l-109 -618h738l-13 -70h-813l252 1434h803z" />
    <glyph glyph-name="uni0416" unicode="&#x416;" horiz-adv-x="1681" 
d="M1790 1434l-793 -705l553 -729h-80l-550 717l-127 -717h-76l127 721l-795 -721h-98l819 743l-541 691h82l539 -680l119 680h75l-118 -676l768 676h96z" />
    <glyph glyph-name="uni0417" unicode="&#x417;" horiz-adv-x="1122" 
d="M1087 1069q-21 -117 -96.5 -205t-195.5 -127q126 -38 185 -136.5t36 -229.5q-30 -175 -168.5 -284.5t-353.5 -109.5q-192 0 -303 82.5t-148 225.5l68 34q31 -131 125 -201.5t270 -70.5q175 0 292.5 94.5t143.5 239.5q25 137 -55 226t-244 89h-160l13 70h118
q157 0 266.5 89.5t133.5 221.5q23 136 -60 222.5t-243 86.5q-276 0 -426 -251l-60 39q166 282 498 282q187 0 290.5 -111.5t73.5 -275.5z" />
    <glyph glyph-name="uni0418" unicode="&#x418;" horiz-adv-x="1419" 
d="M100 0l252 1434h76l-227 -1291l1122 1291h68l-252 -1434h-76l227 1292l-1120 -1292h-70z" />
    <glyph glyph-name="uni0419" unicode="&#x419;" horiz-adv-x="1419" 
d="M641 1626l10 62h506l-12 -62h-504zM100 0l252 1434h76l-227 -1291l1122 1291h68l-252 -1434h-76l227 1292l-1120 -1292h-70z" />
    <glyph glyph-name="uni041A" unicode="&#x41a;" horiz-adv-x="1153" 
d="M1278 1434l-889 -703l653 -731h-90l-649 721l-127 -721h-76l252 1434h76l-119 -678l862 678h107z" />
    <glyph glyph-name="uni041B" unicode="&#x41b;" horiz-adv-x="1437" 
d="M-45 -4l10 67q149 -15 253 104t157 415l149 852h883l-252 -1434h-74l240 1364h-733l-137 -784q-58 -319 -179 -460t-317 -124z" />
    <glyph glyph-name="uni041C" unicode="&#x41c;" horiz-adv-x="1665" 
d="M1636 1434l-252 -1434h-75l231 1319l-713 -907h-18l-399 919l-234 -1331h-76l252 1434h90l392 -899l706 899h96z" />
    <glyph glyph-name="uni041D" unicode="&#x41d;" horiz-adv-x="1419" 
d="M1315 1434h76l-252 -1434h-76l123 702h-887l-123 -702h-76l252 1434h76l-117 -662h887z" />
    <glyph glyph-name="uni041E" unicode="&#x41e;" horiz-adv-x="1697" 
d="M758 -23q-151 0 -278.5 60.5t-209 161.5t-116 239.5t-7.5 288.5q35 202 161.5 369.5t312 263.5t389.5 96q151 0 278.5 -61t209 -162.5t116.5 -241t8 -289.5q-27 -151 -107.5 -285t-195 -230.5t-261.5 -153t-300 -56.5zM768 49q184 0 351.5 88.5t281 241t147.5 334.5
q31 183 -30 337t-198.5 244t-320.5 90t-350.5 -89.5t-281 -242.5t-146.5 -335t28.5 -335.5t199 -243t319.5 -89.5z" />
    <glyph glyph-name="uni041F" unicode="&#x41f;" horiz-adv-x="1406" 
d="M1376 1434l-252 -1434h-73l239 1364h-874l-240 -1364h-76l252 1434h1024z" />
    <glyph glyph-name="uni0420" unicode="&#x420;" horiz-adv-x="1193" 
d="M809 1434q197 0 301.5 -125t73.5 -312q-30 -187 -177.5 -312.5t-357.5 -125.5h-375l-98 -559h-76l252 1434h457zM1110 1004q28 158 -57 259t-248 101h-389l-129 -735h368q176 0 301.5 106t153.5 269z" />
    <glyph glyph-name="uni0421" unicode="&#x421;" horiz-adv-x="1550" 
d="M756 -23q-156 0 -283.5 59.5t-207.5 160t-112.5 239t-5.5 291.5q36 204 157 370.5t303 262.5t386 96q199 0 348.5 -92t223.5 -248l-66 -35q-66 139 -196.5 221t-311.5 82q-143 0 -275 -52.5t-232.5 -142.5t-170 -212.5t-92.5 -259.5q-24 -136 3.5 -259t97.5 -213
t183.5 -143t254.5 -53q183 0 343.5 85.5t266.5 232.5l62 -39q-114 -159 -293 -255t-383 -96z" />
    <glyph glyph-name="uni0422" unicode="&#x422;" horiz-adv-x="1105" 
d="M1212 1434l-10 -70h-463l-239 -1364h-74l240 1364h-461l12 70h995z" />
    <glyph glyph-name="uni0423" unicode="&#x423;" horiz-adv-x="1153" 
d="M1200 1434h80l-666 -1119q-107 -179 -222 -252.5t-251 -62.5l13 68q114 -9 206.5 53t178.5 207l30 53l-331 1053h69l309 -975z" />
    <glyph glyph-name="uni0424" unicode="&#x424;" horiz-adv-x="1648" 
d="M995 1274q202 -6 349.5 -71.5t221.5 -193t44 -300.5q-31 -173 -146 -297t-284 -185.5t-379 -66.5l-29 -160h-76l29 160q-151 5 -273 44t-206 109t-120 176t-13 236q22 131 93.5 234.5t179 170.5t243 103.5t291.5 40.5l28 160h76zM188 717q-41 -224 107.5 -353t441.5 -137
l170 979q-293 -8 -486.5 -136.5t-232.5 -352.5zM1534 717q39 224 -109.5 352.5t-441.5 136.5l-170 -979q294 8 488 137t233 353z" />
    <glyph glyph-name="uni0425" unicode="&#x425;" horiz-adv-x="1161" 
d="M1245 1434l-583 -705l354 -729h-78l-326 670l-557 -670h-90l613 739l-338 695h77l310 -637l528 637h90z" />
    <glyph glyph-name="uni0426" unicode="&#x426;" horiz-adv-x="1413" 
d="M1110 70h147l-61 -344h-76l49 274h-1069l252 1434h76l-240 -1364h846l240 1364h76z" />
    <glyph glyph-name="uni0427" unicode="&#x427;" horiz-adv-x="1286" 
d="M1182 1434h75l-251 -1434h-76l108 623q-194 -84 -399 -84q-234 0 -337.5 111t-74.5 286l88 498h76l-88 -498q-27 -152 58 -240t286 -88q195 0 406 92z" />
    <glyph glyph-name="uni0428" unicode="&#x428;" horiz-adv-x="1972" 
d="M1868 1434h76l-252 -1434h-1592l252 1434h76l-240 -1364h682l240 1364h76l-240 -1364h682z" />
    <glyph glyph-name="uni0429" unicode="&#x429;" horiz-adv-x="2007" 
d="M1704 70h145l-59 -344h-76l49 274h-1663l252 1434h76l-240 -1364h682l240 1364h76l-240 -1364h682l240 1364h76z" />
    <glyph glyph-name="uni042A" unicode="&#x42a;" horiz-adv-x="1406" 
d="M313 0l240 1364h-403l12 70h477l-98 -560h387q124 0 216.5 -59.5t133 -162t18.5 -224.5q-34 -188 -178.5 -308t-341.5 -120h-463zM399 70h387q161 0 285 104t152 262q28 162 -58.5 265.5t-251.5 103.5h-383z" />
    <glyph glyph-name="uni042B" unicode="&#x42b;" horiz-adv-x="1540" 
d="M100 0l252 1434h76l-98 -560h385q124 0 217 -59.5t134 -162t19 -224.5q-34 -188 -178.5 -308t-341.5 -120h-465zM1184 0l252 1434h73l-252 -1434h-73zM188 70h387q160 0 283.5 104t151.5 262q28 163 -58 267.5t-250 101.5h-385z" />
    <glyph glyph-name="uni042C" unicode="&#x42c;" horiz-adv-x="1196" 
d="M715 874q124 0 217 -59.5t134 -162t19 -224.5q-34 -188 -178.5 -308t-341.5 -120h-465l252 1434h76l-98 -560h385zM1010 436q28 163 -58 267.5t-250 101.5h-385l-129 -735h387q160 0 283.5 104t151.5 262z" />
    <glyph glyph-name="uni042D" unicode="&#x42d;" horiz-adv-x="1546" 
d="M866 1456q156 0 283.5 -60t206 -161t110 -238t4.5 -288q-26 -150 -102 -284t-187 -233t-259 -157t-310 -58q-196 0 -343.5 92.5t-211.5 249.5l68 35q56 -140 187.5 -222.5t308.5 -82.5q138 0 267.5 49.5t229.5 134.5t171.5 201t101.5 248h-834l12 70h834
q22 177 -37.5 321t-192.5 227.5t-317 83.5q-181 0 -341.5 -86t-262.5 -231l-64 39q115 160 295 255t383 95z" />
    <glyph glyph-name="uni042E" unicode="&#x42e;" horiz-adv-x="2158" 
d="M1470 1456q150 0 277.5 -61t209.5 -162.5t117.5 -241t8.5 -289.5q-27 -151 -107.5 -285t-195 -230.5t-261.5 -153t-300 -56.5q-197 0 -348 98t-222 264.5t-43 362.5h-307l-123 -702h-76l252 1434h76l-117 -662h307q46 191 171.5 347.5t305 246.5t375.5 90zM2007 713
q33 183 -28 337t-198.5 244t-320.5 90q-184 0 -352 -89.5t-281.5 -242.5t-144.5 -335q-33 -182 28 -335.5t198.5 -243t320.5 -89.5q184 0 351.5 88.5t280.5 241t146 334.5z" />
    <glyph glyph-name="uni042F" unicode="&#x42f;" horiz-adv-x="1296" 
d="M1268 1434l-252 -1434h-76l104 600h-440l-514 -600h-92l518 604q-151 22 -238 146t-59 280q31 173 169.5 288.5t322.5 115.5h557zM582 670h475l123 694h-482q-144 0 -261.5 -98.5t-143.5 -241.5q-25 -144 59.5 -249t229.5 -105z" />
    <glyph glyph-name="uni0430" unicode="&#x430;" horiz-adv-x="1339" 
d="M1186 1024h74l-181 -1024h-73l43 242q-80 -124 -210.5 -194.5t-287.5 -70.5q-143 0 -256.5 76.5t-167 206.5t-27.5 277q27 154 115.5 271t214 178t268.5 61q156 0 275 -88t160 -234zM565 47q187 0 332.5 115.5t189.5 298.5l11 67q21 192 -97.5 320.5t-304.5 128.5
q-191 0 -339.5 -123.5t-184.5 -325.5q-22 -128 22.5 -239t143.5 -176.5t227 -65.5z" />
    <glyph glyph-name="uni0431" unicode="&#x431;" horiz-adv-x="1179" 
d="M518 -23q-106 0 -193.5 37.5t-146 105t-82 166.5t-2.5 216q21 126 49.5 211.5t82 166.5t139 144.5t213.5 122.5q59 26 141 58t129 51t98.5 47.5t83 65t49.5 85.5l56 -33q-20 -54 -56 -95.5t-94.5 -74.5t-107.5 -54.5t-135.5 -54.5t-137.5 -55q-172 -76 -261.5 -166.5
t-135.5 -246.5q97 128 227.5 192t263.5 64q95 0 176.5 -37t136 -100t77.5 -154t4 -193q-35 -207 -195 -338t-379 -131zM526 47q186 0 324.5 114t169.5 292t-65.5 293.5t-272.5 115.5q-167 0 -314 -103t-202 -265q-35 -199 66 -323t294 -124z" />
    <glyph glyph-name="uni0432" unicode="&#x432;" horiz-adv-x="1050" 
d="M969 756q-29 -169 -185 -228q89 -27 127 -95.5t23 -160.5q-22 -123 -112 -197.5t-247 -74.5h-495l180 1024h459q135 0 203 -77.5t47 -190.5zM631 557q107 0 178 53.5t88 147.5q15 93 -35 145.5t-155 52.5h-385l-70 -399h379zM862 281q17 97 -36.5 152.5t-166.5 55.5h-419
l-74 -421h422q110 0 182.5 56.5t91.5 156.5z" />
    <glyph glyph-name="uni0433" unicode="&#x433;" horiz-adv-x="815" 
d="M889 1024l-12 -68h-555l-168 -956h-74l180 1024h629z" />
    <glyph glyph-name="uni0434" unicode="&#x434;" horiz-adv-x="1210" 
d="M911 68h146l-64 -342h-71l49 274h-934l-49 -274h-72l61 342h113q77 87 123 188t72 248l90 520h704zM184 68h656l155 888h-559l-80 -452q-47 -266 -172 -436z" />
    <glyph glyph-name="uni0435" unicode="&#x435;" horiz-adv-x="1214" 
d="M705 1047q115 0 204.5 -44.5t141 -119t70.5 -171t1 -202.5q-1 -6 -4 -18.5t-4 -18.5h-950q-22 -192 83.5 -309t297.5 -117q131 0 239 53t172 146l58 -37q-75 -109 -202.5 -170.5t-276.5 -61.5q-232 0 -356 155.5t-83 389.5q40 228 210 376.5t399 148.5zM174 541h881
q24 201 -75 318.5t-280 117.5q-192 0 -337.5 -120.5t-188.5 -315.5z" />
    <glyph glyph-name="uni0436" unicode="&#x436;" horiz-adv-x="1333" 
d="M1354 1024l-578 -498l412 -526h-80l-403 514l-91 -514h-71l90 512l-578 -512h-90l604 539l-399 485h82l387 -473l84 473h72l-84 -473l549 473h94z" />
    <glyph glyph-name="uni0437" unicode="&#x437;" horiz-adv-x="911" 
d="M829 760q-14 -81 -63.5 -142.5t-132.5 -91.5q91 -30 133 -103.5t27 -164.5q-23 -121 -132 -201t-286 -80q-160 0 -246 64t-106 176l63 33q26 -203 299 -203q136 0 226.5 61.5t109.5 161.5q17 99 -41 159t-176 60h-133l12 68h96q111 0 186.5 57t92.5 152q15 93 -49 152
t-183 59q-110 0 -193 -47t-130 -131l-56 37q57 96 156 153.5t234 57.5q152 0 232.5 -86.5t59.5 -200.5z" />
    <glyph glyph-name="uni0438" unicode="&#x438;" horiz-adv-x="1173" 
d="M1028 1024h66l-181 -1024h-71l157 899l-854 -899h-65l180 1024h74l-160 -899z" />
    <glyph glyph-name="uni0439" unicode="&#x439;" horiz-adv-x="1173" 
d="M461 1217l10 61h506l-12 -61h-504zM1028 1024h66l-181 -1024h-71l157 899l-854 -899h-65l180 1024h74l-160 -899z" />
    <glyph glyph-name="uni043A" unicode="&#x43a;" horiz-adv-x="966" 
d="M989 1024l-667 -494l499 -530h-90l-487 516l-90 -516h-74l180 1024h74l-82 -469l631 469h106z" />
    <glyph glyph-name="uni043B" unicode="&#x43b;" 
d="M1087 1024l-180 -1024h-73l167 956h-565l-94 -534q-23 -129 -62 -217t-92.5 -133t-111.5 -61.5t-131 -10.5l10 68q126 -11 203 74.5t112 279.5l105 602h712z" />
    <glyph glyph-name="uni043C" unicode="&#x43c;" horiz-adv-x="1316" 
d="M1237 1024l-180 -1024h-72l162 920l-522 -629h-13l-297 629l-161 -920h-74l180 1024h82l291 -612l512 612h92z" />
    <glyph glyph-name="uni043D" unicode="&#x43d;" horiz-adv-x="1173" 
d="M1022 1024h72l-181 -1024h-71l84 477h-688l-84 -477h-74l180 1024h74l-84 -477h688z" />
    <glyph glyph-name="uni043E" unicode="&#x43e;" horiz-adv-x="1263" 
d="M543 -23q-107 0 -198.5 41t-153 111.5t-88 172.5t-5.5 218q27 155 122.5 277t228 186t276.5 64q106 0 196.5 -41t151 -112t86.5 -173t6 -217q-27 -155 -120.5 -277t-225 -186t-276.5 -64zM549 47q193 0 351.5 132t193.5 335q18 100 -4 187t-74 147t-130.5 94.5
t-170.5 34.5q-126 0 -241.5 -58.5t-197.5 -165.5t-106 -241q-17 -101 5 -189t74 -148t130 -94.5t170 -33.5z" />
    <glyph glyph-name="uni043F" unicode="&#x43f;" horiz-adv-x="1173" 
d="M1094 1024l-181 -1024h-71l168 956h-688l-168 -956h-74l180 1024h834z" />
    <glyph glyph-name="uni0440" unicode="&#x440;" horiz-adv-x="1339" 
d="M788 1047q142 0 255.5 -76.5t167.5 -206.5t28 -277q-27 -154 -115.5 -271t-214 -178t-268.5 -61q-155 0 -274 87.5t-160 232.5l-125 -707h-74l252 1434h74l-43 -242q83 125 212 195t285 70zM1167 496q22 128 -22.5 239t-143.5 176.5t-227 65.5q-186 0 -331 -115
t-189 -297l-14 -71q-18 -192 100 -319.5t303 -127.5q192 0 340.5 123.5t183.5 325.5z" />
    <glyph glyph-name="uni0441" unicode="&#x441;" horiz-adv-x="1169" 
d="M539 -23q-149 0 -259.5 73t-159 198.5t-22.5 275.5q40 226 217.5 374.5t407.5 148.5q148 0 257.5 -69.5t149.5 -186.5l-63 -33q-33 101 -125.5 160t-226.5 59q-199 0 -354.5 -133t-190.5 -330q-22 -129 18 -235.5t135 -169t226 -62.5q132 0 247 60.5t183 162.5l57 -37
q-78 -121 -209 -188.5t-288 -67.5z" />
    <glyph glyph-name="uni0442" unicode="&#x442;" horiz-adv-x="901" 
d="M956 1024l-10 -68h-381l-168 -956h-73l168 956h-379l12 68h831z" />
    <glyph glyph-name="uni0443" unicode="&#x443;" horiz-adv-x="1044" 
d="M1020 1024h80l-639 -1118q-90 -156 -209 -241t-248 -75l12 68q102 -10 200.5 61.5t172.5 202.5l27 45l-291 1057h72l266 -975z" />
    <glyph glyph-name="uni0444" unicode="&#x444;" horiz-adv-x="1376" 
d="M819 1049q159 -9 273 -83.5t162.5 -196.5t23.5 -267q-39 -221 -217 -368t-430 -159l-68 -385h-74l68 385q-159 9 -273 83.5t-162.5 196.5t-23.5 267q38 221 217 368t430 159l68 385h74zM170 512q-34 -195 75.5 -326t323.5 -143l164 938q-217 -12 -373 -143t-190 -326z
M1206 512q34 195 -75.5 326t-323.5 143l-164 -938q216 12 372.5 143.5t190.5 325.5z" />
    <glyph glyph-name="uni0445" unicode="&#x445;" horiz-adv-x="1030" 
d="M1044 1024l-483 -502l326 -522h-82l-293 471l-455 -471h-92l510 530l-307 494h80l276 -442l426 442h94z" />
    <glyph glyph-name="uni0446" unicode="&#x446;" horiz-adv-x="1222" 
d="M905 68h164l-61 -342h-72l49 274h-905l180 1024h74l-170 -956h667l170 956h72z" />
    <glyph glyph-name="uni0447" unicode="&#x447;" horiz-adv-x="1112" 
d="M961 1024h71l-180 -1024h-72l72 410q-186 -68 -342 -68q-195 0 -285.5 96.5t-62.5 257.5l57 328h74l-57 -328q-24 -133 45.5 -210.5t226.5 -77.5q153 0 356 73z" />
    <glyph glyph-name="uni0448" unicode="&#x448;" horiz-adv-x="1685" 
d="M1534 1024h72l-181 -1024h-1345l180 1024h74l-168 -956h563l168 956h72l-168 -956h565z" />
    <glyph glyph-name="uni0449" unicode="&#x449;" horiz-adv-x="1734" 
d="M1438 68h143l-61 -342h-72l47 274h-1415l180 1024h74l-168 -956h563l168 956h72l-168 -956h565l168 956h72z" />
    <glyph glyph-name="uni044A" unicode="&#x44a;" horiz-adv-x="1105" 
d="M715 618q136 0 220.5 -89t59.5 -226q-24 -138 -134.5 -220.5t-254.5 -82.5h-395l168 956h-301l12 68h373l-72 -406h324zM922 311q20 104 -44 172t-176 68h-323l-84 -483h321q113 0 200 68.5t106 174.5z" />
    <glyph glyph-name="uni044B" unicode="&#x44b;" horiz-adv-x="1314" 
d="M586 618q134 0 218.5 -89.5t59.5 -225.5q-24 -138 -134.5 -220.5t-254.5 -82.5h-395l180 1024h74l-72 -406h324zM1161 1024h74l-180 -1024h-74zM793 311q20 105 -44 172.5t-178 67.5h-321l-84 -483h321q113 0 200 68.5t106 174.5z" />
    <glyph glyph-name="uni044C" unicode="&#x44c;" horiz-adv-x="976" 
d="M586 618q134 0 218.5 -89.5t59.5 -225.5q-24 -138 -134.5 -220.5t-254.5 -82.5h-395l180 1024h74l-72 -406h324zM793 311q20 105 -44 172.5t-178 67.5h-321l-84 -483h321q113 0 200 68.5t106 174.5z" />
    <glyph glyph-name="uni044D" unicode="&#x44d;" horiz-adv-x="1169" 
d="M631 1047q113 0 205.5 -43t150 -116.5t81 -174.5t3.5 -213q-40 -226 -217.5 -374.5t-407.5 -148.5q-148 0 -257.5 69.5t-149.5 186.5l63 33q33 -102 125.5 -160.5t227.5 -58.5q190 0 341 122t197 308h-549l15 70h545q21 185 -85 307.5t-298 122.5q-132 0 -247.5 -60.5
t-183.5 -162.5l-57 37q78 121 209 188.5t289 67.5z" />
    <glyph glyph-name="uni044E" unicode="&#x44e;" horiz-adv-x="1652" 
d="M1114 1047q106 0 196.5 -41t151 -112t86.5 -173t6 -217q-27 -155 -121 -277t-225.5 -186t-275.5 -64q-209 0 -339.5 141t-109.5 359h-245l-84 -477h-74l180 1024h74l-84 -477h246q32 149 126 264t222.5 175.5t269.5 60.5zM1483 514q18 100 -4 187t-74 147t-130.5 94.5
t-170.5 34.5q-126 0 -241.5 -58.5t-197.5 -165.5t-106 -241q-18 -101 4 -189t74 -148t130.5 -94.5t170.5 -33.5q193 0 351 132t194 335z" />
    <glyph glyph-name="uni044F" unicode="&#x44f;" horiz-adv-x="1024" 
d="M944 1024l-180 -1024h-74l72 408h-266l-398 -408h-92l402 410q-123 11 -197.5 97.5t-50.5 213.5q24 137 135.5 220t253.5 83h395zM453 473h321l84 483h-321q-113 0 -200 -68.5t-106 -174.5q-20 -105 43.5 -172.5t178.5 -67.5z" />
    <glyph glyph-name="uni0451" unicode="&#x451;" horiz-adv-x="1214" 
d="M561 1184q-25 0 -39 17t-10 42q5 23 25 40t45 17t38.5 -17t8.5 -40q-5 -25 -24 -42t-44 -17zM909 1184q-25 0 -39 17t-10 42q5 23 25 40t45 17t38.5 -17t8.5 -40q-5 -25 -24 -42t-44 -17zM705 1047q115 0 204.5 -44.5t141 -119t70.5 -171t1 -202.5q-1 -6 -4 -18.5
t-4 -18.5h-950q-22 -192 83.5 -309t297.5 -117q131 0 239 53t172 146l58 -37q-75 -109 -202.5 -170.5t-276.5 -61.5q-232 0 -356 155.5t-83 389.5q40 228 210 376.5t399 148.5zM174 541h881q24 201 -75 318.5t-280 117.5q-192 0 -337.5 -120.5t-188.5 -315.5z" />
    <glyph glyph-name="uni0452" unicode="&#x452;" horiz-adv-x="1200" 
d="M752 1047q177 0 268.5 -111.5t60.5 -292.5l-139 -793q-27 -151 -117.5 -224t-244.5 -58l12 70q234 -26 276 212l142 793q25 150 -45.5 242t-223.5 92q-169 0 -295.5 -115t-162.5 -317l-97 -545h-71l211 1206h-156l10 60h158l29 168h71l-28 -168h344l-11 -60h-346
l-69 -397q74 118 186 178t238 60z" />
    <glyph glyph-name="uni0453" unicode="&#x453;" horiz-adv-x="815" 
d="M776 1419l-219 -252h-72l205 252h86zM889 1024l-12 -68h-555l-168 -956h-74l180 1024h629z" />
    <glyph glyph-name="uni0454" unicode="&#x454;" horiz-adv-x="1169" 
d="M715 977q-190 0 -341.5 -122t-197.5 -308h549l-14 -70h-545q-21 -184 86 -307t297 -123q132 0 247 60.5t183 162.5l57 -37q-78 -121 -209 -188.5t-288 -67.5q-149 0 -259.5 73t-159 198.5t-22.5 275.5q40 226 217.5 374.5t407.5 148.5q148 0 257.5 -69.5t149.5 -186.5
l-63 -33q-33 101 -125.5 160t-226.5 59z" />
    <glyph glyph-name="uni0455" unicode="&#x455;" horiz-adv-x="960" 
d="M418 -23q-147 0 -237.5 60t-125.5 166l66 33q56 -189 303 -189q122 0 208 52t103 147q9 50 -6 88.5t-48 63.5t-78.5 44t-96.5 34.5t-101.5 32t-95 39.5t-76.5 53t-46 76.5t-3 106.5q22 119 124 191t247 72q115 0 203 -54t125 -147l-64 -33q-27 77 -100.5 120.5
t-167.5 43.5q-111 0 -194 -52.5t-101 -152.5q-9 -53 12 -93t62.5 -62.5t96 -43.5t112.5 -36t111.5 -40t93.5 -56t58.5 -83.5t6.5 -121.5q-23 -121 -129.5 -190t-261.5 -69z" />
    <glyph glyph-name="uni0456" unicode="&#x456;" horiz-adv-x="413" 
d="M346 1303q-27 0 -42.5 19t-10.5 44q6 28 27 47t49 19q27 0 42.5 -19.5t10.5 -46.5q-5 -26 -26.5 -44.5t-49.5 -18.5zM80 0l180 1024h74l-180 -1024h-74z" />
    <glyph glyph-name="uni0457" unicode="&#x457;" horiz-adv-x="413" 
d="M152 1184q-25 0 -39.5 17t-10.5 42q5 23 25 40t45 17t38.5 -17t8.5 -40q-5 -25 -24 -42t-43 -17zM500 1184q-25 0 -39 17t-10 42q5 24 25 40.5t44 16.5q25 0 38.5 -17t8.5 -40q-5 -25 -24 -42t-43 -17zM80 0l180 1024h74l-180 -1024h-74z" />
    <glyph glyph-name="uni0458" unicode="&#x458;" horiz-adv-x="442" 
d="M397 1432q27 0 43 -19.5t11 -46.5q-5 -26 -26.5 -44.5t-49.5 -18.5q-27 0 -42.5 19t-10.5 44q6 28 26.5 47t48.5 19zM82 -150l207 1174h73l-206 -1174q-57 -311 -363 -282l12 70q236 -26 277 212z" />
    <glyph glyph-name="uni0459" unicode="&#x459;" horiz-adv-x="1675" 
d="M1294 578q130 0 210 -81t55 -216t-127.5 -208t-239.5 -73h-379l168 956h-545l-94 -534q-22 -129 -61.5 -217t-92.5 -133.5t-112 -61.5t-131 -10l10 68q127 -12 203 71.5t112 282.5l105 602h692l-78 -446h305zM1487 291q18 103 -39.5 161t-165.5 58h-305l-78 -442h305
q106 0 185.5 59.5t97.5 163.5z" />
    <glyph glyph-name="uni045A" unicode="&#x45a;" horiz-adv-x="1660" 
d="M1280 578q130 0 209.5 -81t54.5 -216q-25 -136 -126.5 -208.5t-239.5 -72.5h-377l90 510h-647l-90 -510h-74l180 1024h74l-78 -446h647l78 446h72l-78 -446h305zM1473 291q18 103 -39.5 161t-165.5 58h-305l-78 -442h305q107 0 186 59.5t97 163.5z" />
    <glyph glyph-name="uni045B" unicode="&#x45b;" horiz-adv-x="1200" 
d="M752 1047q177 0 268.5 -111.5t60.5 -292.5l-112 -643h-74l115 643q25 150 -45.5 242t-223.5 92q-169 0 -295.5 -115t-162.5 -317l-97 -545h-71l211 1206h-156l10 60h158l29 168h71l-28 -168h344l-11 -60h-346l-69 -397q74 118 186 178t238 60z" />
    <glyph glyph-name="uni045C" unicode="&#x45c;" horiz-adv-x="966" 
d="M817 1419l-219 -252h-72l205 252h86zM989 1024l-667 -494l499 -530h-90l-487 516l-90 -516h-74l180 1024h74l-82 -469l631 469h106z" />
    <glyph glyph-name="uni045E" unicode="&#x45e;" horiz-adv-x="1044" 
d="M883 1278l-13 -61h-503l10 61h506zM1020 1024h80l-639 -1118q-90 -156 -209 -241t-248 -75l12 68q102 -10 200.5 61.5t172.5 202.5l27 45l-291 1057h72l266 -975z" />
    <glyph glyph-name="uni045F" unicode="&#x45f;" horiz-adv-x="1173" 
d="M1022 1024h72l-181 -1024h-381l-49 -274h-71l49 274h-381l180 1024h74l-168 -956h688z" />
    <glyph glyph-name="uni0490" unicode="&#x490;" horiz-adv-x="1017" 
d="M1094 1679h75l-57 -315h-696l-240 -1364h-76l252 1434h699z" />
    <glyph glyph-name="uni0491" unicode="&#x491;" horiz-adv-x="815" 
d="M854 1237h72l-49 -281h-555l-168 -956h-74l180 1024h557z" />
    <glyph glyph-name="Wgrave" unicode="&#x1e80;" horiz-adv-x="2021" 
d="M1260 1577l-123 252h-82l139 -252h66zM401 0l-163 1434h71l152 -1338l663 1338h88l195 -1338l621 1338h79l-667 -1434h-90l-195 1337l-663 -1337h-91z" />
    <glyph glyph-name="wgrave" unicode="&#x1e81;" horiz-adv-x="1576" 
d="M903 1167h-65l-140 252h82zM1513 1024h78l-508 -1024h-79l-144 926l-467 -926h-80l-147 1024h70l131 -930l471 930h75l142 -932z" />
    <glyph glyph-name="Wacute" unicode="&#x1e82;" horiz-adv-x="2021" 
d="M1130 1577h72l219 252h-86zM401 0l-163 1434h71l152 -1338l663 1338h88l195 -1338l621 1338h79l-667 -1434h-90l-195 1337l-663 -1337h-91z" />
    <glyph glyph-name="wacute" unicode="&#x1e83;" horiz-adv-x="1576" 
d="M1065 1419l-219 -252h-72l205 252h86zM1513 1024h78l-508 -1024h-79l-144 926l-467 -926h-80l-147 1024h70l131 -930l471 930h75l142 -932z" />
    <glyph glyph-name="Wdieresis" unicode="&#x1e84;" horiz-adv-x="2021" 
d="M1026 1593q-25 0 -39.5 17.5t-9.5 42.5q5 23 25 40t45 17t38.5 -17t8.5 -40q-5 -25 -24.5 -42.5t-43.5 -17.5zM1374 1593q-25 0 -39.5 17.5t-9.5 42.5q5 23 25 40t45 17t38.5 -17t8.5 -40q-5 -25 -24.5 -42.5t-43.5 -17.5zM401 0l-163 1434h71l152 -1338l663 1338h88
l195 -1338l621 1338h79l-667 -1434h-90l-195 1337l-663 -1337h-91z" />
    <glyph glyph-name="wdieresis" unicode="&#x1e85;" horiz-adv-x="1576" 
d="M670 1184q-25 0 -39 17t-10 42q5 24 25 40.5t44 16.5q25 0 38.5 -17t8.5 -40q-5 -25 -24 -42t-43 -17zM1018 1184q-25 0 -39 17t-10 42q5 24 25 40.5t44 16.5q25 0 38.5 -17t8.5 -40q-5 -25 -24 -42t-43 -17zM1513 1024h78l-508 -1024h-79l-144 926l-467 -926h-80
l-147 1024h70l131 -930l471 930h75l142 -932z" />
    <glyph glyph-name="Ygrave" unicode="&#x1ef2;" horiz-adv-x="1157" 
d="M825 1577h-65l-139 252h81zM1284 1434l-641 -762l-117 -672h-75l118 672l-372 762h77l340 -695l584 695h86z" />
    <glyph glyph-name="ygrave" unicode="&#x1ef3;" horiz-adv-x="1044" 
d="M672 1167h-66l-139 252h82zM1020 1024h80l-639 -1118q-90 -156 -209 -241t-248 -75l12 68q102 -10 200.5 61.5t172.5 202.5l27 45l-291 1057h72l266 -975z" />
    <glyph glyph-name="endash" unicode="&#x2013;" horiz-adv-x="1394" 
d="M207 598l12 70h1012l-12 -70h-1012z" />
    <glyph glyph-name="emdash" unicode="&#x2014;" horiz-adv-x="1599" 
d="M207 598l12 70h1217l-13 -70h-1216z" />
    <glyph glyph-name="quoteleft" unicode="&#x2018;" horiz-adv-x="423" 
d="M223 1040l166 394h68l-144 -394h-90z" />
    <glyph glyph-name="quoteright" unicode="&#x2019;" horiz-adv-x="423" 
d="M455 1434l-166 -394h-68l144 394h90z" />
    <glyph glyph-name="quotesinglbase" unicode="&#x201a;" horiz-adv-x="423" 
d="M221 106l-166 -393h-67l143 393h90z" />
    <glyph glyph-name="quotedblleft" unicode="&#x201c;" horiz-adv-x="655" 
d="M223 1040l166 394h68l-144 -394h-90zM455 1040l166 394h67l-143 -394h-90z" />
    <glyph glyph-name="quotedblright" unicode="&#x201d;" horiz-adv-x="655" 
d="M455 1434l-166 -394h-68l144 394h90zM686 1434l-166 -394h-67l143 394h90z" />
    <glyph glyph-name="quotedblbase" unicode="&#x201e;" horiz-adv-x="655" 
d="M221 106l-166 -393h-67l143 393h90zM453 106l-166 -393h-68l143 393h91z" />
    <glyph glyph-name="dagger" unicode="&#x2020;" horiz-adv-x="956" 
d="M915 1065l-10 -70h-307l-174 -995h-72l174 995h-305l12 70h306l65 369h72l-66 -369h305z" />
    <glyph glyph-name="daggerdbl" unicode="&#x2021;" horiz-adv-x="956" 
d="M905 995h-307l-96 -557h303l-10 -69h-306l-65 -369h-72l66 369h-307l12 69h307l96 557h-305l12 70h306l65 369h72l-66 -369h305z" />
    <glyph glyph-name="bullet" unicode="&#x2022;" horiz-adv-x="534" 
d="M279 567q-64 0 -100 46.5t-25 111.5q10 61 60.5 101t115.5 40q63 0 98.5 -45t24.5 -108q-10 -63 -60.5 -104.5t-113.5 -41.5z" />
    <glyph glyph-name="ellipsis" unicode="&#x2026;" horiz-adv-x="1181" 
d="M106 -20q-29 0 -46 21t-11 52t29 50.5t55 19.5q29 0 46 -21.5t11 -52.5t-29 -50t-55 -19zM496 -20q-30 0 -47 21.5t-11 51.5q6 31 29 50.5t55 19.5q29 0 46.5 -21.5t11.5 -52.5t-29 -50t-55 -19zM885 -20q-30 0 -47 21.5t-11 51.5q6 31 29 50.5t55 19.5q29 0 46.5 -21.5
t11.5 -52.5t-29 -50t-55 -19z" />
    <glyph glyph-name="perthousand" unicode="&#x2030;" horiz-adv-x="2228" 
d="M512 846q-133 0 -209 91.5t-53 219.5q23 129 126 214t240 85q132 0 208 -91.5t53 -219.5q-23 -129 -125.5 -214t-239.5 -85zM520 911q106 0 187 68.5t98 171.5q19 102 -38 171t-161 69q-105 0 -186 -69t-98 -171q-19 -102 37.5 -171t160.5 -69zM158 174l1177 1112l54 -31
l-1178 -1112zM938 -23q-133 0 -209 92t-53 220q23 129 126 214t240 85q132 0 208 -92t53 -220q-23 -129 -125.5 -214t-239.5 -85zM1686 -23q-133 0 -209.5 92t-53.5 220q23 129 126.5 214t240.5 85q131 0 207 -92t53 -220q-24 -129 -125.5 -214t-238.5 -85zM946 43
q106 0 187 68.5t98 171.5q19 102 -38 170.5t-161 68.5q-105 0 -186 -68.5t-98 -170.5q-19 -102 37.5 -171t160.5 -69zM1694 43q105 0 186 68.5t98 171.5q19 102 -37.5 170.5t-160.5 68.5q-105 0 -186.5 -68.5t-98.5 -170.5q-19 -102 38 -171t161 -69z" />
    <glyph glyph-name="guilsinglleft" unicode="&#x2039;" horiz-adv-x="671" 
d="M569 975l-276 -348l149 -336h-86l-151 342l272 342h92z" />
    <glyph glyph-name="guilsinglright" unicode="&#x203a;" horiz-adv-x="673" 
d="M358 975l152 -342l-272 -342h-93l277 348l-150 336h86z" />
    <glyph glyph-name="fraction" unicode="&#x2044;" horiz-adv-x="477" 
d="M-233 0h-76l1091 1434h76z" />
    <glyph glyph-name="Euro" unicode="&#x20ac;" horiz-adv-x="1253" 
d="M918 1456q142 0 239 -72t137 -202l-67 -35q-32 115 -114 176t-204 61q-180 0 -320 -130.5t-212 -366.5h575l-10 -66h-584q-16 -64 -22 -104q-6 -35 -14 -101h583l-10 -63h-578q-12 -238 81 -371t274 -133q124 0 228 62.5t175 179.5l62 -37q-83 -133 -205.5 -205
t-272.5 -72q-211 0 -320 155.5t-97 420.5h-181l13 63h172q2 32 14 107q8 45 21 98h-172l12 66h178q79 265 241 417t378 152z" />
    <glyph glyph-name="uni20BD" unicode="&#x20bd;" horiz-adv-x="1155" 
d="M831 1434q81 0 152 -34.5t118 -92t67.5 -136.5t5.5 -163q-31 -172 -171.5 -290t-318.5 -118h-397l-39 -229h559l-10 -66h-561l-54 -305h-73l53 305h-185l11 66h186l39 229h-184l12 70h184l135 764h471zM1100 1018q26 142 -57 244t-224 102h-397l-123 -694h397
q142 0 260.5 102.5t143.5 245.5z" />
    <glyph glyph-name="uni2116" unicode="&#x2116;" horiz-adv-x="2095" 
d="M1761 868q-124 0 -196 88.5t-52 210.5q24 123 123.5 206t229.5 83q126 0 198 -88t50 -211q-22 -124 -119 -206.5t-234 -82.5zM100 0l252 1434h66l669 -1299l228 1299h76l-252 -1434h-64l-669 1298l-230 -1298h-76zM1774 934q99 0 175 65t93 164q17 96 -37 162t-152 66
q-96 0 -173.5 -66t-94.5 -162q-17 -97 36.5 -163t152.5 -66zM1440 618l12 68h557l-14 -68h-555z" />
    <glyph glyph-name="trademark" unicode="&#x2122;" horiz-adv-x="1007" 
d="M575 1382h-122l-64 -358h-53l63 358h-123l9 52h301zM1047 1434l-72 -410h-55l55 313l-182 -227h-9l-100 231l-55 -317h-54l72 410h53l101 -236l184 236h62z" />
    <glyph glyph-name="estimated" unicode="&#x212e;" horiz-adv-x="1734" 
d="M1032 1454q163 0 295 -58t213.5 -157t114.5 -235t6 -287q-6 -31 -37 -31h-1147q-31 0 -37 -31l-67 -393q-5 -22 6 -39q140 -182 446 -182q294 0 512 199q18 18 39 18h72q21 0 25 -12t-13 -27q-267 -239 -647 -239q-102 0 -193.5 20.5t-163.5 58t-131.5 91t-98.5 118.5
t-63.5 140.5t-27 158t11.5 170.5q27 152 104.5 284t191.5 227.5t266.5 150.5t322.5 55zM1436 1176q3 21 -9 38q-138 179 -405 179q-264 0 -469 -183q-18 -18 -21 -39l-69 -393q-6 -30 24 -30h840q31 0 37 30z" />
    <glyph glyph-name="oneeighth" unicode="&#x215b;" horiz-adv-x="1695" 
d="M295 614l129 734l-236 -78l-10 63l283 101h49l-145 -820h-70zM1286 1434h76l-1092 -1434h-75zM1616 612q-10 -63 -54.5 -110.5t-109.5 -73.5q66 -30 98 -88.5t19 -134.5q-19 -106 -107 -168t-215 -62q-125 0 -196.5 67t-51.5 173q13 77 66.5 133.5t132.5 83.5
q-55 27 -82.5 77t-17.5 114q20 105 103 163t194 58q107 0 173.5 -64t47.5 -168zM1546 616q13 76 -32.5 120t-127.5 44q-84 0 -145 -44t-74 -120q-12 -70 35 -112.5t127 -42.5q79 0 142 42.5t75 112.5zM1501 215q13 83 -37.5 131.5t-144.5 48.5q-98 0 -166.5 -48.5
t-81.5 -131.5q-15 -79 36 -126.5t148 -47.5t164 47.5t82 126.5z" />
    <glyph glyph-name="threeeighths" unicode="&#x215c;" horiz-adv-x="1900" 
d="M680 840q-19 -111 -105 -180.5t-219 -69.5q-195 0 -247 158l61 32q34 -125 195 -125q102 0 167.5 55t79.5 138q13 83 -33 136.5t-147 53.5h-6l-25 52l254 278h-415l10 66h502l-11 -66l-252 -274q105 -13 157 -85t34 -169zM1491 1434h76l-1092 -1434h-76zM1821 612
q-10 -63 -54.5 -110.5t-109.5 -73.5q66 -30 98 -88.5t19 -134.5q-19 -106 -107 -168t-215 -62q-125 0 -196.5 67t-51.5 173q13 77 66.5 133.5t132.5 83.5q-55 27 -82.5 77t-17.5 114q20 105 102.5 163t193.5 58q107 0 174 -64t48 -168zM1751 616q13 76 -32.5 120t-127.5 44
q-84 0 -145 -44t-74 -120q-12 -70 35 -112.5t127 -42.5q79 0 142 42.5t75 112.5zM1706 215q13 83 -37.5 131.5t-144.5 48.5q-98 0 -166.5 -48.5t-81.5 -131.5q-15 -79 36 -126.5t148 -47.5t164 47.5t82 126.5z" />
    <glyph glyph-name="fiveeighths" unicode="&#x215d;" horiz-adv-x="1886" 
d="M674 840q-20 -113 -107 -181.5t-215 -68.5q-190 0 -243 155l61 31q32 -121 190 -121q96 0 162.5 52t83.5 141q15 89 -33.5 141.5t-144.5 52.5h-233l100 392h448l-10 -64h-387l-67 -262h161q120 0 187 -76.5t47 -191.5zM1477 1434h75l-1091 -1434h-76zM1806 612
q-10 -63 -54.5 -110.5t-109.5 -73.5q66 -30 98 -88.5t19 -134.5q-19 -106 -106.5 -168t-214.5 -62q-125 0 -196.5 67t-51.5 173q13 77 66.5 133.5t132.5 83.5q-55 27 -83 77t-18 114q20 105 103 163t194 58q107 0 173.5 -64t47.5 -168zM1737 616q13 76 -32.5 120t-127.5 44
q-84 0 -145 -44t-74 -120q-12 -70 35 -112.5t127 -42.5q79 0 142 42.5t75 112.5zM1692 215q13 83 -38 131.5t-145 48.5q-98 0 -166 -48t-81 -132q-15 -79 36 -126.5t148 -47.5t164 47.5t82 126.5z" />
    <glyph glyph-name="seveneighths" unicode="&#x215e;" horiz-adv-x="1853" 
d="M754 1434l-9 -56l-462 -764h-78l457 754h-463l10 66h545zM1444 1434h76l-1092 -1434h-76zM1774 612q-10 -63 -54.5 -110.5t-109.5 -73.5q66 -30 97.5 -88.5t18.5 -134.5q-19 -106 -106.5 -168t-214.5 -62q-125 0 -196.5 67t-51.5 173q13 77 66.5 133.5t132.5 83.5
q-55 27 -83 77t-18 114q20 105 103 163t194 58q107 0 174 -64t48 -168zM1704 616q13 76 -32.5 120t-127.5 44q-84 0 -145 -44t-74 -120q-12 -70 35 -112.5t127 -42.5q79 0 142 42.5t75 112.5zM1659 215q13 83 -37.5 131.5t-144.5 48.5q-98 0 -166.5 -48.5t-81.5 -131.5
q-15 -79 36 -126.5t148 -47.5t164 47.5t82 126.5z" />
    <glyph glyph-name="arrowleft" unicode="&#x2190;" horiz-adv-x="1705" 
d="M1612 752l-13 -70h-1304l477 -580h-92l-506 615l723 614h100l-682 -579h1297z" />
    <glyph glyph-name="arrowup" unicode="&#x2191;" horiz-adv-x="1501" 
d="M1419 819l-16 -94l-475 580l-232 -1305h-71l227 1292l-680 -577l18 104l723 615z" />
    <glyph glyph-name="arrowright" unicode="&#x2192;" horiz-adv-x="1705" 
d="M1102 1331l506 -614l-721 -615h-103l678 580h-1296l12 70h1307l-475 579h92z" />
    <glyph glyph-name="arrowdown" unicode="&#x2193;" horiz-adv-x="1501" 
d="M723 139l678 578l-19 -103l-720 -614l-506 614l14 91l477 -578l230 1307h71z" />
    <glyph glyph-name="arrowboth" unicode="&#x2194;" horiz-adv-x="2103" 
d="M1593 1214l410 -497l-586 -498h-104l545 463h-1565l381 -463h-92l-408 498l584 497h104l-545 -462h1565l-381 462h92z" />
    <glyph glyph-name="arrowupdn" unicode="&#x2195;" horiz-adv-x="1296" 
d="M1239 1040l-379 461l-278 -1562l544 464l-18 -104l-586 -498l-407 498l14 94l377 -459l280 1561l-542 -465l18 105l582 497l411 -497z" />
    <glyph glyph-name="uni2196" unicode="&#x2196;" horiz-adv-x="1312" 
d="M1184 1133h-824l762 -922l-57 -47l-758 923l-145 -823l-56 70l154 868h868z" />
    <glyph glyph-name="uni2197" unicode="&#x2197;" horiz-adv-x="1312" 
d="M430 1202h866l-153 -868l-82 -70l141 813l-1073 -915l-45 55l1077 916h-813z" />
    <glyph glyph-name="uni2198" unicode="&#x2198;" horiz-adv-x="1312" 
d="M1214 1120l56 -69l-152 -869h-868l-57 70h819l-758 922l55 47l760 -924z" />
    <glyph glyph-name="uni2199" unicode="&#x2199;" horiz-adv-x="1312" 
d="M1290 1165l-1077 -913h815l-80 -70h-868l151 869l82 69l-143 -815l1075 916z" />
    <glyph glyph-name="partialdiff" unicode="&#x2202;" horiz-adv-x="1185" 
d="M647 1456q115 0 210 -53.5t155 -151.5t81.5 -236t-8.5 -308q-63 -350 -238.5 -540t-406.5 -190q-186 0 -279.5 126.5t-60.5 312.5q37 210 182.5 337.5t358.5 127.5q226 0 379 -121q25 176 -10.5 317t-132.5 225t-242 84q-146 0 -264 -69l12 74q121 65 264 65zM451 47
q197 0 346 170t209 467q-152 129 -375 129q-176 0 -302 -108.5t-159 -294.5q-28 -161 47.5 -262t233.5 -101z" />
    <glyph glyph-name="emptyset" unicode="&#x2205;" horiz-adv-x="1703" 
d="M1690 1475l-213 -213q99 -105 139.5 -249t11.5 -306q-36 -202 -163 -369.5t-313.5 -264t-391.5 -96.5q-244 0 -420 152l-170 -170h-86l213 213q-97 105 -138 249.5t-12 305.5q27 151 108 286.5t196.5 232.5t263 153.5t301.5 56.5q243 0 418 -151l170 170h86zM215 717
q-26 -147 8.5 -275.5t120.5 -222.5l1042 1038q-156 134 -380 134q-137 0 -271 -53t-240 -143t-181 -215t-99 -263zM1561 717q26 146 -9 274.5t-122 222.5l-1043 -1038q155 -133 381 -133q137 0 271 53t240 143t181.5 215t100.5 263z" />
    <glyph glyph-name="product" unicode="&#x220f;" horiz-adv-x="1310" 
d="M29 -410l323 1844h930l-324 -1844h-73l313 1776h-784l-312 -1776h-73z" />
    <glyph glyph-name="summation" unicode="&#x2211;" horiz-adv-x="1107" 
d="M-33 -410l13 72l698 879l-371 829l12 64h846l-12 -68h-770l377 -838l-694 -870h817l-11 -68h-905z" />
    <glyph glyph-name="minus" unicode="&#x2212;" horiz-adv-x="1105" 
d="M166 682l12 70h834l-13 -70h-833z" />
    <glyph glyph-name="radical" unicode="&#x221a;" horiz-adv-x="1298" 
d="M532 0l-225 547h-164l13 67h196l221 -532l789 1556h80l-832 -1638h-78z" />
    <glyph glyph-name="infinity" unicode="&#x221e;" horiz-adv-x="1665" 
d="M1311 1030q130 0 205 -91t51 -228q-25 -138 -125.5 -223t-235.5 -85q-52 0 -99 17t-80 40.5t-66.5 61.5t-53.5 68t-45 72q-51 -55 -89 -91t-96 -79.5t-121 -66t-130 -22.5q-131 0 -205.5 91t-50.5 229q25 138 125 222.5t235 84.5q64 0 119 -22.5t98.5 -65t71 -79.5
t60.5 -91q49 54 87 90.5t95 79.5t120 65.5t130 22.5zM434 469q56 0 110.5 20.5t108 63t88.5 76t88 90.5q-31 54 -55 88.5t-62.5 75.5t-86 61.5t-103.5 20.5q-105 0 -182.5 -69t-97.5 -179q-20 -109 34 -178.5t158 -69.5zM1495 717q20 109 -33.5 178.5t-158.5 69.5
q-56 0 -111 -21t-107 -61.5t-89 -77t-85 -90.5q29 -53 53 -88.5t61.5 -76t85 -61t103.5 -20.5q105 0 183 69.5t98 178.5z" />
    <glyph glyph-name="integral" unicode="&#x222b;" horiz-adv-x="888" 
d="M-164 -416l14 70q96 -44 181 6t127 172l473 1366q58 163 169 225t253 17l-13 -70q-116 42 -203.5 -6t-129.5 -172l-474 -1366q-56 -161 -164.5 -224t-232.5 -18z" />
    <glyph glyph-name="approxequal" unicode="&#x2248;" horiz-adv-x="1185" 
d="M639 850q-65 51 -124 68.5t-99 8t-75.5 -38.5t-55.5 -58.5t-37 -65.5l-62 29q18 44 46 84t74 74.5t99 47t124.5 -7.5t148.5 -80q65 -51 124 -68.5t99 -8.5t76 38.5t55.5 59t36.5 65.5l61 -28q-18 -44 -46 -84t-73 -74.5t-98 -47t-125 7.5t-149 79zM190 436l-63 29
q19 44 47.5 84t74.5 75t98.5 47.5t124.5 -7.5t149 -80q65 -51 124 -68.5t99 -8.5t76 38.5t55.5 59t36.5 65.5l61 -29q-18 -44 -45.5 -84t-73 -74.5t-98 -47t-124.5 7.5t-150 79q-66 51 -125 68.5t-100 8t-76 -38.5t-55 -59t-36 -65z" />
    <glyph glyph-name="notequal" unicode="&#x2260;" horiz-adv-x="1091" 
d="M1022 887h-293l-213 -340h447l-15 -70h-477l-207 -327h-65l207 327h-277l14 70h308l213 340h-461l12 69h494l206 328h66l-207 -328h260z" />
    <glyph glyph-name="lessequal" unicode="&#x2264;" horiz-adv-x="1091" 
d="M1075 1202l-12 -82l-782 -286l680 -287l-13 -74l-760 330l13 69zM88 231l10 70h820l-13 -70h-817z" />
    <glyph glyph-name="greaterequal" unicode="&#x2265;" horiz-adv-x="1091" 
d="M258 1202l760 -330l-12 -69l-875 -330l12 82l783 287l-680 286zM88 231l10 70h820l-13 -70h-817z" />
    <glyph glyph-name="lozenge" unicode="&#x25ca;" horiz-adv-x="1097" 
d="M422 0l-256 717l508 717h74l258 -717l-510 -717h-74zM467 80l461 647l-226 627l-458 -647z" />
    <glyph glyph-name="i.loclTRK" horiz-adv-x="413" 
d="M326 1182q-34 0 -53 22t-13 56t32 55.5t60 21.5q33 0 51.5 -22t14.5 -55q-6 -33 -32.5 -55.5t-59.5 -22.5zM80 0l180 1024h74l-180 -1024h-74z" />
    <glyph glyph-name="f_f_j" horiz-adv-x="1585" 
d="M1337 1407q-165 0 -252.5 -71t-115.5 -224l-17 -88h553l-207 -1174q-27 -147 -119.5 -222t-242.5 -60l12 70q236 -26 277 212l194 1106h-477l-170 -956h-72l170 956h-481l-168 -956h-71l167 956h-180l10 68h183l12 68q33 189 147 284t304 80l-13 -70q-308 26 -366 -294
l-13 -68h480l16 88q60 365 451 365q98 0 198 -23l-10 -65q-92 18 -199 18z" />
    <glyph glyph-name="f_j" horiz-adv-x="1034" 
d="M780 1386q-164 0 -251 -70.5t-115 -223.5l-13 -68h551l-207 -1174q-25 -147 -117.5 -222t-242.5 -60l10 70q238 -26 279 212l194 1106h-479l-168 -956h-71l167 956h-180l10 68h183l12 68q32 185 143.5 274.5t307.5 89.5q102 0 198 -22l-12 -66q-91 18 -199 18z" />
    <glyph glyph-name="uni0414.loclBGR" horiz-adv-x="1447" 
d="M1311 70l-13 -70l-49 -274h-73l49 274h-1182l-49 -274h-76l62 344h129l735 1364h84l254 -1364h129zM190 70h918l-234 1276z" />
    <glyph glyph-name="uni041B.loclBGR" horiz-adv-x="1230" 
d="M-55 0l792 1434h82l289 -1434h-76l-264 1343l-741 -1343h-82z" />
    <glyph glyph-name="uni0424.loclBGR" horiz-adv-x="1759" 
d="M1081 1456q208 -8 358 -102.5t216 -263t28 -383.5q-58 -325 -294.5 -522t-567.5 -208l-33 -182h-73l33 182q-155 6 -280 63t-206 153.5t-112.5 234.5t-2.5 299q38 215 160 379t303 253.5t398 96.5l32 182h74zM221 717q-51 -289 96 -473.5t443 -196.5l235 1339
q-304 -12 -513 -195.5t-261 -473.5zM1610 717q51 288 -96.5 472.5t-444.5 196.5l-235 -1339q304 12 513.5 195.5t262.5 474.5z" />
    <glyph glyph-name="uni0414.ss01" horiz-adv-x="1413" 
d="M1343 1434l-239 -1364h145l-12 -70h-1282l12 70h111q183 171 244 518l147 846h874zM395 586q-56 -333 -221 -516h854l227 1294h-723z" />
    <glyph glyph-name="uni0426.ss01" horiz-adv-x="1413" 
d="M1110 70h147l-12 -70h-1145l252 1434h76l-240 -1364h846l240 1364h76z" />
    <glyph glyph-name="uni0429.ss01" horiz-adv-x="2007" 
d="M1704 70h147l-12 -70h-1739l252 1434h76l-240 -1364h682l240 1364h76l-240 -1364h682l240 1364h76z" />
    <glyph glyph-name="uni0414.loclBGR.ss01" horiz-adv-x="1447" 
d="M1182 70h129l-13 -70h-1331l13 70h129l735 1364h84zM190 70h918l-234 1276z" />
    <glyph glyph-name="uni0432.loclBGR" horiz-adv-x="1183" 
d="M821 819q142 -36 208.5 -147.5t37.5 -274.5q-35 -202 -172 -311t-354 -109q-209 0 -312.5 134t-62.5 364l90 514q38 225 164 346t325 121q159 0 248.5 -98t67.5 -232q-15 -87 -76.5 -166.5t-163.5 -140.5zM733 1386q-160 0 -265.5 -103t-139.5 -294l-39 -219l268 51
q83 16 170 13q111 58 178.5 138.5t81.5 162.5q18 103 -51.5 177t-202.5 74zM995 408q36 198 -82.5 294.5t-365.5 51.5l-268 -52l-41 -231q-35 -203 47.5 -313.5t265.5 -110.5q180 0 297.5 95t146.5 266z" />
    <glyph glyph-name="uni0433.loclBGR" horiz-adv-x="946" 
d="M381 -23q-161 0 -250.5 86.5t-67.5 210.5q13 76 57 128.5t104.5 78.5t130.5 44t140 32.5t129 35t100.5 60.5t51.5 101q17 98 -49.5 160.5t-177.5 62.5q-106 0 -189.5 -47.5t-126.5 -130.5l-57 37q52 95 151.5 153t229.5 58q143 0 227 -88t64 -209q-12 -74 -55.5 -125.5
t-103 -77t-130 -43t-140 -32.5t-128.5 -35.5t-101 -61.5t-53 -103q-20 -100 53.5 -162.5t196.5 -62.5q124 0 216.5 53.5t139.5 145.5l58 -35q-123 -234 -420 -234z" />
    <glyph glyph-name="uni0434.loclBGR" horiz-adv-x="1353" 
d="M1200 1024h72l-170 -969q-40 -228 -197 -357.5t-391 -129.5q-172 0 -287 68.5t-155 177.5l63 32q30 -91 128 -149.5t255 -58.5q207 0 342 110t170 307l33 191q-80 -125 -209 -197t-279 -72q-152 0 -267 76t-166.5 204.5t-28.5 279.5q24 148 113 266t215 181t264 63
q161 0 281 -87t161 -235zM586 47q189 0 337.5 126.5t182.5 320.5q18 103 -6 194t-79 154t-137 99t-177 36q-188 0 -338.5 -126.5t-182.5 -322.5q-22 -132 23 -242.5t145 -174.5t232 -64z" />
    <glyph glyph-name="uni0436.loclBGR" horiz-adv-x="1333" 
d="M-35 0l604 539l-399 485h82l387 -469l156 879h73l-157 -883l549 473h94l-578 -498l412 -526h-80l-403 512l-91 -512h-71l88 512l-576 -512h-90z" />
    <glyph glyph-name="uni0438.loclBGR" horiz-adv-x="1165" 
d="M1012 1024h73l-180 -1024h-74l37 211q-74 -116 -184 -175t-235 -59q-179 0 -270.5 111.5t-59.5 292.5l112 643h72l-113 -643q-25 -150 45.5 -242t223.5 -92q159 0 281 102t167 283z" />
    <glyph glyph-name="uni0439.loclBGR" horiz-adv-x="1165" 
d="M958 1278l-12 -61h-504l11 61h505zM1012 1024h73l-180 -1024h-74l37 211q-74 -116 -184 -175t-235 -59q-179 0 -270.5 111.5t-59.5 292.5l112 643h72l-113 -643q-25 -150 45.5 -242t223.5 -92q159 0 281 102t167 283z" />
    <glyph glyph-name="uni043A.loclBGR" horiz-adv-x="966" 
d="M989 1024l-667 -494l499 -530h-90l-487 516l-90 -516h-74l252 1434h74l-154 -879l631 469h106z" />
    <glyph glyph-name="uni043B.loclBGR" horiz-adv-x="993" 
d="M868 0h-71l-219 948l-553 -948h-80l600 1024h84z" />
    <glyph glyph-name="uni043F.loclBGR" horiz-adv-x="1165" 
d="M717 1047q179 0 270.5 -111.5t59.5 -292.5l-113 -643h-72l113 643q25 150 -45 242t-223 92q-159 0 -281.5 -102t-167.5 -283l-104 -592h-74l180 1024h74l-37 -211q74 116 184.5 175t235.5 59z" />
    <glyph glyph-name="uni0442.loclBGR" horiz-adv-x="1773" 
d="M1362 1047q154 0 240.5 -101.5t54.5 -286.5l-115 -659h-74l117 659q26 153 -39 235.5t-196 82.5q-148 0 -258 -103.5t-144 -298.5l-100 -575h-74l117 659q26 153 -36 235.5t-191 82.5q-140 0 -249.5 -91t-152.5 -263l-108 -623h-74l180 1024h74l-33 -190
q70 108 169.5 160.5t207.5 52.5q115 0 193.5 -60t95.5 -176q70 119 175.5 177.5t219.5 58.5z" />
    <glyph glyph-name="uni0446.loclBGR" horiz-adv-x="1218" 
d="M934 164q-7 -46 13 -71t63 -25h55l-64 -357h-71l51 289q-65 5 -98.5 49.5t-20.5 114.5l8 47q-74 -117 -184 -175.5t-237 -58.5q-177 0 -269 111.5t-61 292.5l112 643h74l-115 -643q-25 -150 45.5 -242t223.5 -92q169 0 296 115t163 317l96 545h71z" />
    <glyph glyph-name="uni0448.loclBGR" horiz-adv-x="1773" 
d="M1620 1024h74l-181 -1024h-73l33 190q-70 -108 -169.5 -160.5t-207.5 -52.5q-115 0 -193.5 60t-95.5 176q-70 -119 -175.5 -177.5t-219.5 -58.5q-154 0 -240.5 101.5t-54.5 286.5l114 659h74l-117 -659q-26 -153 39.5 -235.5t196.5 -82.5q147 0 257 103.5t144 298.5
l101 575h73l-116 -659q-26 -153 36 -235.5t191 -82.5q140 0 249 91t152 263z" />
    <glyph glyph-name="uni0449.loclBGR" horiz-adv-x="1824" 
d="M1542 164q-9 -45 12 -70.5t64 -25.5h53l-59 -342h-74l51 274q-65 5 -99 49.5t-22 114.5l5 18q-71 -104 -171 -154.5t-206 -50.5q-115 0 -193.5 60t-95.5 176q-70 -119 -175.5 -177.5t-219.5 -58.5q-154 0 -240.5 101.5t-54.5 286.5l114 659h74l-117 -659
q-26 -153 39.5 -235.5t196.5 -82.5q147 0 257 103.5t144 298.5l101 575h73l-116 -659q-26 -153 36 -235.5t191 -82.5q140 0 248 90t151 262l111 625h74z" />
    <glyph glyph-name="uni044C.loclBGR" horiz-adv-x="989" 
d="M555 668q171 0 261.5 -101t64.5 -256q-27 -150 -143 -242t-287 -92q-185 0 -276 102t-64 255l120 690h74l-63 -356h313zM807 324q22 122 -50.5 199t-213.5 77h-314l-47 -266q-22 -129 50 -208t225 -79q139 0 234 78.5t116 198.5z" />
    <glyph glyph-name="uni044A.loclBGR" horiz-adv-x="1161" 
d="M727 668q170 0 261 -101.5t65 -255.5q-27 -150 -143 -242t-287 -92q-185 0 -276 102t-64 255l108 622h-313l12 68h387l-63 -356h313zM979 324q22 122 -50.5 199t-213.5 77h-314l-47 -266q-22 -129 50 -208t225 -79q139 0 234 78.5t116 198.5z" />
    <glyph glyph-name="uni044E.loclBGR" horiz-adv-x="1652" 
d="M1114 1047q106 0 196.5 -41t151 -112t86.5 -173t6 -217q-27 -155 -121 -277t-225.5 -186t-275.5 -64q-209 0 -339.5 141t-109.5 359h-245l-84 -477h-74l252 1434h74l-156 -887h246q32 149 126 264t222.5 175.5t269.5 60.5zM1483 514q18 100 -4 187t-74 147t-130.5 94.5
t-170.5 34.5q-126 0 -241.5 -58.5t-197.5 -165.5t-106 -241q-18 -101 4 -189t74 -148t130.5 -94.5t170.5 -33.5q193 0 351 132t194 335z" />
    <glyph glyph-name="zero.sinf" horiz-adv-x="841" 
d="M272 -352q-156 0 -231 122t-41 316q34 196 145.5 313t272.5 117q156 0 231 -122t41 -316q-34 -196 -145.5 -313t-272.5 -117zM281 -287q128 0 218.5 98.5t121.5 270.5q31 171 -26 270t-185 99t-218.5 -98.5t-121.5 -270.5t25.5 -270.5t185.5 -98.5z" />
    <glyph glyph-name="one.sinf" horiz-adv-x="485" 
d="M295 492h49l-145 -820h-70l129 734l-235 -78l-11 63z" />
    <glyph glyph-name="two.sinf" horiz-adv-x="704" 
d="M-72 -328l9 56l434 354q118 98 133 197q12 72 -32 122t-130 50q-73 0 -134.5 -40.5t-96.5 -105.5l-58 33q41 79 121 128.5t176 49.5q115 0 175 -70t46 -172q-10 -71 -51 -128t-106 -111l-365 -297h445l-13 -66h-553z" />
    <glyph glyph-name="three.sinf" horiz-adv-x="698" 
d="M584 492l-11 -66l-251 -274q105 -13 156.5 -85t33.5 -169q-19 -111 -105 -180.5t-219 -69.5q-195 0 -247 157l61 33q34 -125 195 -125q102 0 167.5 55t79.5 138q13 83 -33 136.5t-147 53.5h-6l-25 51l254 279h-415l10 66h502z" />
    <glyph glyph-name="four.sinf" horiz-adv-x="731" 
d="M571 -90l-10 -64h-121l-30 -174h-70l31 174h-451l12 64l414 582h76l-412 -582h371l41 231h70l-41 -231h120z" />
    <glyph glyph-name="five.sinf" horiz-adv-x="661" 
d="M565 428h-387l-67 -262h161q120 0 187 -76.5t47 -191.5q-20 -113 -107 -181.5t-215 -68.5q-190 0 -243 155l61 31q15 -58 64 -89.5t127 -31.5q95 0 161.5 52t83.5 141q15 89 -33.5 141.5t-144.5 52.5h-233l100 392h448z" />
    <glyph glyph-name="six.sinf" horiz-adv-x="690" 
d="M287 193q122 0 192.5 -80.5t50.5 -198.5q-22 -119 -115.5 -192.5t-219.5 -73.5q-121 0 -193.5 80.5t-50.5 199.5q14 78 67 144l351 420h88l-262 -312q50 13 92 13zM461 -80q15 92 -37 149.5t-148 57.5t-168.5 -58t-87.5 -149q-17 -91 35.5 -149t147.5 -58
q98 0 170.5 57.5t87.5 149.5z" />
    <glyph glyph-name="seven.sinf" horiz-adv-x="661" 
d="M43 492h545l-8 -56l-463 -764h-78l457 754h-463z" />
    <glyph glyph-name="eight.sinf" horiz-adv-x="714" 
d="M578 285q-10 -63 -54.5 -111t-109.5 -74q66 -30 97.5 -88.5t18.5 -134.5q-19 -106 -106.5 -167.5t-214.5 -61.5q-125 0 -196.5 66.5t-51.5 172.5q13 77 66.5 133.5t132.5 83.5q-55 27 -83 77t-18 114q20 105 103 163t194 58q107 0 174 -63.5t48 -167.5zM508 289
q13 76 -32.5 120t-127.5 44q-84 0 -145 -44t-74 -120q-12 -70 35 -113t127 -43q79 0 142 43t75 113zM463 -113q13 83 -37.5 132t-144.5 49q-98 0 -166.5 -48.5t-81.5 -132.5q-15 -79 36 -126.5t148 -47.5t164 47.5t82 126.5z" />
    <glyph glyph-name="nine.sinf" horiz-adv-x="690" 
d="M344 516q120 0 192.5 -81t51.5 -199q-15 -88 -78 -154l-340 -410h-86l264 312q-50 -13 -96 -13q-120 0 -192 81t-52 198q22 119 116 192.5t220 73.5zM518 244q17 91 -35 149t-147 58q-98 0 -170.5 -57.5t-87.5 -149.5t36.5 -149.5t147.5 -57.5t168.5 58t87.5 149z" />
    <glyph glyph-name="zero.tf" 
d="M492 -23q-163 0 -268.5 95t-136.5 261t5 390q59 337 232.5 535t423.5 198q163 0 268 -95t136 -260.5t-5 -389.5q-60 -338 -232 -536t-423 -198zM502 49q211 0 362.5 177.5t208.5 490.5q54 313 -35.5 490t-300.5 177q-210 0 -362.5 -177.5t-206.5 -489.5q-57 -312 33 -490
t301 -178z" />
    <glyph glyph-name="one.tf" 
d="M588 72h446l-12 -72h-1024l14 72h502l225 1278l-360 -111l-8 66l395 129h61z" />
    <glyph glyph-name="two.tf" 
d="M23 0l12 68l665 510q75 57 130 105t106.5 104t83 114t41.5 117q29 165 -58.5 265.5t-265.5 100.5q-132 0 -244 -67.5t-182 -183.5l-61 36q80 134 213 210.5t287 76.5q199 0 310 -120.5t77 -319.5q-23 -130 -122 -249t-263 -241l-602 -454h858l-13 -72h-972z" />
    <glyph glyph-name="three.tf" 
d="M1161 1434l-10 -70l-475 -524q200 -14 307 -132t74 -302q-35 -199 -193.5 -314t-386.5 -115q-169 0 -285.5 74.5t-150.5 202.5l68 35q27 -110 125 -175t251 -65q200 0 334 100.5t164 262.5q28 163 -70.5 262.5t-300.5 99.5h-20l-25 47l492 543h-789l11 70h880z" />
    <glyph glyph-name="four.tf" 
d="M1075 383l-10 -70h-188l-56 -313h-76l56 313h-781l11 70l739 1051h86l-739 -1051h696l80 451h76l-80 -451h186z" />
    <glyph glyph-name="five.tf" 
d="M1171 1364h-735l-127 -518h334q209 0 330 -123.5t88 -319.5q-35 -197 -190.5 -311.5t-376.5 -114.5q-168 0 -284.5 75.5t-148.5 205.5l68 35q25 -111 123 -177.5t250 -66.5q193 0 324 100.5t159 262.5t-67 262t-287 100h-412l162 660h801z" />
    <glyph glyph-name="six.tf" 
d="M645 922q225 0 345 -135.5t83 -346.5q-38 -210 -198.5 -336.5t-391.5 -126.5q-223 0 -342.5 135.5t-81.5 346.5q29 172 150 293l625 682h90l-498 -547q100 35 219 35zM997 451q32 175 -63 287t-297 112q-203 0 -337.5 -111.5t-166.5 -287.5q-32 -177 63.5 -289.5
t299.5 -112.5q203 0 336 112t165 290z" />
    <glyph glyph-name="seven.tf" 
d="M244 1434h977l-13 -70l-862 -1364h-82l862 1364h-895z" />
    <glyph glyph-name="eight.tf" 
d="M1137 1073q-21 -119 -102 -205.5t-204 -128.5q128 -43 188.5 -140t37.5 -228q-34 -186 -183.5 -290t-381.5 -104q-224 0 -343.5 110t-87.5 294q23 132 117 226t238 136q-105 45 -155 134.5t-30 205.5q30 173 171.5 273t345.5 100q128 0 223 -46.5t140 -134.5t26 -202z
M629 772q177 0 292.5 85.5t139.5 221.5t-62 220.5t-262 84.5t-291 -84.5t-139 -220.5t61 -221.5t261 -85.5zM981 375q26 149 -67 238t-298 89q-204 0 -329 -89t-150 -238q-27 -146 68.5 -236t296.5 -90q204 0 328 89t151 237z" />
    <glyph glyph-name="nine.tf" 
d="M756 1456q224 0 343.5 -134.5t82.5 -344.5q-29 -174 -154 -299l-620 -678h-93l498 547q-100 -35 -219 -35q-224 0 -344.5 135t-83.5 344q37 210 198 337.5t392 127.5zM1106 983q32 177 -62.5 289t-298.5 112q-205 0 -338 -111.5t-165 -289.5q-32 -175 63 -287t297 -112
q205 0 338.5 111.5t165.5 287.5z" />
    <glyph glyph-name="zero.dnom" horiz-adv-x="841" 
d="M330 -25q-156 0 -231.5 122.5t-41.5 316.5q34 196 145.5 313t272.5 117q156 0 231.5 -122t41.5 -316q-34 -196 -145.5 -313.5t-272.5 -117.5zM338 41q128 0 218.5 98.5t121.5 270.5q31 171 -26 269.5t-185 98.5t-218.5 -98t-121.5 -270t25.5 -270.5t185.5 -98.5z" />
    <glyph glyph-name="one.dnom" horiz-adv-x="503" 
d="M352 819h49l-145 -819h-70l129 733l-235 -78l-10 64z" />
    <glyph glyph-name="two.dnom" horiz-adv-x="706" 
d="M-12 0l8 55l434 355q118 98 133 196q12 72 -32 122t-130 50q-73 0 -134.5 -40t-96.5 -105l-57 33q41 79 121 128.5t176 49.5q115 0 175 -70t46 -172q-10 -71 -51.5 -128.5t-106.5 -111.5l-364 -296h444l-12 -66h-553z" />
    <glyph glyph-name="three.dnom" horiz-adv-x="710" 
d="M643 819l-10 -65l-252 -275q105 -13 156.5 -85t33.5 -169q-19 -111 -104.5 -180.5t-218.5 -69.5q-196 0 -248 158l61 33q34 -125 195 -125q103 0 168.5 55t79.5 137q13 83 -33 137t-147 54h-7l-24 51l254 279h-416l10 65h502z" />
    <glyph glyph-name="four.dnom" horiz-adv-x="731" 
d="M629 238l-11 -64h-120l-31 -174h-70l31 174h-451l13 64l413 581h76l-411 -581h370l41 231h70l-41 -231h121z" />
    <glyph glyph-name="five.dnom" horiz-adv-x="694" 
d="M625 756h-387l-68 -262h162q120 0 186.5 -77t46.5 -192q-20 -114 -106.5 -182t-214.5 -68q-190 0 -244 156l61 31q15 -58 64 -89.5t127 -31.5q96 0 162.5 51.5t83.5 140.5q15 89 -34 142t-145 53h-233l100 391h449z" />
    <glyph glyph-name="six.dnom" horiz-adv-x="690" 
d="M344 520q122 0 193 -80t51 -198q-22 -119 -116 -193t-220 -74q-121 0 -193.5 81t-50.5 200q14 76 68 143l350 420h88l-262 -311q46 12 92 12zM518 248q15 92 -36.5 149.5t-147.5 57.5t-168.5 -58t-87.5 -149q-17 -91 35 -149t147 -58q98 0 170.5 57.5t87.5 149.5z" />
    <glyph glyph-name="seven.dnom" horiz-adv-x="661" 
d="M100 819h545l-8 -55l-463 -764h-78l457 754h-463z" />
    <glyph glyph-name="eight.dnom" horiz-adv-x="714" 
d="M635 612q-10 -63 -54.5 -110.5t-109.5 -73.5q66 -30 98 -88.5t19 -134.5q-19 -106 -107 -168t-215 -62q-125 0 -196.5 67t-51.5 173q13 77 66.5 133.5t132.5 83.5q-55 27 -82.5 77t-17.5 114q20 105 103 163t194 58q107 0 173.5 -64t47.5 -168zM565 616q13 76 -32 120
t-127 44q-84 0 -145.5 -44t-74.5 -120q-12 -70 35 -112.5t127 -42.5q79 0 142 42.5t75 112.5zM520 215q13 83 -37.5 131.5t-144.5 48.5q-98 0 -166.5 -48.5t-81.5 -131.5q-15 -79 36 -126.5t148 -47.5t164 47.5t82 126.5z" />
    <glyph glyph-name="nine.dnom" horiz-adv-x="690" 
d="M401 844q120 0 192.5 -81.5t51.5 -199.5q-15 -86 -78 -153l-340 -410h-86l265 311q-47 -12 -97 -12q-120 0 -191.5 81t-51.5 198q22 119 115.5 192.5t219.5 73.5zM575 571q17 91 -35 149t-147 58q-98 0 -170.5 -57.5t-87.5 -149.5t36.5 -149t147.5 -57t168.5 57.5
t87.5 148.5z" />
    <glyph glyph-name="zero.numr" horiz-adv-x="841" 
d="M438 590q-156 0 -231 122t-41 316q34 196 145.5 313t272.5 117q156 0 231 -122t41 -316q-34 -196 -145.5 -313t-272.5 -117zM446 655q128 0 218.5 98.5t121.5 270.5q31 171 -26 270t-185 99q-127 0 -217.5 -98.5t-121.5 -270.5t25 -270.5t185 -98.5z" />
    <glyph glyph-name="one.numr" horiz-adv-x="503" 
d="M461 1434h49l-145 -820h-70l129 734l-236 -78l-10 63z" />
    <glyph glyph-name="two.numr" horiz-adv-x="704" 
d="M94 614l8 56l435 354q118 98 133 197q12 72 -32 122t-130 50q-73 0 -135 -40.5t-97 -105.5l-57 33q41 79 121 128.5t176 49.5q115 0 175 -69.5t46 -171.5q-17 -124 -157 -240l-365 -297h444l-12 -66h-553z" />
    <glyph glyph-name="three.numr" horiz-adv-x="708" 
d="M752 1434l-11 -66l-252 -274q105 -13 157 -85t34 -169q-19 -111 -105 -180.5t-219 -69.5q-195 0 -247 158l61 32q34 -125 195 -125q102 0 167.5 55t79.5 138q13 83 -33 136.5t-147 53.5h-6l-25 52l254 278h-415l10 66h502z" />
    <glyph glyph-name="four.numr" horiz-adv-x="731" 
d="M737 852l-10 -64h-121l-31 -174h-69l31 174h-451l12 64l414 582h76l-412 -582h371l41 231h69l-41 -231h121z" />
    <glyph glyph-name="five.numr" horiz-adv-x="694" 
d="M733 1370h-387l-67 -262h161q120 0 187 -76.5t47 -191.5q-20 -113 -107 -181.5t-215 -68.5q-190 0 -243 155l61 31q32 -121 190 -121q96 0 162.5 52t83.5 141q15 89 -33.5 141.5t-144.5 52.5h-233l100 392h448z" />
    <glyph glyph-name="six.numr" horiz-adv-x="690" 
d="M453 1135q122 0 192.5 -80.5t50.5 -198.5q-22 -119 -116 -192.5t-220 -73.5q-121 0 -193 80.5t-50 199.5q14 78 67 144l351 420h88l-263 -312q50 13 93 13zM627 862q15 92 -37 149.5t-148 57.5t-168.5 -58t-87.5 -149q-17 -91 35.5 -149t147.5 -58q98 0 170.5 57.5
t87.5 149.5z" />
    <glyph glyph-name="seven.numr" horiz-adv-x="661" 
d="M209 1434h545l-9 -56l-462 -764h-78l457 754h-463z" />
    <glyph glyph-name="eight.numr" horiz-adv-x="714" 
d="M743 1227q-10 -63 -54 -111t-109 -74q66 -30 97.5 -88.5t18.5 -134.5q-19 -106 -106.5 -167.5t-214.5 -61.5q-125 0 -196.5 66.5t-51.5 172.5q13 77 66.5 134t132.5 84q-55 27 -83 76.5t-18 113.5q20 105 103 163t194 58q107 0 173.5 -63.5t47.5 -167.5zM674 1231
q13 76 -32.5 120t-127.5 44q-84 0 -145 -44t-74 -120q-12 -70 35 -113t127 -43q79 0 142 43t75 113zM629 829q13 83 -38 132t-145 49q-98 0 -166 -48.5t-81 -132.5q-15 -79 36 -126.5t148 -47.5t164 47.5t82 126.5z" />
    <glyph glyph-name="nine.numr" horiz-adv-x="690" 
d="M510 1458q120 0 192.5 -81t51.5 -199q-15 -88 -78 -154l-340 -410h-86l264 312q-50 -13 -96 -13q-120 0 -192 81t-52 198q22 119 116 192.5t220 73.5zM684 1186q17 91 -35 149t-147 58q-98 0 -170.5 -57.5t-87.5 -149.5t36.5 -149.5t147.5 -57.5t168.5 58t87.5 149z" />
    <glyph glyph-name="zero.sups" horiz-adv-x="841" 
d="M496 918q-156 0 -231.5 122t-41.5 316q34 196 145.5 313t272.5 117q156 0 231 -122t41 -316q-34 -196 -145 -313t-272 -117zM504 983q128 0 218.5 98.5t121.5 270.5q31 171 -26 269.5t-185 98.5t-218.5 -98t-121.5 -270t25.5 -270.5t185.5 -98.5z" />
    <glyph glyph-name="one.sups" horiz-adv-x="503" 
d="M518 1761h49l-145 -819h-70l129 733l-235 -78l-10 64z" />
    <glyph glyph-name="two.sups" horiz-adv-x="706" 
d="M154 942l8 55l434 355q118 98 133 196q12 72 -32 122t-130 50q-73 0 -134.5 -40t-96.5 -105l-57 33q41 79 120.5 128.5t175.5 49.5q115 0 175.5 -70t46.5 -172q-16 -122 -158 -239l-365 -297h445l-12 -66h-553z" />
    <glyph glyph-name="three.sups" horiz-adv-x="708" 
d="M809 1761l-10 -65l-252 -275q105 -13 156.5 -85t33.5 -169q-19 -111 -104.5 -180t-218.5 -69q-196 0 -248 157l61 33q34 -125 195 -125q103 0 168.5 55t79.5 138q13 82 -33.5 136t-147.5 54h-6l-24 51l254 279h-416l10 65h502z" />
    <glyph glyph-name="four.sups" horiz-adv-x="731" 
d="M795 1180l-11 -64h-120l-31 -174h-70l31 174h-451l13 64l413 581h76l-412 -581h371l41 231h70l-41 -231h121z" />
    <glyph glyph-name="five.sups" horiz-adv-x="694" 
d="M791 1698h-388l-67 -262h162q120 0 186.5 -77t46.5 -192q-20 -113 -106.5 -181t-214.5 -68q-191 0 -244 155l61 31q15 -58 64 -89.5t127 -31.5q96 0 162.5 52t83.5 141q15 89 -34 141.5t-145 52.5h-233l100 391h449z" />
    <glyph glyph-name="six.sups" horiz-adv-x="690" 
d="M510 1462q122 0 193 -80t51 -198q-22 -119 -116 -192.5t-220 -73.5q-121 0 -193.5 80.5t-50.5 199.5q14 76 68 143l350 420h88l-262 -311q47 12 92 12zM684 1190q15 92 -36.5 149.5t-147.5 57.5t-168.5 -58t-87.5 -149q-17 -91 35 -149t147 -58q98 0 170.5 57.5
t87.5 149.5z" />
    <glyph glyph-name="seven.sups" horiz-adv-x="661" 
d="M268 1761h545l-8 -55l-463 -764h-78l457 754h-463z" />
    <glyph glyph-name="eight.sups" horiz-adv-x="714" 
d="M801 1554q-10 -63 -54.5 -110.5t-109.5 -73.5q66 -30 98 -88.5t19 -134.5q-19 -106 -107 -167.5t-215 -61.5q-125 0 -196.5 66.5t-51.5 172.5q13 77 66.5 133.5t132.5 83.5q-55 27 -82.5 77t-17.5 114q20 105 103 163t194 58q107 0 173.5 -64t47.5 -168zM731 1559
q13 76 -32.5 119.5t-127.5 43.5q-84 0 -145 -43.5t-74 -119.5q-12 -70 35 -113t127 -43q79 0 142 43t75 113zM686 1157q13 83 -37.5 131.5t-144.5 48.5q-98 0 -166.5 -48.5t-81.5 -131.5q-15 -79 36 -126.5t148 -47.5t164 47.5t82 126.5z" />
    <glyph glyph-name="nine.sups" horiz-adv-x="690" 
d="M567 1786q120 0 192.5 -81.5t51.5 -199.5q-15 -86 -78 -153l-340 -410h-86l264 311q-47 -12 -96 -12q-120 0 -192 81t-52 198q22 119 116 192.5t220 73.5zM741 1513q17 91 -35 149t-147 58q-98 0 -170.5 -57.5t-87.5 -149.5t36.5 -149t147.5 -57t168.5 57.5t87.5 148.5z
" />
    <glyph glyph-name="cent.tf" 
d="M1106 963q-48 142 -201 196l-446 -889q59 -18 129 -18q132 0 247 60.5t183 162.5l57 -37q-78 -121 -209 -188.5t-288 -67.5q-77 0 -154 23l-102 -205h-66l115 227q-134 62 -198.5 198t-35.5 304q40 226 217.5 374t407.5 148q64 0 119 -12l98 195h65l-106 -213
q84 -31 143.5 -89.5t87.5 -136.5zM403 291l445 883q-39 8 -94 8q-199 0 -354.5 -133t-190.5 -330q-25 -144 27.5 -259t166.5 -169z" />
    <glyph glyph-name="dollar.tf" 
d="M1079 1167q-67 199 -286 215l-113 -630q87 -31 147 -61.5t119.5 -79.5t82 -120t5.5 -161q-29 -163 -159.5 -255t-329.5 -98l-33 -182h-68l33 182q-169 9 -279 84.5t-139 202.5l68 35q22 -115 115.5 -179.5t246.5 -70.5l115 653q-34 12 -62.5 24t-61 27.5t-56.5 31.5
t-50.5 36.5t-43 42.5t-33 50t-22 57.5t-8.5 66t7 76.5q28 155 159 247t304 95l33 182h68l-33 -184q131 -13 218 -80.5t120 -173.5zM350 1106q-13 -67 3 -121.5t59 -93.5t90 -65t114 -52l109 610q-148 -6 -251.5 -83.5t-123.5 -194.5zM961 338q4 37 5 66.5t-10.5 57.5
t-24.5 50t-36 42.5t-46 37t-54.5 32.5t-61 28.5t-65.5 25.5l-111 -629q172 9 276 86.5t128 202.5z" />
    <glyph glyph-name="Euro.tf" 
d="M838 1384q-169 0 -300 -130.5t-202 -366.5h543l-11 -66h-551q-16 -64 -22 -104q-6 -35 -14 -101h550l-10 -63h-545q-13 -238 73 -371t253 -133q119 0 223.5 69.5t169.5 196.5l60 -36q-74 -142 -196.5 -222t-266.5 -80q-199 0 -302 156t-89 420h-156l10 63h150
q4 35 16 109q9 49 21 96h-150l10 66h156q78 266 232 417.5t358 151.5q135 0 232 -79.5t126 -215.5l-65 -35q-23 123 -104.5 190.5t-198.5 67.5z" />
    <glyph glyph-name="florin.tf" 
d="M827 1196q65 161 177.5 224t250.5 18l-12 -70q-112 43 -202.5 -6t-141.5 -172l-178 -436h319l-12 -70h-336l-352 -860q-65 -161 -177.5 -224t-250.5 -18l12 70q112 -43 202.5 6t141.5 172l350 854h-315l12 70h332z" />
    <glyph glyph-name="uni20BD.tf" 
d="M852 1434q109 0 195 -58t126.5 -157t20.5 -211q-31 -173 -171 -290.5t-318 -117.5h-410l-39 -229h571l-10 -66h-573l-54 -305h-75l53 305h-184l12 66h184l39 229h-182l12 70h182l136 764h485zM1120 1018q26 142 -56.5 244t-223.5 102h-410l-123 -694h410q142 0 260 102.5
t143 245.5z" />
    <glyph glyph-name="sterling.tf" 
d="M829 1384q-146 0 -243.5 -88t-122.5 -237l-68 -383h510l-10 -68h-512l-96 -536h796l-12 -72h-1085l12 72h213l96 536h-174l12 68h174l68 383q32 186 152.5 291.5t296.5 105.5q130 0 222 -69.5t134 -192.5l-62 -33q-41 108 -112 165.5t-189 57.5z" />
    <glyph glyph-name="yen.tf" 
d="M1290 1434l-620 -738h374l-10 -63h-391l-35 -191h391l-10 -65h-391l-68 -377h-73l65 377h-387l12 65h388l32 191h-387l10 63h373l-362 738h80l340 -695l581 695h88z" />
    <glyph glyph-name="brevecy" horiz-adv-x="587" 
d="M166 1217l10 61h506l-12 -61h-504z" />
    </font>
</defs>
</svg>
